<svg xmlns="http://www.w3.org/2000/svg" viewBox="0 440 4510 800"><path d="M288 996v88c-4 5-9 8-16 8-11 0-17-7-17-20v-64c0-13 6-20 17-20 7 0 12 3 16 8Zm161 216c51 0 91-14 119-43 27-29 41-71 41-124l-2-23c-2-5-5-7-9-7h-17c-4 0-7 1-8 4-1 2-3 9-4 20-2 15-4 26-7 31s-7 8-13 8c-5 0-8-2-10-6s-3-12-3-23V924c0-80-22-141-66-182-45-41-110-62-195-62-71 0-129 14-172 41s-65 62-65 107c0 33 12 60 36 81 24 20 56 30 97 30 40 0 73-10 99-30 25-20 38-45 38-76 0-26-9-47-27-64a98 98 0 0 0-69-25c-2-3-3-7-3-10 0-9 7-14 21-14 29 0 55 11 76 34 21 22 32 48 32 79 0 77-61 123-184 139-48 7-83 20-106 39a95 95 0 0 0-35 77c0 37 14 67 42 90s65 34 111 34c33 0 60-7 83-20 22-13 41-34 56-63 29 55 77 83 144 83Zm385-378c0-31 11-58 32-80 21-23 47-34 76-34 14 0 21 5 21 14 0 3-1 7-3 10-28 0-51 8-69 25a83 83 0 0 0-27 64c0 35 13 65 39 90 25 24 57 36 94 36 40 0 73-12 99-36 25-25 38-55 38-92 0-30-10-56-29-79s-45-41-78-53c-33-13-71-19-113-19-59 0-110 12-155 36a256 256 0 0 0-140 232 250 250 0 0 0 134 232c41 21 88 32 139 32 54 0 102-12 144-36a263 263 0 0 0 132-235c0-13-4-20-11-20h-13l-7 2-9 7c-21 21-41 37-62 46a183 183 0 0 1-155-8 153 153 0 0 1-77-134Zm582-142h-259c-8 0-12 3-12 10v12l2 7 8 6c18 11 30 22 37 35 7 12 10 30 10 53v232c0 53 13 93 38 122s62 43 110 43c33 0 63-7 90-22s47-35 62-62c13 27 33 47 58 62s54 22 85 22c51 0 90-15 119-44a169 169 0 0 0 41-146c-2-5-5-7-9-7h-17c-4 0-7 1-8 4-1 2-3 9-4 20-2 15-4 26-7 31s-7 8-13 8c-5 0-8-2-10-6s-3-12-3-23V724c0-11-3-19-8-24s-14-8-26-8h-180c-13 0-21 3-26 8s-8 13-8 24v361c-3 5-9 8-17 8-6 0-11-2-14-7s-5-11-5-18V724c0-11-2-19-7-24s-14-8-27-8Zm635 393c0-25-11-45-34-60s-52-23-88-23-64 8-85 23a74 74 0 0 0-32 63c0 37 24 67 72 90 47 23 111 34 191 34 88 0 156-14 203-42s70-68 70-121c0-37-12-66-36-86-24-21-64-37-120-48-47-10-81-23-101-39a78 78 0 0 1-31-65c0-24 9-45 26-63 17-19 36-28 57-28 12 0 18 4 18 13 0 3-1 7-4 11-21 1-37 8-49 20a58 58 0 0 0-18 43c0 25 11 45 34 60s52 23 88 23c37 0 65-8 86-23 21-16 31-37 31-64 0-39-20-69-59-90-39-22-94-33-165-33-86 0-154 15-204 46-51 30-76 71-76 123 0 65 44 108 131 128 46 11 78 24 97 40 19 15 28 37 28 64 0 24-8 45-25 64a77 77 0 0 1-58 27c-12 0-18-4-18-13 0-3 1-7 4-11 21-1 37-8 49-19 12-12 18-27 18-44Zm417-501c-7 31-15 53-23 68-9 15-20 25-35 31s-38 9-69 9h-4c-8 0-12 3-12 10v18c0 7 4 10 12 10h59v307c0 55 16 98 47 129s74 46 130 46c54 0 96-14 125-43s44-70 44-123l-2-24c-2-5-5-7-9-7h-16c-4 0-7 1-8 4-2 3-4 9-5 20-3 15-6 26-9 31-4 5-10 8-18 8-10 0-17-2-20-7-4-5-6-14-6-27V730h99c8 0 12-3 12-10v-18c0-7-4-10-12-10h-99V584c0-11-2-19-7-24s-14-8-27-8h-109c-11 0-20 2-25 7-6 4-10 12-13 25Z"/><path d="M2756 552c0 30 12 54 35 72 23 17 55 26 94 26s71-9 95-27c23-18 35-42 35-71 0-30-12-54-35-72-24-18-56-27-95-27s-71 9-94 27a86 86 0 0 0-35 72Zm230 140h-264c-8 0-12 3-12 10v12l2 7 8 6c18 11 30 22 37 35 7 12 10 30 10 53v229c0 54 14 96 42 125 27 29 67 43 118 43 53 0 94-14 123-43s43-70 43-123l-2-24c-2-5-5-7-9-7h-17c-4 0-7 1-8 4-1 2-3 9-4 20l-7 32c-3 5-7 7-13 7-5 0-8-2-10-6s-3-12-3-23V724c0-11-2-19-7-24s-14-8-27-8Zm231 525c33 0 61-9 82-27s31-41 31-70-10-52-31-70-49-27-82-27-60 9-81 27a88 88 0 0 0-32 70c0 29 11 52 32 70s48 27 81 27Zm336-383c0-31 11-58 32-80 21-23 47-34 76-34 14 0 21 5 21 14 0 3-1 7-3 10-28 0-51 8-69 25a83 83 0 0 0-27 64c0 35 13 65 39 90 25 24 57 36 94 36 40 0 73-12 99-36 25-25 38-55 38-92 0-30-10-56-29-79s-45-41-78-53c-33-13-71-19-113-19-59 0-110 12-155 36a256 256 0 0 0-140 232 250 250 0 0 0 134 232c41 21 88 32 139 32 54 0 102-12 144-36a263 263 0 0 0 132-235c0-13-4-20-11-20h-13l-7 2-9 7c-21 21-41 37-62 46a183 183 0 0 1-155-8 153 153 0 0 1-77-134Zm617 162v88c-4 5-9 8-16 8-11 0-17-7-17-20v-64c0-13 6-20 17-20 7 0 12 3 16 8Zm161 216c51 0 91-14 119-43 27-29 41-71 41-124l-2-23c-2-5-5-7-9-7h-17c-4 0-7 1-8 4-1 2-3 9-4 20-2 15-4 26-7 31s-7 8-13 8c-5 0-8-2-10-6s-3-12-3-23V924c0-80-22-141-66-182-45-41-110-62-195-62-71 0-129 14-172 41s-65 62-65 107c0 33 12 60 36 81 24 20 56 30 97 30 40 0 73-10 99-30 25-20 38-45 38-76 0-26-9-47-27-64a98 98 0 0 0-69-25c-2-3-3-7-3-10 0-9 7-14 21-14 29 0 55 11 76 34 21 22 32 48 32 79 0 77-61 123-184 139-48 7-83 20-106 39a95 95 0 0 0-35 77c0 37 14 67 42 90s65 34 111 34c33 0 60-7 83-20 22-13 41-34 56-63 29 55 77 83 144 83Z"/></svg>
