<?xml version="1.0"?>
<svg width="700" height="700" xmlns="http://www.w3.org/2000/svg">

 <g>
  <title>background</title>
  <rect fill="none" id="canvas_background" height="702" width="702" y="-1" x="-1"/>
 </g>
 <g>
  <title>Layer 1</title>
  <g id="surface1">
   <path id="svg_1" fill-rule="nonzero" fill="rgb(0%,0%,0%)" d="m345.417511,116.911987c5.410004,5.878998 11.050995,11.539001 16.410004,17.457001c3.609985,-4.707001 7.082001,-9.527008 10.781982,-14.180008c1.078003,-1.338989 2.910004,-1.729996 4.550018,-1.936996c5.480988,4.639999 9.648987,10.686996 14.570984,15.910004c4.660004,-4.520004 8.878998,-9.473007 13.097015,-14.410004c8.43399,2.707001 9.531982,13.128998 14.789001,19.089996c1.593994,0.367004 2.60199,-0.991989 3.531982,-2.031998c3.820007,-4.549988 7.613007,-9.139999 11.601013,-13.549988c7.031982,6.241989 7.468994,16.831985 14.488983,23.171997c3.800018,-4.692001 7.761017,-9.262009 11.781036,-13.781998c1.639954,-1.758011 3.378967,-3.929001 6.057983,-3.828003c6.089966,6.188004 7.609985,14.910004 11.171997,22.507996c7.078003,-5.847992 13.628967,-12.289001 19.789001,-19.089996c4.289001,6.710999 6.450012,14.492004 8.921997,21.992004c6.95697,-4.69101 12.179993,-12.672012 20.22699,-15.472c3.510986,7.049988 3.960999,15.151993 5.601013,22.75c7.089966,-3.481003 13.578003,-7.981003 19.973022,-12.590012c6.03894,7.430008 4.72699,17.781006 7.655945,26.492004c7.742004,-2.679993 14.621033,-7.270004 22.242004,-10.223007c3.438049,-1.526993 6.829041,1.090012 9.809021,2.5c9.840027,6.063004 21.448975,8.043015 31.60199,13.453003c8.117004,4.238998 16.596985,7.688004 25.507019,9.878998c7.703979,3.149002 5.52002,12.75 4.609985,19.430008c-7.007996,36.218994 -9.698975,73.050995 -14.72699,109.55899c-1.221985,10.871002 -3.971985,21.589996 -3.97998,32.582001c-0.921997,11.539001 -3.632996,22.828003 -5.192017,34.277008c-4.601013,36.75 -10.601013,73.300995 -14.960999,110.094025c-1.359009,8.018982 -1.429016,16.776978 -6.367004,23.636963c-6.281006,7.882019 -18.171997,7.582031 -24.179016,15.730042c-5.210999,7.210999 -8.68396,16.839966 -17.5,20.530945c-10.390991,4.899048 -22.164978,4.430054 -33.35199,5.137024c-13.417969,7.340027 -26.531006,15.703003 -40.917969,21.090027c-11.79303,-1.356018 -21.551025,-8.988037 -31.652039,-14.578003c-7.839966,-3.528015 -16.05899,-6.460999 -23.089996,-11.5c-3.531006,-2.399048 -7.019989,-5.692017 -11.609985,-4.891052c-0.351013,-1.007996 -0.710999,-2.007996 -1.062012,-3c-6.878998,-1.167969 -11.828003,-6.425964 -18.429993,-8.319946c-7.167999,-3.91803 -15.730011,-0.77002 -23,-4.460999c-6.468994,-2.89502 -13.570007,-2.578003 -20.457001,-3.098022c-11.390015,-1.440979 -22.980011,-1.768982 -34.363007,-0.171997c-11.078003,2.429993 -22.136993,5.323975 -32.578003,9.800964c-7.089996,1.52301 -14.039001,3.69104 -21.152985,5.160034c-11.757019,1.5 -23.167999,4.992004 -34.988007,6.242004c-10.218994,0.870972 -20,4.289001 -30,6.210999c-5.539001,-4.893982 -11.410004,-9.414001 -17.762009,-13.190979c-12.127991,-7.172058 -23.417999,-15.710999 -36.207001,-21.731018c-11.280991,-7.14801 -23.190994,-13.242004 -34.350998,-20.588989c-5.026993,-3.231018 -10.399002,-6.489014 -16.442001,-7.257996c-4.917999,-0.992004 -8.807999,2.617004 -13.44899,3.147949c-4.340012,-2.468994 -6.789001,-7.561951 -11.789001,-9.042969c-5.012009,-1.135986 -10.699005,2.473022 -15.109001,-1.085999c-5.610001,-4.018982 -11.731003,-7.421997 -16.770004,-12.132019c-0.979996,-4.481018 -1.339996,-9.039978 -1.741997,-13.589966c0.890999,0.620972 1.780998,1.25 2.671997,1.870972c0.308998,-7.312988 0.128998,-14.640991 -0.562996,-21.917999c-1.347,-13.464996 0.730995,-26.992004 -0.109001,-40.464996c-0.890999,-12.585999 -1.628998,-25.179993 -1.898003,-37.796997c-5.762001,2.328003 -12.129295,5.636993 -18.398796,2.867004c-3.191406,-0.875 -5.929703,-3.89801 -5.441406,-7.355011c1.179703,-10.792999 -0.550797,-21.742004 0.941406,-32.460999c2.527298,-9.972992 12.406197,-14.019989 20.796799,-17.953003c-0.808998,-35.507996 -1.437004,-71 -2.75,-106.488998c-0.225998,-1.929001 1.159996,-3.577988 2.93,-4.147995c5.811996,-1.953003 12.421997,-2.223007 17.542999,-5.882996c2.847,-3.328003 4.116997,-7.699005 6.846992,-11.090012c4.770004,-1.889999 10.383011,-0.378998 14.922012,-3.038986c11.05899,-6.480011 22.5,-15.019012 36.167999,-12.910004c2.741989,-4.539001 6.60199,-8.75 12.082001,-9.710999c22.468994,-4.429001 44.44899,-10.887009 66.617004,-16.597c5.300995,-1.590012 9.261993,3.936996 13.550995,5.847c1.312988,-6.070007 -0.597015,-13.768997 4.871002,-18.090012c7.218994,6.590012 15.269989,12.590012 24.679993,15.610001c2.320007,-7.667999 3.671997,-15.566986 5.378998,-23.386993c4.570007,2.108994 7.062012,6.628998 10.621002,9.938004c4.109009,4.588989 9.44101,7.768997 14.781006,10.729996c1.667999,-5.378998 3,-10.871002 4.507996,-16.300995c0.652008,-1.957001 1.312988,-4.590012 3.75,-4.887009c3.222992,-0.030991 5.632996,2.520004 7.820007,4.528c4.191986,4.070007 8.269989,8.312012 13.152985,11.582001c3.039001,-6.481003 4.347015,-14.160004 10.097015,-18.991989c6.242981,5.44899 13.359985,10.018997 18.60199,16.530991c5.460999,-5.460999 9.449005,-12.121002 14.238007,-18.128998"/>
   <path id="svg_2" fill-rule="nonzero" fill="rgb(100%,100%,100%)" d="m312.675507,126.856995c0.789001,0.038986 2.359009,0.097992 3.14801,0.140991c6.949982,12.988007 14.769989,25.686996 19.167999,39.848007c2.070984,7.280991 6.343994,13.819992 7.703979,21.311996c0.39801,1.487991 -0.089996,2.910004 -1.230988,3.910004c-5.628998,-8.261002 -8.44101,-18.062012 -12.410004,-27.139999c-4.609009,-13.05101 -12.199005,-24.852005 -16.378998,-38.070999"/>
   <path id="svg_3" fill-rule="nonzero" fill="rgb(100%,100%,100%)" d="m281.515503,129.005981c0.839996,0 2.507996,-0.019989 3.339996,-0.019989c4.207001,6.692001 8.957001,13.011993 13.39801,19.539001c4.878998,8.781998 9.550995,17.691986 15.050995,26.113998c3.179993,4.737991 5.667999,9.987991 6.968994,15.565994c-12.550995,-15.578003 -21.039001,-33.938004 -32.320984,-50.386993c-2.437012,-3.422012 -4.449005,-7.121002 -6.437012,-10.812012"/>
   <path id="svg_4" fill-rule="nonzero" fill="rgb(100%,100%,100%)" d="m346.663513,129.21698c3.941986,12.269012 7.199982,24.781006 9.609985,37.449005c1.589996,8.382996 4.019012,16.641006 4.652008,25.171997c-2.339996,-1.539001 -4.421997,-3.692001 -4.621002,-6.621002c-1.550995,-10.238998 -2.64801,-20.640991 -6.429993,-30.378998c-3.171997,-8.121002 -3.492004,-17.011993 -3.210999,-25.621002"/>
   <path id="svg_5" fill-rule="nonzero" fill="rgb(100%,100%,100%)" d="m375.675507,129.595993c0.769989,0.179001 2.31601,0.530991 3.097992,0.710999c1.94101,12.761002 -0.480988,25.550003 -0.937988,38.311996c-0.371002,7.417999 -0.230011,14.858994 -0.761993,22.276993c-0.660004,-0.179001 -1.968018,-0.518997 -2.628021,-0.69899c-0.222992,-20.210999 1.058014,-40.389999 1.230011,-60.600998"/>
   <path id="svg_6" fill-rule="nonzero" fill="rgb(100%,100%,100%)" d="m396.491516,193.90799c4.093994,-20.820007 4.343994,-42.289001 10.031982,-62.800995c0.609009,5.55899 0.769012,11.210999 -0.257996,16.730988c-2.132996,14.910004 -2.980988,29.980011 -5.382996,44.859009c-1.457001,0.410004 -2.929993,0.819992 -4.390991,1.210999"/>
   <path id="svg_7" fill-rule="nonzero" fill="rgb(100%,100%,100%)" d="m253.632507,136.868988c7.429993,5.988007 13.402008,13.578003 21.132996,19.238007c6.410004,4.898987 11.207001,11.460999 16.609009,17.378998c5.269989,5.991989 11.917999,11.011993 15.128998,18.539001c-3.269012,-1.859009 -6.429993,-3.937012 -9.281006,-6.39801c-15.917999,-14.929993 -30.31601,-31.460999 -43.589996,-48.757996"/>
   <path id="svg_8" fill-rule="nonzero" fill="rgb(100%,100%,100%)" d="m421.874512,164.618988c4.597992,-9.121002 5.718994,-19.684006 11.109985,-28.402008c-0.41098,11.261002 -5.531982,21.468002 -8.468994,32.152008c-4.390991,9.608994 -7.402008,19.886993 -13.179993,28.828003c1.757996,-11.39801 7.386993,-21.578003 10.539001,-32.578003"/>
   <path id="svg_9" fill-rule="nonzero" fill="rgb(100%,100%,100%)" d="m220.656494,139.46698c8.328003,3.140015 14.457001,10.070007 21.757019,14.949005c5.30899,4.100998 11.359985,7.171997 16.371002,11.680008c11.519989,10.901993 26.207001,18.042999 36.898987,29.870987c-11.179993,-3.55899 -19.371002,-12.339996 -28.417999,-19.320999c-7.332001,-4.909988 -14.5,-10.049988 -21.031006,-15.987991c-9.05899,-6.359009 -19.171997,-11.820007 -25.578003,-21.19101"/>
   <path id="svg_10" fill-rule="nonzero" fill="rgb(100%,100%,100%)" d="m449.304504,160.856995c4.018982,-6.601013 7.237976,-14.429001 14,-18.761002c-2.812988,9.690994 -9.83197,17.332001 -15.378998,25.561996c-8.910004,11.069992 -15.582001,24.089996 -26.031006,33.839996c1.578003,-7.421997 8.109009,-11.949005 11.871002,-18.160004c5.027008,-7.60199 11.519012,-14.230988 15.539001,-22.480988"/>
   <path id="svg_11" fill-rule="nonzero" fill="rgb(100%,100%,100%)" d="m201.292511,147.427994c14.800995,6.217987 27.5,16.440994 40.742004,25.347c16.820984,9.531998 33.390991,19.480988 50.05899,29.273987c0,4.058014 0.289001,8.136017 0.140991,12.207001c-1.371002,22.660004 0.039001,45.390015 -1.648987,68.042999c-0.550995,0.019012 -1.652008,0.046997 -2.203003,0.058014c0.429993,-26.121002 -0.410004,-52.289001 1.589996,-78.371002c-15.417999,-8.281006 -29.730988,-18.480011 -44.917999,-27.160004c-5.460999,-3.238007 -11.460999,-5.550995 -16.468994,-9.507996c-6.613007,-5.292999 -14.02301,-9.422012 -21.25,-13.769012c-2.542999,-1.460999 -4.511993,-3.653 -6.042999,-6.120987"/>
   <path id="svg_12" fill-rule="nonzero" fill="rgb(100%,100%,100%)" d="m180.734512,153.337982c3.858994,-0.75 8.358994,-2.610001 11.889999,-0.082001c8.050995,5.672012 16.429993,10.851013 24.507996,16.492004c7.222992,4.968994 15.371002,8.417999 22.562988,13.468994c11.449005,7.859009 24.757019,12.69101 35.687012,21.359009c-17.976013,3.261993 -35.726013,7.621002 -53.410004,12.230988c-2.738007,0.570007 -5.718994,1.83902 -8.417999,0.468018c-15.371002,-8.667999 -28.890991,-20.187012 -44.289001,-28.777008c-7.292999,-4.281006 -13.761993,-9.890991 -21.401993,-13.582001c-4.82901,-2.358994 -9.988998,-4.828003 -12.707001,-9.731003c14.526993,-6.268997 30.557999,-7.19899 45.578003,-11.847"/>
   <path id="svg_13" fill-rule="nonzero" fill="rgb(100%,100%,100%)" d="m469.132507,188.868988c16.312988,-13.440994 33.609009,-25.632996 51.340027,-37.093994c-4.629028,6.241989 -10.609009,11.25 -17.160034,15.35199c-12.968994,8.578003 -24.867004,18.64801 -38.028015,26.94101c-6.292969,5.457001 -12.627991,11.167999 -20.741974,13.80899c7.441986,-7.269989 16.621002,-12.390991 24.589996,-19.007996"/>
   <path id="svg_14" fill-rule="nonzero" fill="rgb(100%,100%,100%)" d="m454.144531,183.845993c10.050964,-9.070999 19.539001,-18.719009 29.198975,-28.188004c-5.328003,9.210999 -13.52002,16.05899 -20.968994,23.438004c-9.390015,8.940994 -17.468018,19.311996 -27.800995,27.202988c4.070984,-9.35199 12.917999,-15.070999 19.571014,-22.452988"/>
   <path id="svg_15" fill-rule="nonzero" fill="rgb(100%,100%,100%)" d="m502.10553,187.774994c15.569946,-7.39801 29.867004,-17.238007 45.397949,-24.687012c-20.018982,18.109009 -45.409973,28.14801 -68.397949,41.730011c-6.54303,3.589996 -12.02002,9.070984 -19.25,11.328003c-0.223022,-0.800018 -0.653015,-2.39801 -0.871033,-3.199005c14.588989,-7.992004 27.531006,-19.018997 43.121033,-25.171997"/>
   <path id="svg_16" fill-rule="nonzero" fill="rgb(100%,100%,100%)" d="m560.945496,180.618988c8.238037,-2.902008 16.057983,-7.272995 24.718018,-8.921997c-6.468018,4.968994 -14.390015,7.481003 -21.570007,11.210999c-12.75,6.968994 -26.781006,11.007996 -39.91803,17.117004c-12.202942,5.921997 -24.839966,10.910004 -36.952942,17.031982c-4.828003,2.460022 -9.797058,4.671021 -14.848022,6.628021c3.948975,-4.828003 10.148987,-6.507019 15.507996,-9.207001c7.731018,-4.121002 15.870972,-7.402008 23.742004,-11.242004c7.867004,-4.39801 16.109985,-8.078003 24.489014,-11.389999c8.5,-3.25 16.281006,-8.07901 24.83197,-11.227005"/>
   <path id="svg_17" fill-rule="nonzero" fill="rgb(100%,100%,100%)" d="m127.00351,173.587982c26.800995,17 54.069992,33.230011 79.902985,51.730011c-0.843994,35.277985 -1.050995,70.578003 -1.953979,105.867004c-0.070007,3.832001 0.480988,7.640991 0.550995,11.460999c-2.089996,41.679993 -1.339996,83.421997 -1.929993,125.128967c0.582977,19.692017 -1.011017,39.364014 -0.269012,59.063049c0.609009,4.128967 -0.35199,8.167969 -1.980988,11.917969c-4.351013,-1.387024 -8.410004,-3.5 -12.14801,-6.089966c-16.940994,-11.231018 -34.25,-21.891052 -51.311996,-32.91803c2.588989,-19.570007 1.061996,-39.292999 2.018997,-58.949005c-1.359009,-23.070984 1.410004,-46.179993 -0.738007,-69.230988c-0.75,-6.050995 0.969009,-12.050995 0.628998,-18.101013c-0.460999,-20.167999 -0.730988,-40.347992 -0.05899,-60.519989c0.667999,-6.390015 1.839996,-12.949005 -0.089996,-19.281006c-2.101013,-9.460999 -0.160004,-19.230988 -1.789001,-28.75c-0.921997,-4.460999 0.296997,-8.937988 0.128998,-13.429993c0.789001,-15.089996 -0.082001,-30.210999 -0.789001,-45.289001c-0.792999,-5.781006 -6.660004,-8.531006 -10.171997,-12.609009"/>
   <path id="svg_18" fill-rule="nonzero" fill="rgb(100%,100%,100%)" d="m100.542511,176.286987c5.421997,-1.108994 11.140991,-0.75 16.19899,1.511993c-3.866989,1.789001 -7.975998,3.070007 -11.718002,5.117004c-4.5,2.561996 -8.148987,7.531006 -13.968994,6.882996c-2.352005,0.457001 -5.449005,-3.179993 -2.813004,-4.812988c3.743011,-3.347 7.692001,-6.609009 12.30101,-8.699005"/>
   <path id="svg_19" fill-rule="nonzero" fill="rgb(100%,100%,100%)" d="m575.04248,185.747986c7.75,-3.102005 14.910034,-8.910004 23.653015,-8.429993c6.367004,1.687988 12.268982,4.800995 18.140015,7.738998c7.598022,3.94899 15.898987,6.311996 23.667969,9.889999c-11.378967,5.007996 -21.878967,11.929993 -33.518982,16.289001c-6.628967,-6.980011 -14.179993,-13.090012 -22.468994,-17.980011c-3.83197,-2.238998 -8.773987,-3.019989 -12.840027,-0.988998c-8,3.610001 -15.811951,7.641006 -23.659973,11.55101c0.039001,1.69899 0.109009,5.089996 0.14801,6.777985c8.200012,6.042999 17.968994,11.382019 22.800964,20.781006c-13.530945,6.621002 -27.991943,11.39801 -40.858948,19.320007c-9.231018,-6.281006 -20.102051,-9.101013 -30.090027,-13.839996c-5.340027,-2.378998 -10.192017,-5.69101 -15.262024,-8.582001c20.590027,-12.156006 42.910034,-20.886017 64.180054,-31.738007c8.280945,-4.608994 17.698975,-6.460999 26.108948,-10.789001"/>
   <path id="svg_20" fill-rule="nonzero" fill="rgb(100%,100%,100%)" d="m97.425507,193.15799c7.878998,-5.350998 16.667999,-10.430008 26.546997,-10.100998c3.100998,0.139999 5.570007,3.397995 4.141006,6.718002c1.889999,24.843994 -0.110001,49.742004 0.350998,74.621002c1.231003,38.140991 -1.039001,76.30899 1.160004,114.441986c-0.883011,17.257996 0.667999,34.519012 0.070999,51.781006c-1.281998,22.56601 1.737991,45.155975 -0.340012,67.707001c-8.050995,-1.051025 -14.519989,-6.390991 -22.261993,-8.348022c-4.559006,-1.139954 -8.371002,2.507996 -12.770004,2.329041c-5.082001,-2.468994 -9.871002,-5.507996 -14.897995,-8.059021c-5.229996,-3.651978 -2,-11.35199 -2.761993,-16.473022c-0.711014,-16.686981 -0.39801,-33.39798 -1.578003,-50.069977c3.757996,4.703003 7.878998,9.093994 12.128998,13.35199c3.800995,-1.55899 8.160004,-3.230988 9.828003,-7.339996c3.800995,-6.097992 -1.167999,-16.441986 -9.008011,-15.019989c-5.542999,-0.558014 -8.979996,4.421997 -12.69899,7.609985c-1.27301,-9.281982 -0.363007,-18.648987 -0.889999,-27.968994c-0.460999,-8.191986 -1.161011,-16.382996 -0.911011,-24.589996c0.340012,-12.460999 -2.25,-25.082001 0.481003,-37.421997c0.820007,-3.30899 -0.792999,-6.5 -1.442001,-9.679993c-1.929001,-10.210999 -0.371002,-20.628998 -1.459991,-30.89801c-1.340012,-13.761993 -0.141006,-27.609009 -0.688004,-41.390991c-0.940994,-10.44101 -1.352005,-20.921997 -1.402008,-31.390015c9.539001,-6.539001 18.062012,-14.480988 28.402008,-19.80899"/>
   <path id="svg_21" fill-rule="nonzero" fill="rgb(100%,100%,100%)" d="m63.374504,202.825989c2.988998,-4.488007 6.327995,-8.75 9.801003,-12.878998c2.065994,1.757996 5.199005,2.921997 5.968994,5.75c-2.929993,5.737991 -9.860001,7.237991 -15.769997,7.128998"/>
   <path id="svg_22" fill-rule="nonzero" fill="rgb(100%,100%,100%)" d="m363.163513,192.196991c5.191986,-0.871002 8.570984,3.128998 10.929993,7.128998c-0.328003,0.608994 -0.988007,1.832001 -1.320007,2.440994c-3.75,-0.100998 -7.5,-0.209991 -11.238983,-0.332001c0.597992,-3.065994 1.089996,-6.159988 1.628998,-9.237991"/>
   <path id="svg_23" fill-rule="nonzero" fill="rgb(100%,100%,100%)" d="m330.25351,192.626984c2.871002,0.768997 5.921997,1.078003 8.589996,2.449005c2.109009,2.031006 2.789001,5.042999 3.878998,7.671997c-3.847992,1.070007 -7.80899,1.667999 -11.80899,1.527008c-0.281006,-3.879013 -0.558014,-7.758011 -0.660004,-11.64801"/>
   <path id="svg_24" fill-rule="nonzero" fill="rgb(100%,100%,100%)" d="m348.132507,191.927994c5.761993,0.006989 9.621002,4.460999 9.121002,9.940994c-3.769012,1.039001 -7.699005,0.199005 -11.531006,0.046997c0.703003,-3.347992 1.531006,-6.679993 2.410004,-9.987991"/>
   <path id="svg_25" fill-rule="nonzero" fill="rgb(100%,100%,100%)" d="m312.605499,196.65799c2.968018,-0.600998 6.300995,-2.382996 9.218018,-0.680008c3.25,1.911011 2.988983,6.661011 5.140991,9.391006c-6.550995,3.05899 -12.628998,-2.671997 -14.359009,-8.710999"/>
   <path id="svg_26" fill-rule="nonzero" fill="rgb(100%,100%,100%)" d="m380.202515,202.388992c-3.507019,-6.95401 4.691986,-7.442001 8.761993,-7.403c2.007996,2.832001 1.628998,6.5 2.140991,9.800995c-3.691986,-0.531006 -7.460999,-0.878998 -10.902985,-2.397995"/>
   <path id="svg_27" fill-rule="nonzero" fill="rgb(100%,100%,100%)" d="m558.195496,205.516983c7.289001,-2.627991 13.768982,-7.621002 21.596985,-8.518997c8.653015,5.609009 19.332031,10.468994 23.602051,20.578003c2.417969,4.960999 4.620972,10.089996 5.828003,15.5c5.460999,30.210999 3.5,61.011993 2.210999,91.480988c-3.16803,38.812012 -7.289001,77.601013 -14.621033,115.871002c-2.359985,13.83902 -5.578003,27.518982 -7.839966,41.390015c-1.359009,7.348022 -4.059021,14.367004 -5.52002,21.70697c-1.527039,7.532043 -2.796021,15.25 -6.14801,22.25c-3.090027,6.621033 -3.89801,14.512024 -9.468994,19.75c-4.140015,3.093994 -9.101013,4.843994 -14.151978,5.742004c7.839966,-15.967957 9.83197,-33.781006 13.722961,-50.940979c2,-12.198975 5.929016,-23.97998 8.117004,-36.140991c5.049988,-25.679016 6.570007,-51.828003 10.742004,-77.636017c2.070007,-13.792999 2.320007,-27.742004 3.89801,-41.593994c1.109985,-23.378998 4.539001,-46.718994 2.942017,-70.14801c1.096985,-9.398987 -1.199036,-18.621979 -1.492004,-27.980988c-0.778015,-6.738007 -4.098022,-12.871002 -6.809021,-18.988007c-5.171997,-7.492004 -13.08197,-12.480988 -20.762024,-17.062988c-2.319946,-1.308014 -4.167969,-3.25 -5.846985,-5.258011"/>
   <path id="svg_28" fill-rule="nonzero" fill="rgb(100%,100%,100%)" d="m399.952515,197.087982c2.953979,1.139999 6.171997,2.008011 8.582001,4.179001c1.257996,2.438004 1.468994,5.238998 2.199982,7.891006c-4.839996,-0.222992 -9.628998,-0.953003 -14.281982,-2.312012c0.972992,-3.320984 2.171997,-6.570984 3.5,-9.757996"/>
   <path id="svg_29" fill-rule="nonzero" fill="rgb(100%,100%,100%)" d="m299.593506,198.497986c4.480011,1.729996 9.039001,3.878998 11.531006,8.238007c-3.710999,1.671997 -7.660004,2.742004 -11.601013,3.691986c-0.347992,-3.972992 -0.410004,-7.972992 0.070007,-11.929993"/>
   <path id="svg_30" fill-rule="nonzero" fill="rgb(0%,0%,0%)" d="m148.105499,198.96698c2.277008,1.230011 4.730011,2.340012 6.578003,4.218002c1.242004,2.770004 0.921997,5.942001 1.320007,8.910995c-3.057999,-1.109985 -6.557999,-1.957001 -8.64801,-4.640991c-1.679993,-2.667999 0.258011,-5.757996 0.75,-8.488007"/>
   <path id="svg_31" fill-rule="nonzero" fill="rgb(100%,100%,100%)" d="m612.83551,217.005981c10.929993,-4.55899 21.198975,-10.597992 32.25,-14.886993c-2.301025,28.957001 -8.671997,57.429993 -10.832031,86.406006c-3.468994,24.25 -6.800964,48.511993 -10.487976,72.722992c-4.731018,39.871002 -10.151978,79.667999 -16.140991,119.359009c-2.051025,10.589966 -2.651978,21.489014 -5.960999,31.789001c-3.629028,4.570984 -9.789001,6.10199 -14.421997,9.33197c2.292969,-18.901978 8.542969,-37.088989 11.031982,-55.971985c1.460999,-9.187988 4.820007,-17.937988 7.101013,-26.910004c3.739014,-34.339996 9.128967,-68.47699 12.128967,-102.898987c1.110046,-8.69101 3.5,-17.351013 2.660034,-26.171997c-0.97998,-9.218018 0.550964,-18.437012 -0.160034,-27.656006c0.27002,-11.19101 2.75,-22.480011 -0.800964,-33.472992c-3.187012,-10.300018 -5.460999,-20.871002 -6.367004,-31.640015"/>
   <path id="svg_32" fill-rule="nonzero" fill="rgb(100%,100%,100%)" d="m420.273499,203.46698c2.621002,0.871002 5.300018,1.550003 7.851013,2.652008c3.507996,8.109009 -5.789001,6.437988 -9.839996,5.89801c-0.44101,-1.121002 -0.871002,-2.25 -1.300018,-3.371002c1.08902,-1.730011 2.171997,-3.461014 3.289001,-5.179016"/>
   <path id="svg_33" fill-rule="nonzero" fill="rgb(100%,100%,100%)" d="m362.234497,205.497986c2.519012,1.039001 5.039001,2.089996 7.570007,3.14801c0.238007,21.980988 -1.179993,43.929993 -3.031006,65.832001c-0.468994,24.109985 -2.480988,48.16098 -2.878998,72.277985c-0.30899,16 -2.660004,31.902008 -2.421997,47.910004c0.582001,17.859009 -2.988007,35.519012 -2.707001,53.382996c-0.031006,21.678986 -3.152008,43.14798 -4.570007,64.738007c-1.992981,0.390991 -3.992981,0.789001 -5.972992,1.198975c2.44101,-13.22998 0.281006,-26.768982 1.921997,-40.089966c3.140015,-23.527008 1.14801,-47.371002 3.769012,-70.917999c-1.300018,-13.152008 1.078003,-26.152008 1.828003,-39.230011c0.222992,-8.878998 -0.519012,-17.800995 0.242981,-26.671997c2.300018,-15.757996 1.101013,-31.730011 2.769012,-47.550995c1.839996,-11.117004 -0.738007,-22.328003 0.769989,-33.468018c1.460999,-8.859985 -0.300995,-17.828979 0.742004,-26.718994c0.859009,-7.929993 0.640991,-15.949005 1.968994,-23.839996"/>
   <path id="svg_34" fill-rule="nonzero" fill="rgb(0%,0%,0%)" d="m159.042511,206.817993c3.780991,1.136993 7.409988,2.687988 10.730988,4.828003c2.269012,1.371002 6.289001,2.5 5.140015,5.941986c-1.379013,2.820007 -3.89801,5.078003 -6.711014,6.437012c-2.819992,-2.839996 -6.229996,-5.339996 -8.210999,-8.878998c-0.44899,-2.777008 -0.737991,-5.539001 -0.94899,-8.328003"/>
   <path id="svg_35" fill-rule="nonzero" fill="rgb(100%,100%,100%)" d="m227.054504,221.735992c18.679993,-3.667999 37.10199,-8.628998 55.10199,-14.820007c-2.242981,16.242004 -2.023987,32.671997 -3.523987,48.980011c0.660004,19.492981 -1.726013,38.921997 -1.187012,58.421997c-1.011993,22.687988 -0.66098,45.398987 -2.011993,68.089996c-0.320007,48.480988 -1.910004,96.930023 -2.371002,145.410004c0,4.789001 -0.089996,12.359985 -5.847992,14.059021c-18.210999,4.589966 -36.929993,6.72998 -55.210999,10.991943c-1.058014,-22.640991 -0.179993,-45.33197 0.160004,-67.97998c-0.328003,-9.140991 -0.699005,-18.312988 0.281982,-27.421997c-0.679993,-20.5 0.878021,-40.988983 -0.339996,-61.468994c1.367004,-14.722992 -0.632996,-29.5 1.007996,-44.19101c1.210022,-9.16098 -0.878998,-18.30899 -0.320984,-27.488983c-0.167999,-10.980011 1.910004,-21.921997 0.691986,-32.882996c-0.261993,-21.628021 1.25,-43.257019 0.359009,-64.878021l13.210999,-4.820984zc-9.039001,2.640991 -4.621002,0.910004 0,0"/>
   <path id="svg_36" fill-rule="nonzero" fill="rgb(100%,100%,100%)" d="m345.894501,207.427979c2.480011,1.019012 4.94101,2.078003 7.371002,3.210999c-0.242004,26.359009 -4.152008,52.558014 -3.742004,78.937012c-1.410004,24.230988 -0.718994,48.582001 -2.820984,72.792999c-1.75,23.238007 0.85199,46.656006 -1.980011,69.835999c-1.488007,24.300995 -0.917999,48.702972 -2.898987,72.980011c-0.289001,4.231018 0.449982,10.614014 -6.570007,9.140991c2.550995,-20.718994 -0.449005,-41.718994 3.050995,-62.347992c0.781006,-6.640015 0.078003,-13.320007 -0.160004,-19.972015c0.718994,-15.417999 0.019012,-30.878998 1.519012,-46.257996c1.398987,-14.449005 0.30899,-29 2,-43.421997c1.5,-8.160004 -0.480011,-16.390991 0.429993,-24.570007c0.992004,-13.878998 0.859009,-27.820984 2.089996,-41.679993c-0.589996,-7.55899 0.371002,-15.097992 0.808014,-22.64801c-0.199005,-15.339996 0.312988,-30.671997 0.902985,-46"/>
   <path id="svg_37" fill-rule="nonzero" fill="rgb(100%,100%,100%)" d="m378.484497,208.274994c3.671997,1.742004 10.308014,2.621002 9.33902,8.121002c-1.167023,21.921997 -3.789001,43.75 -4.179016,65.710999c0.089996,22.261993 -3.199005,44.378998 -3.171997,66.640991c-0.078003,7.679993 -1.859009,15.238007 -1.886993,22.929993c-0.113007,31.75 -4.371002,63.328003 -3.992004,95.088989c-0.85199,16.051025 -3.628998,31.929993 -4.410004,47.981018c-2.359985,-0.370972 -4.718994,-0.742004 -7.070007,-1.090027c0.371002,-12.839966 0.972015,-25.659973 1.679016,-38.47998c0.710999,-7.442017 2.160004,-14.800995 2.511993,-22.269989c-0.789001,-20.960999 0.121002,-41.980011 2.89801,-62.769012c0.992981,-17.441986 -0.39801,-34.992981 2.242981,-52.332001c1.027008,-5.390991 -0.289001,-10.859985 0.429016,-16.257996c0.398987,-3.382996 1.55899,-6.679993 1.339996,-10.113983c-0.839996,-9.207001 0.878998,-18.39801 0.628998,-27.617004c-0.718994,-13.382996 1.371002,-26.69101 1.628998,-40.050995c-0.289001,-11.910004 3.050995,-23.562012 2.011993,-35.492004"/>
   <path id="svg_38" fill-rule="nonzero" fill="rgb(100%,100%,100%)" d="m330.863495,210.067993c2.050018,0.050995 4.101013,0.070984 6.152008,0.050995c0.320007,19.296997 -3.222992,38.406006 -2.339996,57.699005c0.207001,22.019989 -1.722992,43.980988 -2.25,65.980988c-0.19101,15.308014 -0.062012,30.656006 -1.781006,45.89801c-0.238007,43.199005 -0.671997,86.441986 -4.25,129.519989c1.488007,4.859009 -2.539001,6.940979 -5.949005,8.449036c0.269012,-12.527039 0.660004,-25.078003 1.960999,-37.559021c0.906006,-22.359009 0.347015,-44.769012 1.679016,-67.121002c1.597992,-13.007996 0.22699,-26.117004 1.257996,-39.160004c0.89801,-13.968994 -0.75,-28.089996 1.449005,-41.980011c0.449005,-18.429993 1.261993,-36.878998 1.062988,-55.320984c0.257996,-7.308014 0.628998,-14.64801 2.199005,-21.796997c-1.25,-14.832001 -1.468994,-29.910004 0.80899,-44.660004"/>
   <path id="svg_39" fill-rule="nonzero" fill="rgb(100%,100%,100%)" d="m398.823517,210.536987c3.179993,2.371002 8.968994,3.75 6.929993,9.269989c0,15.031006 -2.738007,29.94101 -2.769012,44.992004c-2.281982,31.968018 -5.039001,63.906006 -6.128998,95.957001c-0.242004,17.390015 -3.363983,34.582001 -3.062988,52c-2.378998,15.621002 -2.667999,31.429016 -3.410004,47.19101c-1.117004,13.519989 -1.757996,27.069977 -2.929993,40.577972c-1.128998,4.692017 -1,9.481018 -0.578003,14.274048c-1.69101,-0.012024 -5.082001,-0.032043 -6.769012,-0.04303c-0.261993,-15.968994 2.558014,-31.739014 3.300995,-47.659973c-0.031982,-8.129028 -0.011993,-16.250031 -0.453979,-24.368011c-0.828003,-13.351013 1.890991,-26.582001 1.800995,-39.921021c3.261993,-20.890991 0.800995,-42.179993 4.261993,-63.070984c2.449005,-16.238007 0.707001,-32.687012 2.179993,-48.988007c0.710999,-18.140991 0.410004,-36.390991 3.507019,-54.332001c0.820984,-8.617004 -1.777008,-18.480988 4.121002,-25.878998"/>
   <path id="svg_40" fill-rule="nonzero" fill="rgb(100%,100%,100%)" d="m433.222504,213.704987c4.660004,-2.796997 10.320007,-2.64801 15.382996,-1.078003c-1.199005,2.710999 -2.519989,5.371002 -3.812988,8.039001c-4.878998,-0.30899 -8.867004,-3.097992 -11.570007,-6.960999"/>
   <path id="svg_41" fill-rule="nonzero" fill="rgb(100%,100%,100%)" d="m51.124504,212.606995c1.032005,0.410004 2.058998,0.820984 3.090004,1.230988c2.468994,19.878998 1.839996,39.937012 2.257996,59.910004c1.781006,17.769012 0.590004,35.640991 1.992004,53.417999c0.667999,32.69101 1.848,65.382996 2.870995,98.070007c-0.241997,17.789001 2.321007,35.60199 0.270004,53.360016c-6.442001,-4.289001 -4.070999,-12.91803 -4.973,-19.47702c0.292999,-22.914001 -0.797005,-45.812012 -1.777,-68.69101c0.757996,-8.199982 -1.301003,-16.281982 -1.192001,-24.472992c0.121002,-11 -2.148003,-21.929993 -1.171997,-32.929993c-1.316002,-26.277008 -0.359001,-52.628998 -1.726006,-78.917999c-0.608994,-13.820007 -0.952995,-27.710999 0.359001,-41.5"/>
   <path id="svg_42" fill-rule="nonzero" fill="rgb(100%,100%,100%)" d="m315.413513,217.747986c-0.281006,-3.312988 2.878998,-4.792999 5.339996,-6.050995c0.011993,29.710999 -0.679993,59.421997 -2.410004,89.078003c-1.14801,17.140991 -0.10199,34.343994 -1.35199,51.472992c1.152985,13.878998 -2.257019,27.578003 -0.988007,41.437012c-0.089996,18.953979 -2.589996,37.820984 -1.69101,56.800995c-0.609985,22.749969 -1.207001,45.511993 -2.109985,68.249969c-1.89801,0.430054 -3.777008,0.871033 -5.667999,1.301025c0.687988,-21.039001 2.30899,-42.059021 1.417999,-63.128998c0.632996,-22.281006 1.5,-44.550995 2.609985,-66.812012c1.429016,-11.339996 -1.25,-22.80899 0.613007,-34.117981c2.359009,-10.550018 0.218994,-21.382019 0.730988,-32.050018c0.39801,-11.019989 0.656006,-22.050995 0.699005,-33.082001c1.320007,-6.839996 2.308014,-13.847992 0.929016,-20.769989c-1.390015,-5.707001 1.050995,-11.347992 0.988983,-17.070007c-0.187988,-11.769989 0.781006,-23.5 0.890015,-35.257996"/>
   <path id="svg_43" fill-rule="nonzero" fill="rgb(0%,0%,0%)" d="m145.855499,213.356995c3.570007,1.339996 7.090012,2.781982 10.578003,4.320984c-0.328003,3.238007 -0.660004,6.5 -1.149002,9.718018c-3.030991,-1.140015 -6.280991,-2 -8.870987,-4.019012c-1.539001,-3.128998 -0.800003,-6.699005 -0.558014,-10.019989"/>
   <path id="svg_44" fill-rule="nonzero" fill="rgb(100%,100%,100%)" d="m299.214508,216.274994c2.410004,0.121002 6.007996,-1.207001 7.218994,1.691986c0.171997,14.058014 -1.507996,28.109009 -0.769989,42.19101c-0.601013,27.218994 -2.609009,54.410004 -2.730011,81.648987c-0.167999,9.011017 -1.718994,17.949005 -1.378998,26.968018c-0.171997,21.761993 -2.480988,43.460999 -2.031006,65.230988c-1.390991,27.902008 -0.117004,55.921997 -2.589996,83.768982c-0.269989,2.593994 -3.218994,3.430054 -4.949005,4.903015c-1.511993,-12.75 1.757019,-25.481018 1.578003,-38.25c-0.136993,-8.570984 1.371002,-17.140991 0.152008,-25.671997c0.859009,-20.199005 1.007996,-40.437988 2.269989,-60.617004c0.031006,-8.671997 -0.761993,-17.339996 -0.371002,-26c1.859009,-26.68399 2.140015,-53.441986 3.472015,-80.140991c-1.050995,-12.359009 0.656006,-24.710999 -0.402008,-37.062988c1.589996,-12.83902 0.652008,-25.769012 0.531006,-38.660004"/>
   <path id="svg_45" fill-rule="nonzero" fill="rgb(100%,100%,100%)" d="m62.585503,239.345978c0.918007,-7.609985 -3.952995,-17.089996 1.598,-23.609985c2.582001,14.199005 1.410004,28.718994 1.992004,43.062988c0.019997,29.5 2.25,58.929016 2.367004,88.417999c1.261993,36.179016 3.121002,72.351013 3.062988,108.550018c-0.140991,5.328979 0.808014,10.899017 -1.421997,15.929962c-3.398994,-43.108978 -2.480995,-86.39798 -4.698997,-129.557983c-0.628998,-10.121979 -1.789001,-20.242981 -1.5,-30.390991c0.609001,-6.261993 -1.18,-12.390991 -1,-18.640991c1.737999,-17.890015 -0.75,-35.839996 -0.399002,-53.761017"/>
   <path id="svg_46" fill-rule="nonzero" fill="rgb(100%,100%,100%)" d="m414.183502,216.376984c3.308014,0.660004 6.640015,1.429993 9.921997,2.289001c-0.062988,18.121002 -2.480988,36.089996 -4.011993,54.121002c-2.238007,16.261993 -1.878998,32.710999 -4.078003,48.980011c-2.191986,34.328979 -5.10199,68.621979 -7.023987,102.968994c-0.347015,10.429993 -2.718018,20.710999 -2.335022,31.171997c-0.800995,20.210968 -3.980988,40.238007 -4.921997,60.449005c-2.609985,0.159973 -5.210999,0.328003 -7.789001,0.5c1.449005,-18.921997 1.83902,-37.968018 4.769012,-56.730011c2.039001,-20.679993 1.199005,-41.539001 3.828003,-62.160004c3.441986,-23.347992 1.261993,-47.140991 5.132996,-70.441986c0.5,-7.617004 1.128998,-15.226013 2.449005,-22.757996c0.898987,-5.062012 -0.281006,-10.210022 0.5,-15.281006c1.55899,-11.058014 0.667999,-22.238007 0.968994,-33.347015c0.890991,-13.25 1.789001,-26.5 2.589996,-39.761993"/>
   <path id="svg_47" fill-rule="nonzero" fill="rgb(100%,100%,100%)" d="m455.323486,217.126984c3.860046,0.050995 7.239014,2.308014 10.460999,4.210999c-2.350952,2.160004 -4.678955,4.320007 -7.010986,6.468994c-3.450012,-0.871979 -6.929993,-1.80899 -10.367004,-2.648987c2.31601,-2.589996 3.609009,-6.5 6.916992,-8.031006"/>
   <path id="svg_48" fill-rule="nonzero" fill="rgb(0%,0%,0%)" d="m169.183502,227.954987c2.402008,-3.80899 6.371002,-6.5 9.768997,-9.457001c1.532013,1.25 3.070999,2.480011 4.641006,3.679993c0.628998,6.738007 -3.608994,12.109009 -8.031006,16.609009c-2.039001,-3.531006 -6.25,-6.480011 -6.378998,-10.832001"/>
   <path id="svg_49" fill-rule="nonzero" fill="rgb(0%,0%,0%)" d="m77.882507,218.516998c7.332001,0.539978 14.132996,5.167999 16.089996,12.449982c1.300995,5.332001 -3.617004,8.519012 -6.149002,12.44101c-4.057999,-0.609009 -9.397995,-0.460999 -12,-4.371002c-4.518997,-6.25 -2.929001,-14.917999 2.059006,-20.519989"/>
   <path id="svg_50" fill-rule="nonzero" fill="rgb(0%,0%,0%)" d="m159.605499,220.727997c3.019012,3.039001 2.859009,7.320984 2.949005,11.30899c-1.679993,-0.410004 -3.358994,-0.80899 -5.039001,-1.230011c0.539001,-3.390991 1.207001,-6.75 2.089996,-10.078979"/>
   <path id="svg_51" fill-rule="nonzero" fill="rgb(100%,100%,100%)" d="m433.113495,222.536987c3.312012,1.390991 6.58902,2.871002 9.851013,4.390991c-2.992004,17.58902 -2.601013,35.578003 -5.25,53.230011c-3.25,22.519989 -3.660004,45.328003 -6.789001,67.847992c-0.300995,16.132996 -3.60199,32.011017 -4.300995,48.113007c-4.550995,41.468994 -7.039001,83.136993 -11.480011,124.616974c-1.820984,0.012024 -5.480988,0.031006 -7.300995,0.031006c0.609009,-10.889954 3.781006,-21.47998 3.839996,-32.409973c0.582001,-21.859009 5.210999,-43.429016 5.101013,-65.308014c0.167999,-8.191986 3.089996,-16.179993 2.027985,-24.402985c0.152008,-30.730011 6.19101,-61.039001 8.132996,-91.64801c-0.382996,-8.25 1.117004,-16.421997 1.128021,-24.652008c-0.039001,-16.546997 4.179993,-32.72699 4.539978,-49.25c0.070007,-3.519989 0.261017,-7.046997 0.5,-10.55899"/>
   <path id="svg_52" fill-rule="nonzero" fill="rgb(0%,0%,0%)" d="m187.105499,225.536987c4.457001,0.390991 7.949005,3.488007 11.757996,5.511993c0.042999,1.839996 0.121002,5.507996 0.160004,7.347015c-4.409988,-1.19101 -10,-1.738007 -12.730988,-5.988007c-0.597,-2.460999 -0.328003,-4.75 0.812988,-6.871002"/>
   <path id="svg_53" fill-rule="nonzero" fill="rgb(100%,100%,100%)" d="m79.804504,225.837982c3.378998,0.781006 8.078003,0.820007 10.102005,4.308014c0.757004,3.050995 0.136002,7.902985 -3.434006,8.980988c-3.296997,0.742004 -7.289001,-1.160004 -8.026993,-4.648987c-0.320999,-2.953003 0.737991,-5.812012 1.358994,-8.640015"/>
   <path id="svg_54" fill-rule="nonzero" fill="rgb(100%,100%,100%)" d="m467.85553,227.337982c0.45697,-0.019989 1.385986,-0.062988 1.858948,-0.082001c-0.401978,16.582001 -2.870972,33.113007 -6.33197,49.312012c-1.018982,16.410004 -3.328003,32.687988 -4.718994,49.070984c-3.299988,23.136017 -4.421997,46.56601 -8.671997,69.578003c-2.976013,33.218018 -8.14801,66.199005 -11.269012,99.410034c-2.628998,13.600952 -2.898987,27.518982 -5.757996,41.078003c-0.710999,0.022949 -2.109009,0.050964 -2.808014,0.061951c1.539001,-14.061951 2.007019,-28.217957 3.878021,-42.25c1.839996,-9.39801 3.859985,-18.789001 4.847992,-28.33197c0.921997,-27.187012 6.261993,-54.007019 8.800995,-81.058014c1.601013,-22.839996 6.222992,-45.371002 7.050995,-68.269989c3.379028,-19.94101 3.057983,-40.320007 7.210999,-60.128998c1.539001,-9.550018 3.41803,-19.042999 5.910034,-28.390015"/>
   <path id="svg_55" fill-rule="nonzero" fill="rgb(0%,0%,0%)" d="m146.515503,229.235992c3.348007,1.179993 6.609009,2.609985 9.757996,4.242004c-0.089996,1.988983 -0.269989,5.957001 -0.347992,7.949982c-2.940994,-1.031982 -6.160004,-1.781982 -8.550995,-3.890991c-1.820007,-2.289001 -0.511002,-5.589996 -0.859009,-8.300995"/>
   <path id="svg_56" fill-rule="nonzero" fill="rgb(100%,100%,100%)" d="m450.132507,229.427979c2.051025,1.078003 4.10199,2.199005 6.140991,3.328003c-0.200012,8.519012 -0.281982,17.070007 -1.589966,25.511017c-1.879028,11.839996 -2.469055,23.828979 -4.410034,35.66098c-2.628998,17.027008 -3.097992,34.289001 -5.628998,51.320007c-3.570984,22.89801 -4.441986,46.097992 -7.300995,69.078003c-3.488007,26.949005 -4.890991,54.140991 -8.621002,81.070007c-1.429993,9.411011 -1.667999,18.972961 -3.628998,28.300964c-0.789001,0.031006 -2.371002,0.102051 -3.160004,0.129028c1.160004,-26.018982 6.402008,-51.66803 6.851013,-77.718994c2.347992,-17.468018 4.199982,-35 5.078979,-52.609009c2.25,-14.332001 3.359009,-28.812988 5.5,-43.152008c0.652008,-5.507996 1.460022,-11.039001 1.121002,-16.589996c-0.699982,-12.539001 3.601013,-24.636993 3.488007,-37.160004c2.582001,-13.597992 2.410004,-27.47699 4.511993,-41.128998c-0.171997,-8.718994 0.328003,-17.410004 1.64801,-26.039001"/>
   <path id="svg_57" fill-rule="nonzero" fill="rgb(0%,0%,0%)" d="m160.406509,236.184998c1.608994,-2.160004 4,-3.507019 6.179001,-4.988007c2,3.039001 4.007996,6.078003 6.046997,9.10199c-2.167999,1.820007 -4.268997,4.269012 -7.268997,4.527008c-2.05101,-2.378998 -6.628998,-4.89801 -4.957001,-8.640991"/>
   <path id="svg_58" fill-rule="nonzero" fill="rgb(100%,100%,100%)" d="m479.445496,233.595978c6.027039,3.652008 12.527039,6.421021 19.140015,8.859009c8.167969,3.042999 15.789001,7.320007 23.45697,11.43399c1.960999,1.269012 4.960999,2.738007 4.551025,5.527008c-5.629028,38.351013 -10.031006,76.882996 -14.609009,115.371002c-3.890991,23.839996 -4.828003,48.05899 -9.089966,71.859009c-2.481018,12.480988 -3.121033,25.222961 -5.262024,37.75c-5.598022,28.35199 -7.937012,57.192017 -12.507996,85.710999c-15.5,-6.440979 -29.312012,-16.601013 -45.332001,-21.859009c1.562988,-11.481018 3.699005,-22.890991 4.300995,-34.492004c1.089996,-18.231018 4.890991,-36.137024 6.94101,-54.257996c3.071014,-14.781006 3.527985,-29.94101 6.167999,-44.792999c2.222961,-12.167999 3.800964,-24.507996 3.870972,-36.878998c1.85199,-16.320007 4.679993,-32.550995 5.25,-48.988007c2.899048,-20.859985 5.129028,-41.789001 7.309021,-62.730988c1.190979,-10.968018 4.562988,-21.550018 5.812988,-32.511017"/>
   <path id="svg_59" fill-rule="nonzero" fill="rgb(0%,0%,0%)" d="m101.554504,236.388977c5.089996,-0.91098 10.839996,0.679016 13.309006,5.609009c5.780991,6.410004 -2.528,16.910004 -10.070999,15.050995c-4.078003,-2.742004 -9.769012,-5.203003 -10.30101,-10.85199c-1.256989,-4.539001 3.210999,-8.390015 7.063004,-9.808014"/>
   <path id="svg_60" fill-rule="nonzero" fill="rgb(0%,0%,0%)" d="m178.093506,239.087982c1.897995,-0.730988 3.800995,-1.460999 5.699005,-2.191986c-0.289001,2.972992 -0.508011,5.972992 -0.910004,8.941986c-1.839996,-2.070984 -3.430008,-4.339996 -4.789001,-6.75"/>
   <path id="svg_61" fill-rule="nonzero" fill="rgb(100%,100%,100%)" d="m575.624512,236.274994c4.789001,11.921997 6.937988,24.730988 8.890991,37.363983c1.890991,7.308014 -5.773987,12.417999 -5.492004,19.31601c5.320007,8.953003 4.25,19.953003 1.632996,29.652008c-1.583008,4 -5.942017,6.710999 -6.511963,11.140991c1.039001,3.777008 4.440979,6.390991 5.47998,10.167999c0.800964,9.710999 -1.590027,19.242004 -2.609009,28.839996c-2.223022,22.69101 -4.981018,45.332001 -8.090027,67.910004c-3.382996,1.789001 -6.768982,3.582001 -10.132996,5.382996c0.031006,2.738007 -0.198975,5.609009 0.864014,8.218018c1.346985,2.148987 3.468018,3.640991 5.367004,5.269989c-0.050964,6.77002 -0.367004,13.840027 -3.078003,20.120972c-3.453979,3.527039 -8.453979,6.738037 -8.161011,12.391052c1.098022,5.428955 3.528015,10.647949 3.207031,16.328003c-3.877991,-0.629028 -7.81604,-1.758057 -11.757019,-1.399048c-4.710999,1.559021 -8.148987,7.77002 -4.171997,11.796997c3.820007,4.671997 9.871033,0.692017 14.179016,-0.776978c-1.75,12.659973 -8.018982,26.309021 -20.346985,31.640991c-10.171997,4.596985 -19.321045,11.127991 -29.629028,15.429016c-3.492004,1.5 -6.75,3.45697 -10.159973,5.128967c2.917969,-19.261963 5.987976,-38.5 8.428955,-57.819946c0.950012,-12.981018 3.179993,-25.820007 5.661011,-38.570007c2.738037,-15.180023 2.027039,-30.750031 5.160034,-45.872009c2.47998,-11.949005 2.117004,-24.218018 4.289001,-36.199005c2.030945,-11.230011 2.030945,-22.710999 4.397949,-33.878998c2.54303,-14.460999 3.742004,-29.109009 6.391052,-43.550018c1.839966,-11.390991 2.261963,-22.949982 3.972961,-34.359985c0.89801,-6.078003 2.707031,-12.031006 2.789001,-18.218994c0.127991,-2.722015 0.640015,-5.960999 4.027039,-6.679016c10.222961,-6.332001 21.18396,-11.582001 32.702942,-15.10199c0.027039,1.179993 1.430054,2.839996 2.598022,1.738007c0.562012,-1.468018 -1.550964,-2.007019 -2.598022,-1.738007c0.879028,-1.230011 1.777039,-2.449005 2.699036,-3.671997"/>
   <path id="svg_62" fill-rule="nonzero" fill="rgb(0%,0%,0%)" d="m186.58551,237.266998c3.687988,1.578979 7.47699,3.078979 10.80899,5.35199c2.281006,2.039001 0.718994,5.289001 0.199005,7.757996c-3.371002,-1.609985 -6.949005,-2.960999 -9.910004,-5.289001c-1.640991,-2.199005 -0.968994,-5.25 -1.097992,-7.820984"/>
   <path id="svg_63" fill-rule="nonzero" fill="rgb(100%,100%,100%)" d="m105.394501,242.048981c3.917999,-1.5 8.328003,3.437012 6.139999,7.128998c-1.799988,5.007019 -9.877991,4.230011 -11.17099,-0.699982c-1.628998,-3.332001 2.338989,-5.632019 5.030991,-6.429016"/>
   <path id="svg_64" fill-rule="nonzero" fill="rgb(0%,0%,0%)" d="m158.991501,240.997986c2.102005,1.828003 4.070999,3.820007 5.981003,5.871002c-1.917999,1.789001 -3.468994,4.828003 -6.468994,4.75c-0.097,-3.550995 0.050995,-7.10199 0.487991,-10.621002"/>
   <path id="svg_65" fill-rule="nonzero" fill="rgb(0%,0%,0%)" d="m146.86351,242.184998c2.741989,1.132996 5.679001,2.011993 8.088989,3.781982c1.653,2.710999 0.262009,6.210999 0.493011,9.230011c-3.262009,-1.050995 -6.473007,-2.218994 -9.692001,-3.410004c0.300995,-3.218994 0.640991,-6.410004 1.110001,-9.60199"/>
   <path id="svg_66" fill-rule="nonzero" fill="rgb(0%,0%,0%)" d="m170.132507,248.946991c1.352005,-2.531006 3.858994,-4.128998 5.972992,-5.968994c4,3.046997 6.218002,7.667999 5.269012,12.718994c1.347992,2.30899 2.19899,4.839996 2.550995,7.519989c-1.171997,0.949005 -2.453003,1.75 -3.703003,2.582001c-0.828003,-2.582001 -1.565994,-5.191986 -2.160004,-7.843994c-2.827988,-2.31601 -9.22699,-4.156006 -7.929993,-9.007996"/>
   <path id="svg_67" fill-rule="nonzero" fill="rgb(0%,0%,0%)" d="m80.484512,249.177979c7.467987,-2.242981 13.44899,5.121002 14.440994,11.75c0.858994,8.308014 -12.061996,13.980011 -17.203003,7.230011c-2.796997,-3.382996 -5.339996,-7.562012 -4.468994,-12.210999c1.25,-3.101013 3.679993,-6.300995 7.231003,-6.769012"/>
   <path id="svg_68" fill-rule="nonzero" fill="rgb(0%,0%,0%)" d="m186.925507,250.056976c4.276993,1.878021 8.257996,4.332001 12.289001,6.679016c-0.410004,2.511993 -0.832001,5.031006 -1.261993,7.539001c-4.14801,-1.277008 -8.168015,-2.929016 -12.199005,-4.539001c0.30899,-3.238007 0.660004,-6.460999 1.171997,-9.679016"/>
   <path id="svg_69" fill-rule="nonzero" fill="rgb(0%,0%,0%)" d="m160.042511,257.845978c1.421997,-3.007996 4.800995,-4.218994 7.542999,-5.707001c1.899002,2.58902 3.80899,5.187012 5.707001,7.789001c-2.519012,2.468018 -5.219009,4.738007 -8.097,6.777008c-1.731003,-2.929993 -4.210999,-5.527008 -5.153,-8.859009"/>
   <path id="svg_70" fill-rule="nonzero" fill="rgb(100%,100%,100%)" d="m82.906509,254.255981c3.757004,1.562012 9.108994,3.660004 6.866989,9.171997c-0.781998,3.410004 -5.640991,2.75 -7.738998,4.359009c-0.799988,-1.917999 -1.909988,-3.738007 -2.311996,-5.800995c0.25,-2.839996 1.882996,-5.281006 3.184006,-7.730011"/>
   <path id="svg_71" fill-rule="nonzero" fill="rgb(0%,0%,0%)" d="m146.605499,255.71698c2.738007,1 5.597,1.859009 8.019012,3.550018c1.05899,2.449982 0.988998,5.187988 1.429993,7.80899c-3.582001,-0.890991 -6.968994,-2.339996 -10.242004,-4.007996c0.203003,-1.839996 0.594009,-5.511017 0.792999,-7.351013"/>
   <path id="svg_72" fill-rule="nonzero" fill="rgb(0%,0%,0%)" d="m569.523499,265.274994c2.140015,-1.906006 4.890015,-2.929016 7.449036,-4.156006c2.22998,4.335999 7.839966,11.007996 2.702942,15.277008c-3.5,3.60199 -9.241943,2.039001 -11.339966,-2.019012c-0.421997,-2.988007 -0.601013,-6.468994 1.187988,-9.10199"/>
   <path id="svg_73" fill-rule="nonzero" fill="rgb(0%,0%,0%)" d="m102.50351,264.235992c9.300995,-3.308014 18.360001,12.132996 10.030991,18.019989c-4.332001,5.089996 -12.127991,2.222015 -15.5,-2.449005c-4.440994,-5.089996 -1.190994,-14.460999 5.469009,-15.570984"/>
   <path id="svg_74" fill-rule="nonzero" fill="rgb(0%,0%,0%)" d="m159.491501,262.774994c2.20401,2.613983 3.383011,5.832001 3.332001,9.25c-1.75,-0.378998 -3.487991,-0.757996 -5.229996,-1.156006c0.582001,-2.710999 1.218994,-5.414001 1.897995,-8.093994"/>
   <path id="svg_75" fill-rule="nonzero" fill="rgb(0%,0%,0%)" d="m169.11351,271.645996c-0.790009,-4.75 4.959991,-6.289001 7.858994,-8.69101c1.768997,2.562012 3.800995,5.011993 4.960999,7.93399c-1.526993,5.847015 -10.737991,6.238007 -12.819992,0.757019"/>
   <path id="svg_76" fill-rule="nonzero" fill="rgb(0%,0%,0%)" d="m185.75351,264.165985c3.660004,1.960999 7.569992,3.570007 10.929993,6.062012c2.851013,2.078979 1.859009,6.039001 1.960999,9.05899c-4.339996,-0.55899 -8.640991,-1.35199 -12.871002,-2.417999c-0.327988,-4.230011 -0.390991,-8.480011 -0.019989,-12.703003"/>
   <path id="svg_77" fill-rule="nonzero" fill="rgb(0%,0%,0%)" d="m144.991501,268.766998c3.781998,0.687988 7.481003,1.757996 11.165009,2.839996c-0.05101,1.949982 -0.171997,5.859985 -0.231003,7.80899c-2.910004,-1.089996 -6.061996,-1.960999 -8.479996,-3.988007c-1.383011,-1.960999 -1.75,-4.41098 -2.45401,-6.66098"/>
   <path id="svg_78" fill-rule="nonzero" fill="rgb(100%,100%,100%)" d="m102.042511,270.985992c4.132996,0.230988 10.011993,1.730988 8.269989,7.640991c-2.570999,0.558014 -5.179993,0.851013 -7.778,1.230011c-0.17099,-2.960999 -0.338989,-5.921997 -0.491989,-8.871002"/>
   <path id="svg_79" fill-rule="nonzero" fill="rgb(0%,0%,0%)" d="m157.773499,277.786987c3.218002,-1.890991 6.492004,-3.679993 9.820007,-5.359009c1.511993,2.199005 3.070007,4.371002 4.660004,6.519012c-2.347,2.628998 -3.871002,7.628998 -7.828003,7.710999c-2.453003,-2.781006 -4.582001,-5.812012 -6.652008,-8.871002"/>
   <path id="svg_80" fill-rule="nonzero" fill="rgb(0%,0%,0%)" d="m78.913513,272.786987c4.550995,0.988007 10.941986,0.75 13.148987,6.011993c5.531006,5.597015 1.031006,12.839996 -1.94899,18.328003c-5.809006,-1.460999 -13.098007,-2.410004 -15.770004,-8.640991c-2.770004,-5.617004 1.992004,-11.109009 4.570007,-15.699005"/>
   <path id="svg_81" fill-rule="nonzero" fill="rgb(0%,0%,0%)" d="m176.843506,278.845978c1.608994,-2.167999 3.897995,-3.667999 6.128998,-5.128998c-0.065994,4.039001 -0.199005,8.121002 -0.847992,12.121002c-2.179001,-1.949005 -4.55101,-4.019989 -5.281006,-6.992004"/>
   <path id="svg_82" fill-rule="nonzero" fill="rgb(100%,100%,100%)" d="m81.765503,281.505981c2.070007,-3.398987 8,-1.488983 8.180008,2.351013c0.237991,4.339996 -3.622009,7.089996 -6.852005,9.160004c-0.738007,-3.628021 -4.550995,-8.070007 -1.328003,-11.511017"/>
   <path id="svg_83" fill-rule="nonzero" fill="rgb(0%,0%,0%)" d="m564.265503,280.196991c8.937012,-1.609009 11.518982,9.128998 8.570007,15.359985c-1.890015,3.300018 -6.262024,2.58902 -9.440979,1.910004c-7.621033,-2.167999 -5.421997,-14.429993 0.870972,-17.269989"/>
   <path id="svg_84" fill-rule="nonzero" fill="rgb(0%,0%,0%)" d="m145.765503,279.946991c2.789001,1.30899 6.949005,1.230988 9,4.019989c1.141006,2.652008 1.180008,5.640015 1.789001,8.449005c-3.332001,-1.148987 -7.569992,-1.230988 -10.218994,-3.937988c-1.312012,-2.652008 -0.594009,-5.710999 -0.570007,-8.531006"/>
   <path id="svg_85" fill-rule="nonzero" fill="rgb(0%,0%,0%)" d="m185.675507,280.024994c4.007996,2.281982 8.059006,4.632996 11.457001,7.773987c2.902008,2.867004 0.410004,7.128998 0.242004,10.656006c-3.75,-1.757996 -7.69101,-3.406006 -10.832001,-6.179993c-2.636002,-3.39801 -0.859009,-8.277008 -0.867004,-12.25"/>
   <path id="svg_86" fill-rule="nonzero" fill="rgb(0%,0%,0%)" d="m168.7845,294.048981c-4.190994,-4.85199 2.778,-9.429993 5.320999,-13.230988c2.379013,3.347992 8.070007,7.320984 5.05101,12.007996c-1.633011,4.312988 -8.012009,5.472992 -10.372009,1.222992"/>
   <path id="svg_87" fill-rule="nonzero" fill="rgb(100%,100%,100%)" d="m288.144501,289.575989c0.300995,-2 1.371002,-3.757996 2.210999,-5.55899c0.410004,5.128998 0.410004,10.281982 0.230011,15.41098c-1.179016,32.609009 -1.210999,65.218018 -2.910004,97.808014c-0.652008,0.191986 -1.953003,0.570984 -2.60199,0.761993c0.441986,-13.160004 -0.08902,-26.359009 0.628998,-39.511993c1.539001,-11.617004 -0.269012,-23.480011 2.171997,-34.988007c0.097992,-11.300995 -0.480011,-22.628998 0.269989,-33.921997"/>
   <path id="svg_88" fill-rule="nonzero" fill="rgb(0%,0%,0%)" d="m159.00351,285.005981c1.903,1.832001 3.410004,4 4.69899,6.292999c-1.358994,0.929016 -2.729996,1.867004 -4.097,2.796997c-0.511993,-3 -0.991989,-6.046997 -0.60199,-9.089996"/>
   <path id="svg_89" fill-rule="nonzero" fill="rgb(0%,0%,0%)" d="m104.491501,290.306976c5.133011,-1.679993 9.042999,2.761017 12.473007,5.761017c1.526993,6.109985 -0.391006,12.609985 -6.512009,15.019989c-4.94899,0.89801 -9.108994,-3.289001 -12.729996,-5.941986c-6.167999,-4.828003 0.792999,-13.769012 6.768997,-14.83902"/>
   <path id="svg_90" fill-rule="nonzero" fill="rgb(0%,0%,0%)" d="m144.894501,292.138977c4.210999,1.468018 8.238007,3.39801 12.238007,5.367004c-0.768997,2.652008 -1.5,5.312012 -2.268997,7.972015c-2.872009,-1.44101 -6.188004,-2.550018 -8.231003,-5.171021c-1.167999,-2.55899 -1.339996,-5.417999 -1.738007,-8.167999"/>
   <path id="svg_91" fill-rule="nonzero" fill="rgb(0%,0%,0%)" d="m157.33551,299.118988c2.328003,-2.152008 4.778,-4.164001 7.339996,-6.031006c1.378998,1.238007 4.136993,3.718994 5.526993,4.960999c-1.179001,2.917999 -2.358994,5.839996 -3.577988,8.75c-3.55101,-1.960999 -6.371002,-4.941986 -9.289001,-7.679993"/>
   <path id="svg_92" fill-rule="nonzero" fill="rgb(0%,0%,0%)" d="m179.984512,293.587982c1.280991,0.417999 2.569992,0.839996 3.850998,1.257996c-0.512009,4.132019 -0.980011,8.25 -1.460999,12.390015c-3.480011,-0.847015 -7.371002,-3.140015 -7.090012,-7.238007c1.360001,-2.281006 3.149002,-4.269989 4.700012,-6.410004"/>
   <path id="svg_93" fill-rule="nonzero" fill="rgb(100%,100%,100%)" d="m105.234512,296.704987c2.729996,0.02301 5.858994,1.402008 6.44899,4.332001c-0.167999,2.417999 -1.269989,4.628998 -2.149002,6.859009c-2.440994,-0.789001 -4.889999,-1.527008 -7.350998,-2.269012c0.789001,-2.960999 0.850998,-6.5 3.05101,-8.921997"/>
   <path id="svg_94" fill-rule="nonzero" fill="rgb(0%,0%,0%)" d="m82.50351,299.235992c7.981003,-2.847015 11.582001,5.921997 14.280991,11.468994c-1.729996,3.761993 -3.792999,8.371002 -8.088989,9.710999c-5.422012,1.019012 -11.05101,-2.230988 -12.942001,-7.328003c-1.730011,-5.300995 0.550995,-12.910004 6.75,-13.85199"/>
   <path id="svg_95" fill-rule="nonzero" fill="rgb(0%,0%,0%)" d="m184.933502,297.934998c3.94101,2.269989 7.921997,4.66098 11.19101,7.863983c2.007996,2 1.328003,5.089996 1.480988,7.628998c-3.870987,-1.261993 -7.94899,-2.472992 -11.171997,-5.05899c-1.44899,-3.242004 -1.039001,-6.972992 -1.5,-10.43399"/>
   <path id="svg_96" fill-rule="nonzero" fill="rgb(0%,0%,0%)" d="m573.394531,303.036987c9.780945,-2.378998 10.268982,15.359009 1.718994,16.488007c-3.329041,-0.878998 -6.140991,-3.089996 -9.188049,-4.578003c0.797058,-4.44101 1.707031,-11.289001 7.469055,-11.910004"/>
   <path id="svg_97" fill-rule="nonzero" fill="rgb(0%,0%,0%)" d="m171.425507,304.118988c3.770004,-1.621002 5.968994,3.117004 7.660004,5.699005c2.237991,3.937988 -2.152008,7.269989 -4.710999,9.660004c-2.19101,-3.480011 -8.30101,-6.171021 -6.562012,-10.820007c0.582001,-1.902008 1.889999,-3.562012 3.613007,-4.539001"/>
   <path id="svg_98" fill-rule="nonzero" fill="rgb(0%,0%,0%)" d="m551.952515,303.684998c1.83197,0.011993 5.492981,0.042999 7.320984,0.050995c3.582031,5.300995 5.101013,13.199005 -0.390991,17.859985c-5.289001,5.69101 -14.640991,-1.929993 -12.707031,-8.609985c1.56604,-3.308014 3.629028,-6.347015 5.777039,-9.300995"/>
   <path id="svg_99" fill-rule="nonzero" fill="rgb(100%,100%,100%)" d="m80.382507,309.056976c0.910004,-3.449982 5.981003,-2.628998 8.089996,-4.30899c0.641006,2.507996 1.5,5.089996 1.160004,7.730011c-1.167999,1.828979 -3.718994,3.988983 -5.949005,2.757996c-2.399002,-0.929016 -3.539001,-3.757996 -3.300995,-6.179016"/>
   <path id="svg_100" fill-rule="nonzero" fill="rgb(0%,0%,0%)" d="m145.984512,305.368988c3.429001,1.457001 6.799988,3.046997 10.210999,4.56601c0.159988,3.312988 1.718002,7.43399 -1.320999,9.921997c-3.320007,-0.558014 -6.070007,-2.640015 -8.910004,-4.289001c-0.089996,-3.410004 -0.089996,-6.800995 0.020004,-10.199005"/>
   <path id="svg_101" fill-rule="nonzero" fill="rgb(0%,0%,0%)" d="m158.054504,306.747986c0.809006,0.027008 2.430008,0.089996 3.238007,0.121002c0.011993,1.609009 0.011993,3.22699 0,4.835999c-0.807999,0.031006 -2.429001,0.093994 -3.238007,0.121002c0,-1.687012 0,-3.390991 0,-5.078003"/>
   <path id="svg_102" fill-rule="nonzero" fill="rgb(0%,0%,0%)" d="m159.234512,318.90799c0.94899,-2.69101 2.940994,-4.820007 4.671997,-7.031006c3.084991,3.671997 8.608994,6.69101 6.975998,12.511993c-2.018997,1.796021 -4.449005,3.039001 -6.796997,4.359009c-1.613007,-3.242004 -4.460999,-6.121002 -4.850998,-9.839996"/>
   <path id="svg_103" fill-rule="nonzero" fill="rgb(0%,0%,0%)" d="m185.823502,314.118988c4.231003,2.085999 8.290009,4.507996 12.410995,6.81601c-0.390991,2.75 -0.742981,5.570984 -1.191986,8.332001c-4.109009,-1.480011 -8.508011,-2.800018 -11.867004,-5.730011c-1.113007,-3.070007 0.296997,-6.30899 0.647995,-9.417999"/>
   <path id="svg_104" fill-rule="nonzero" fill="rgb(0%,0%,0%)" d="m98.874512,318.665985c3.820999,-1.519989 7.847992,-3.078003 12.039001,-2.859009c3.218994,2.230011 6.949997,4.89801 7.781998,9c0.877991,5.128021 -1.243011,11.281006 -6.590012,13.082001c-4.019989,2.730011 -7.75,-2.453979 -10.85199,-4.269989c-4.121002,-3.77301 -2.262009,-10.152008 -2.378998,-14.953003"/>
   <path id="svg_105" fill-rule="nonzero" fill="rgb(100%,100%,100%)" d="m29.613007,329.427979c3.5196,-5.820984 9.480499,-10.121002 16.050499,-11.820984c-3.82,4.097992 -9.1716,6.589996 -12.601196,11.039001c-1.726601,4.011993 -2.777405,8.300995 -4.097702,12.472992c-0.128899,-3.902008 -1.699203,-8.222992 0.648399,-11.69101"/>
   <path id="svg_106" fill-rule="nonzero" fill="rgb(0%,0%,0%)" d="m178.156509,318.868988c1.526993,-0.031006 3.057999,-0.050995 4.597,-0.062012c-0.307999,2.609009 -0.781006,5.199005 -1.389999,7.769012c-2.348007,-0.179993 -4.128998,-1.828003 -5.949997,-3.128998c0.909988,-1.531006 1.827988,-3.050995 2.742996,-4.578003"/>
   <path id="svg_107" fill-rule="nonzero" fill="rgb(0%,0%,0%)" d="m146.156509,320.255981c2.828003,1.261017 5.737991,2.449005 8.268997,4.269012c2.867004,2.390991 0.828003,6.773987 1.089996,10.011993c-3.640991,-1.761993 -7.160004,-3.769989 -10.703003,-5.738007c0.383011,-2.890991 0.863007,-5.691986 1.344009,-8.542999"/>
   <path id="svg_108" fill-rule="nonzero" fill="rgb(0%,0%,0%)" d="m84.023499,322.977997c9.390015,-0.230011 15.019012,15.16098 6.090012,19.859985c-7.610001,4.640015 -16.128998,-3.269989 -15.020004,-11.062988c0.242004,-4.679016 4.960999,-7.476013 8.929993,-8.796997"/>
   <path id="svg_109" fill-rule="nonzero" fill="rgb(100%,100%,100%)" d="m110.50351,322.477997c1.75,2.589996 3.25,5.30899 4.582001,8.16098c-2.52301,1.039001 -4.910004,2.796021 -7.722,2.859009c-2.360001,-1.820007 -3.598007,-4.609009 -4.930008,-7.179993c2.69101,-1.281006 5.378998,-2.562012 8.070007,-3.839996"/>
   <path id="svg_110" fill-rule="nonzero" fill="rgb(0%,0%,0%)" d="m157.913513,325.798981c0.800995,0.007996 2.421997,0.007996 3.218994,0.019012c0.382996,2.679993 0.731003,5.339996 1.108994,8.039001c-1.5,0.398987 -3.006989,0.781982 -4.518997,1.179993c-0.078003,-3.089996 0.042999,-6.160004 0.19101,-9.238007"/>
   <path id="svg_111" fill-rule="nonzero" fill="rgb(0%,0%,0%)" d="m166.58551,331.454987c2.218994,-2.199005 4.320999,-6.878998 8.089996,-5.328003c2.679993,1.960999 4.007996,5.171997 5.488007,8.011993c-2.601013,2.019012 -5.172012,4.078003 -7.769012,6.08902c-1.929993,-2.94101 -3.839996,-5.871002 -5.80899,-8.77301"/>
   <path id="svg_112" fill-rule="nonzero" fill="rgb(0%,0%,0%)" d="m555.882507,329.65799c2.421997,-1.402008 5.231018,-4.382996 8.210999,-2.94101c5.090027,2.308014 4.460999,8.558014 5.140991,13.160004c-3.421997,2.378998 -6.411011,7.449005 -11.370972,5.109009c-6.239014,-2.031006 -7.528015,-11.820007 -1.981018,-15.328003"/>
   <path id="svg_113" fill-rule="nonzero" fill="rgb(100%,100%,100%)" d="m80.105499,335.638977c-0.941986,-5.011993 7.410004,-8.570984 9.679001,-3.531982c3.167999,3.648987 -1.082001,7.160004 -3.542999,9.640991c-2.167999,-1.890991 -4.686996,-3.562988 -6.136002,-6.109009"/>
   <path id="svg_114" fill-rule="nonzero" fill="rgb(0%,0%,0%)" d="m184.11351,330.626984c4.100998,1.25 8.651993,2.210999 11.768997,5.378998c2.800995,2.800995 1.261993,7.410004 1.730988,10.761017c-4.206985,-1.429016 -8.417984,-3.011017 -12.238983,-5.312012c-1.402008,-3.406006 -0.949005,-7.22699 -1.261002,-10.828003"/>
   <path id="svg_115" fill-rule="nonzero" fill="rgb(0%,0%,0%)" d="m491.663513,351.415985c-0.64801,-8.730988 5.059021,-17.718994 14.320984,-18.507996c2.75,4.488007 5.351013,9.390991 4.910034,14.878998c-0.160034,4.859009 -3.469055,10.460999 -8.801025,10.64801c-3.781006,-0.546021 -6.809021,-3.187012 -10.02002,-5.007019c-0.139954,1.929016 -0.428955,5.789001 -0.58197,7.718018c-4.346985,3.070984 -9.609009,6.359985 -15.078003,3.421997c-3.390015,-3.781006 -4.190979,-10.242004 -0.820007,-14.261017c2.421997,-2.41098 5.781006,-4.230988 9.25,-4.148987c2.570007,1.30899 4.640991,3.390991 6.820007,5.257996"/>
   <path id="svg_116" fill-rule="nonzero" fill="rgb(0%,0%,0%)" d="m162.445511,335.138977c3.54599,-1.761993 6.229996,2.64801 8.289001,4.937012c0.179001,3.699005 -3.172012,8.230988 -7.282013,7.519989c-3.506989,-3.019989 -6.79599,-9.929993 -1.006989,-12.457001"/>
   <path id="svg_117" fill-rule="nonzero" fill="rgb(100%,100%,100%)" d="m32.292709,347.024994c4.902397,-3.5 9.671799,-7.167999 14.230797,-11.089996c-3.840004,8.589996 -7.199501,17.339996 -6.969101,26.980988c-1.601501,0.269012 -3.210899,0.511993 -4.820297,0.722992c-0.628899,-5.570984 -1.460899,-11.10199 -2.441399,-16.613983"/>
   <path id="svg_118" fill-rule="nonzero" fill="rgb(0%,0%,0%)" d="m146.425507,336.388977c2.886993,1.39801 6.136993,2.31601 8.589996,4.488007c1.507996,3.511993 0.707001,7.609009 0.891006,11.351013c-3.992996,-1.410004 -7.992996,-3.351013 -10.665009,-6.75c0.042999,-3.082001 0.481003,-6.101013 1.184006,-9.08902"/>
   <path id="svg_119" fill-rule="nonzero" fill="rgb(0%,0%,0%)" d="m177.605499,339.645996c0.886002,0.050995 2.660004,0.140991 3.55101,0.191986c0.397995,2.050995 0.79599,4.089996 1.207001,6.128998c-1.938004,0.371002 -3.878998,0.710999 -5.820999,1.039001c0.210999,-2.468994 0.562988,-4.929993 1.062988,-7.359985"/>
   <path id="svg_120" fill-rule="nonzero" fill="rgb(0%,0%,0%)" d="m101.2845,343.024994c5.641006,-4.019012 16.207001,-2.429016 17.238998,5.402985c2.531006,5.828003 -2.007996,10.378998 -4.480988,15.08902c-5.14801,-1.171021 -11.277008,-2.609009 -13.929001,-7.769012c-1.32901,-4.062988 -2.199997,-9.44101 1.17099,-12.722992"/>
   <path id="svg_121" fill-rule="nonzero" fill="rgb(100%,100%,100%)" d="m498.433533,343.454987c2.198975,0.511993 4.409973,1.011993 6.628967,1.480011c0.440979,1.992981 0.882996,3.992981 1.332031,5.992981c-2.602051,0.89801 -5.231018,1.710999 -7.879028,2.449005c-0.762024,-3.269989 -0.812988,-6.640991 -0.08197,-9.921997"/>
   <path id="svg_122" fill-rule="nonzero" fill="rgb(0%,0%,0%)" d="m167.3125,353.427979c2.101013,-3.519989 4.812012,-6.722992 8.52301,-8.60199c1.269989,4.511993 2.089996,9.121002 2.468994,13.792999c-1.397995,0.738007 -2.789001,1.47699 -4.179993,2.22699c-2.269012,-2.468994 -4.531006,-4.957001 -6.812012,-7.417999"/>
   <path id="svg_123" fill-rule="nonzero" fill="rgb(0%,0%,0%)" d="m157.945511,346.817993c0.819992,0 2.44899,-0.011017 3.256989,-0.011017c0.20401,2.511017 0.371002,4.992004 0.570999,7.531006c-1.339996,0.187012 -2.679993,0.367004 -4.007996,0.539001c-0.030991,-2.691986 0.070007,-5.378998 0.180008,-8.05899"/>
   <path id="svg_124" fill-rule="nonzero" fill="rgb(0%,0%,0%)" d="m184.554504,346.298981c3.391006,2.269012 6.917999,4.367004 10.059006,6.988007c3.472,2.69101 3.741989,8.781006 0.229996,11.519989c-4.050995,-0.148987 -7.25,-3.218994 -10.397995,-5.378998c-2,-4.089996 -1.20401,-8.949982 0.108994,-13.128998"/>
   <path id="svg_125" fill-rule="nonzero" fill="rgb(100%,100%,100%)" d="m107.343506,347.556976c2.690994,1.062012 5.378998,2.121002 8.082001,3.179016c-0.910004,2.359985 -1.671997,4.789001 -2.742004,7.089996c-4.847992,1.671997 -6.210999,-2.769012 -8.089996,-5.718994c0.921997,-1.519012 1.839996,-3.039001 2.75,-4.550018"/>
   <path id="svg_126" fill-rule="nonzero" fill="rgb(0%,0%,0%)" d="m78.882507,352.556976c4.292999,-5.480988 11.781006,-0.699982 16.882996,1.230011c0.867004,5.429993 1.686996,11.738007 -2.800995,15.890991c-4.992004,4.410004 -12.171997,0.070007 -15.628998,-4.179993c-2,-4.031006 -0.472,-9.171997 1.546997,-12.94101"/>
   <path id="svg_127" fill-rule="nonzero" fill="rgb(0%,0%,0%)" d="m560.394531,357.118988c1.75,-5.320007 7.897949,-7.042999 12.75,-8.011993c1.5,4.039001 5.370972,8.359985 3.139954,12.820984c-1.760986,4.167999 -6.338989,5.730011 -10.127991,7.468018c-2.583008,-3.699005 -7.442017,-7 -5.761963,-12.277008"/>
   <path id="svg_128" fill-rule="nonzero" fill="rgb(0%,0%,0%)" d="m146.632507,353.306976c3.151993,1.359009 6.542999,2.539001 9,5.050018c1.524002,3.390991 0.679993,6.941986 -0.225998,10.289001c-3.231003,-1.621002 -7.122009,-2.878998 -8.992996,-6.230011c-1.449005,-2.898987 -0.320007,-6.140991 0.218994,-9.109009"/>
   <path id="svg_129" fill-rule="nonzero" fill="rgb(100%,100%,100%)" d="m478.741516,354.677979c2,-0.449982 4,-0.859985 6.011963,-1.30899c1.27002,3.449005 0.02002,6.667999 -3.139954,8.519989c-0.981018,-2.402985 -1.929993,-4.800995 -2.872009,-7.210999"/>
   <path id="svg_130" fill-rule="nonzero" fill="rgb(100%,100%,100%)" d="m84.433502,357.106995c3.839996,-2.699005 8.628998,1.550995 8.55101,5.597992c-0.5,4.402008 -6.200012,3.621002 -9.243011,4.781006c-0.858994,-3.308014 -2.905991,-7.949005 0.692001,-10.378998"/>
   <path id="svg_131" fill-rule="nonzero" fill="rgb(0%,0%,0%)" d="m163.663513,356.548981c0.898987,0.058014 2.699997,0.179016 3.60199,0.238007c3.930008,5 3.457001,11.5 1.128998,17.109009c-0.820999,-0.050018 -2.480988,-0.128998 -3.300995,-0.167999c-1.820007,-3.371002 -4.108994,-6.5 -5.507996,-10.070007c0.937988,-2.582001 2.72699,-4.75 4.078003,-7.109009"/>
   <path id="svg_132" fill-rule="nonzero" fill="rgb(0%,0%,0%)" d="m497.10553,362.747986c4.307983,-3.460999 10.858948,0.339996 11.45697,5.468994c0.362976,4.609009 0.179016,10.230011 -3.27002,13.761017c-4.72998,2.707001 -10.737976,1.449982 -15.218994,-1.281006c-2.039001,4.859985 -5.570007,8.871002 -9.967957,11.757996c-4.421997,-3.386993 -11.801025,-7.156006 -9.332031,-13.81601c1.268982,-6.980988 9.410034,-6.871979 14.992004,-7.542999c5.218994,-0.41098 6.807983,-6.5 11.340027,-8.347992"/>
   <path id="svg_133" fill-rule="nonzero" fill="rgb(0%,0%,0%)" d="m183.964508,365.388977c4.319992,2.187012 8.507996,4.628021 12.828003,6.83902c-0.519012,3.449982 -1.007996,6.917999 -1.667999,10.339996c-4.30101,-2.871002 -11.570007,-4.679016 -11.539001,-10.839996c-0.062012,-2.121002 0.207001,-4.230011 0.378998,-6.33902"/>
   <path id="svg_134" fill-rule="nonzero" fill="rgb(0%,0%,0%)" d="m104.523499,367.118988c9.711014,-3.582001 17.601013,8.667999 13.840012,16.968994c-3.199997,3.847015 -9.07901,6.257996 -13.540009,3.070007c-8.057999,-3.203003 -7.280991,-16.132996 -0.300003,-20.039001"/>
   <path id="svg_135" fill-rule="nonzero" fill="rgb(100%,100%,100%)" d="m497.656494,367.638977c1.89801,0.859009 3.796021,1.707001 5.707031,2.546021c-0.590027,2.992981 -1.200012,5.992981 -2,8.941986c-2.257996,-0.460999 -4.507996,-0.941986 -6.75,-1.441986c0.659973,-3.449005 1.659973,-6.81601 3.042969,-10.046021"/>
   <path id="svg_136" fill-rule="nonzero" fill="rgb(0%,0%,0%)" d="m159.042511,368.665985c4.882996,3.69101 4.692001,9.703003 3.472992,15.109009c-0.972992,0.023987 -2.910004,0.042999 -3.890991,0.062988c-0.031006,-5.062988 -0.320007,-10.152985 0.417999,-15.171997"/>
   <path id="svg_137" fill-rule="nonzero" fill="rgb(0%,0%,0%)" d="m146.023499,370.434998c2.929001,1.10199 6.152008,1.812988 8.672012,3.769989c1.569992,3.203003 1.116989,6.914001 1.616989,10.363007c-4.155991,-0.699005 -7.866989,-2.769012 -11.616989,-4.570007c0.389999,-3.222992 0.838989,-6.371002 1.327988,-9.562988"/>
   <path id="svg_138" fill-rule="nonzero" fill="rgb(0%,0%,0%)" d="m169.073502,377.774994c0.161011,-3.867004 3.930008,-6.007996 6.667999,-8.089996c4.383011,5.16098 5.231003,11.800995 3.710999,18.171997c-5.409988,-0.582001 -9.717987,-4.75 -10.378998,-10.082001"/>
   <path id="svg_139" fill-rule="nonzero" fill="rgb(100%,100%,100%)" d="m104.241501,376.747986c2.973007,-0.832001 5.934006,-1.621002 8.942001,-2.292999c0.199005,3.164001 0.421997,6.300995 0.609009,9.472992c-5.457001,0.83902 -8.707001,-2.359985 -9.55101,-7.179993"/>
   <path id="svg_140" fill-rule="nonzero" fill="rgb(100%,100%,100%)" d="m476.08551,378.075989c1.628967,-0.550995 4.878967,-1.640991 6.507996,-2.187012c0.012024,2.507019 -0.02002,5.027008 -0.078003,7.546021c-1.231018,1.402985 -2.840027,2.382996 -4.33197,3.472992c-0.91803,-2.882996 -1.910034,-5.789001 -2.098022,-8.832001"/>
   <path id="svg_141" fill-rule="nonzero" fill="rgb(0%,0%,0%)" d="m85.374512,379.235992c5.116989,-0.929016 8.378998,3.691986 10.616989,7.632996c1.210999,2.30899 2.45401,5.199005 0.922012,7.679993c-4.14801,8.367004 -18.851013,5.707001 -20.371002,-3.371002c-1.660004,-5.621002 3.659988,-10.878998 8.832001,-11.941986"/>
   <path id="svg_142" fill-rule="nonzero" fill="rgb(0%,0%,0%)" d="m166.202499,380.118988c2.610001,2.906006 5.80101,5.769989 6.80101,9.699005c-0.180008,3.136993 -3.089996,7.617004 -6.597,6.699005c-3.122009,-2.160004 -4.352005,-6.140015 -4.820999,-9.718018c0.769989,-2.652985 2.94899,-4.582001 4.616989,-6.679993"/>
   <path id="svg_143" fill-rule="nonzero" fill="rgb(0%,0%,0%)" d="m183.573502,381.485992c4.872009,2.121002 9.340012,5.011993 13.988998,7.570984c-0.597992,3.082001 -1.25,6.19101 -2.116989,9.210022c-4.332001,-2.281006 -8.493011,-4.83902 -12.602005,-7.480011c0.210999,-3.128998 0.460999,-6.19101 0.729996,-9.300995"/>
   <path id="svg_144" fill-rule="nonzero" fill="rgb(100%,100%,100%)" d="m85.8125,383.946991c4.070007,1.929993 7.082001,5.339996 8.113007,9.781006c-3.050995,0.929993 -6.113007,1.777985 -9.203003,2.546997c-1.507996,-4.128998 -1.731003,-8.679016 1.089996,-12.328003"/>
   <path id="svg_145" fill-rule="nonzero" fill="rgb(0%,0%,0%)" d="m145.874512,385.90799c3.468994,1.75 6.860001,3.839996 9.570999,6.679993c1.026993,3.39801 0.026993,6.781006 -1.012009,9.988007c-2.800995,-1.5 -5.929993,-2.707001 -8.039001,-5.179993c-1.210999,-3.75 -1.039001,-7.667999 -0.519989,-11.488007"/>
   <path id="svg_146" fill-rule="nonzero" fill="rgb(0%,0%,0%)" d="m483.394531,397.204987c2.987976,-4.957001 7.018982,-11.527008 13.718994,-10.539001c6.359009,-0.757996 8.901978,7.152008 8.920959,12.132996c-0.198975,4.976013 -5.549988,7.546997 -9.338989,9.64801c-3.153015,0.089996 -6.122009,-0.671997 -9.050964,-1.64801c-1.871033,3.687012 -4.301025,7.906006 -8.699036,8.796997c-3.609985,0.261017 -7.622009,-1.046997 -9.692017,-4.167999c-0.139954,-4.378998 -0.889954,-9.652985 2.238037,-13.242981c3.43396,-2.367004 8.023987,-1.308014 11.903015,-0.980011"/>
   <path id="svg_147" fill-rule="nonzero" fill="rgb(0%,0%,0%)" d="m104.484512,394.184998c4.256989,-0.917999 11.350998,-0.828003 12.819992,4.43399c0.979996,4.468994 1.718994,10.109009 -1.481003,13.929993c-4.350998,3.867004 -11.819992,2 -14.737991,-2.792999c-5.02301,-4.347992 -3.082001,-13.929993 3.399002,-15.570984"/>
   <path id="svg_148" fill-rule="nonzero" fill="rgb(0%,0%,0%)" d="m159.265503,392.798981c3.348007,3.046997 4.667999,7.386017 5.660004,11.687012c3.117004,2.339996 6.988007,5.691986 5.981003,10c-1.665009,3.390991 -6.434006,2.75 -8.070999,-0.300995c-3.203003,-6.58902 -3.460999,-14.179016 -3.570007,-21.386017"/>
   <path id="svg_149" fill-rule="nonzero" fill="rgb(0%,0%,0%)" d="m169.08551,398.21698c2.405991,-1.648987 4.820999,-3.30899 7.218994,-4.968994c4.147995,4.820007 5.199005,13.777008 -1.332001,16.988007c-3.358994,-3.128998 -4.358994,-7.89801 -5.886993,-12.019012"/>
   <path id="svg_150" fill-rule="nonzero" fill="rgb(100%,100%,100%)" d="m491.79248,392.934998c3.512024,0.210999 7.660034,2.820984 7.192017,6.75c-0.359985,2.980988 -3.640991,3.921997 -5.828003,5.230988c-0.523987,-4.007996 -1.031982,-7.968994 -1.364014,-11.980988"/>
   <path id="svg_151" fill-rule="nonzero" fill="rgb(0%,0%,0%)" d="m183.25351,396.954987c6.519989,2.453003 13.082001,7.082001 13.710999,14.710999c-5.100998,-0.039001 -9.609009,-2.488007 -14.012009,-4.777008c0.082001,-3.339996 0.192001,-6.613983 0.30101,-9.93399"/>
   <path id="svg_152" fill-rule="nonzero" fill="rgb(100%,100%,100%)" d="m284.683502,403.837982c-0.070007,-2.35199 1.390015,-4.281006 2.601013,-6.140991c0.578979,20.738007 0.41098,41.519989 -0.320007,62.257996c-0.929993,-0.796997 -1.859009,-1.609009 -2.769012,-2.406006c0.390015,-17.910004 -0.179993,-35.820984 0.488007,-53.710999"/>
   <path id="svg_153" fill-rule="nonzero" fill="rgb(100%,100%,100%)" d="m107.472504,401.005981c4.421997,-1.339996 6.371002,3.972015 8.460999,6.781006c-2.179993,1 -4.289001,2.332001 -6.69899,2.679993c-2.129013,-0.859985 -3.930008,-2.328003 -5.809006,-3.621002c1.257996,-2.007996 2.367004,-4.140991 4.046997,-5.839996"/>
   <path id="svg_154" fill-rule="nonzero" fill="rgb(0%,0%,0%)" d="m146.36351,403.415985c3.311996,1.761993 6.588989,3.570007 9.858994,5.410004c-0.179993,3.019989 -0.315994,6.140991 -0.546997,9.19101c-3.160004,-0.742004 -6.871002,-1.050018 -9.132996,-3.699005c-1.957001,-3.300995 -0.519012,-7.320007 -0.179001,-10.902008"/>
   <path id="svg_155" fill-rule="nonzero" fill="rgb(100%,100%,100%)" d="m475.952515,403.704987c2.442017,1.914001 4.52002,4.222992 6.161011,6.85199c-2.149048,0.550018 -4.301025,1.082001 -6.450012,1.601013c-0.078003,-2.820007 0,-5.652008 0.289001,-8.453003"/>
   <path id="svg_156" fill-rule="nonzero" fill="rgb(0%,0%,0%)" d="m485.054504,415.786987c2.768982,-5.468994 9.539001,-4.167999 14.60199,-4.511993c1.046021,3.722992 1.81604,7.492004 2.31604,11.320984c-1.598022,3.730011 -3.5,7.929016 -7.258057,9.929016c-8.741943,1.882996 -15.460999,-9.988007 -9.659973,-16.738007"/>
   <path id="svg_157" fill-rule="nonzero" fill="rgb(0%,0%,0%)" d="m183.50351,412.325989c3.55899,1.69101 7.421997,3.031006 10.410004,5.671997c2.941986,3.429993 1.359985,8.199005 0.300995,12.039001c-3.160004,-2.289001 -6.402008,-4.5 -9.307999,-7.089996c-2.981003,-2.589996 -1.070999,-7.160004 -1.403,-10.621002"/>
   <path id="svg_158" fill-rule="nonzero" fill="rgb(100%,100%,100%)" d="m85.124512,414.548981c3.289001,0.328003 6.577988,0.75 9.847992,1.226013c-1.199005,2.35199 -0.75,6.832001 -3.839996,8.140991c-2.546997,1.640991 -5.078003,-0.839996 -7.391006,-1.769989c0.45401,-2.539001 0.922012,-5.078003 1.383011,-7.597015"/>
   <path id="svg_159" fill-rule="nonzero" fill="rgb(0%,0%,0%)" d="m169.0345,418.786987c1.520004,-0.89801 4.559006,-2.699005 6.07901,-3.609009c1.600998,2.007019 3.530991,3.757019 4.94899,5.910004c0.05101,1.617004 -0.320999,3.218994 -0.519989,4.820007c-2.289001,0.179993 -4.578003,0.347992 -6.859009,0.539001c-1.5,3.800995 -3.218994,7.507996 -4.929993,11.218994c-2.719009,-2 -6.307999,-4.046997 -6.430008,-7.859009c0.860001,-2.539978 2.731003,-4.539978 4.340012,-6.621979c1.628998,1.519989 3.25,3.070984 4.878998,4.589996c-0.320007,-3.019012 -0.937012,-6.007996 -1.508011,-8.988007"/>
   <path id="svg_160" fill-rule="nonzero" fill="rgb(0%,0%,0%)" d="m159.241501,414.845978c1.781998,1.761017 3.844009,3.550018 4.45401,6.101013c-0.75,2.10199 -2.180008,3.839996 -3.481003,5.621002c-0.460999,-3.910004 -0.850998,-7.800995 -0.973007,-11.722015"/>
   <path id="svg_161" fill-rule="nonzero" fill="rgb(100%,100%,100%)" d="m487.804504,420.536987c2.859009,-0.89801 5.768982,-1.460999 8.737976,-2.050995c0.082031,1.992004 0.301025,4 0.02002,5.992004c-1.278015,2.199982 -3.906006,3 -6.039001,4.140991c-0.909973,-2.703003 -1.820984,-5.390991 -2.718994,-8.082001"/>
   <path id="svg_162" fill-rule="nonzero" fill="rgb(0%,0%,0%)" d="m146.382507,420.204987c2.858994,1.02301 6.371002,1.371002 8.382996,3.902008c1.367004,3.609985 0.777008,7.597992 0.738007,11.390991c-3.609009,-2.449005 -7.018997,-5.179993 -10.480011,-7.812988c0.461014,-2.488007 0.922012,-4.980011 1.359009,-7.480011"/>
   <path id="svg_163" fill-rule="nonzero" fill="rgb(0%,0%,0%)" d="m463.472534,436.704987c1.159973,-5.667999 1.761963,-14.22699 8.722961,-15.835999c7.078003,-0.230011 13.078003,7.457001 10.268982,14.277008c-2.039001,2.992981 -4.08197,7.730988 -8.370972,7.609985c-4.02002,-0.917999 -7.10199,-4.078003 -10.620972,-6.050995"/>
   <path id="svg_164" fill-rule="nonzero" fill="rgb(0%,0%,0%)" d="m104.593506,423.274994c10.261993,-3.679016 21.171997,11.363983 12.102005,19.121002c-7.442001,6.769989 -20.320999,-1.628998 -19.012009,-10.980011c0.859009,-3.597992 3.652008,-6.539001 6.910004,-8.140991"/>
   <path id="svg_165" fill-rule="nonzero" fill="rgb(0%,0%,0%)" d="m550.484497,429.196991c2.299988,-2.69101 5.190979,-4.808014 7.807983,-7.179993c2.840027,3.550995 8.281006,7.019989 6.321045,12.167999c-0.860046,4.871979 -7.301025,11.011993 -11.801025,6.871979c-3.296997,-2.800995 -3.5,-7.980988 -2.328003,-11.859985"/>
   <path id="svg_166" fill-rule="nonzero" fill="rgb(0%,0%,0%)" d="m185.0625,427.306976c4.75,3.699005 12.343994,5.371002 11.562012,13.171021c-1.320007,0.738983 -2.633011,1.47699 -3.929001,2.22699c-2.95401,-2.179993 -6.210999,-4.027008 -8.731003,-6.718994c-1.262009,-2.128998 -1.75,-4.609009 -2.44101,-6.949005c1.172012,-0.589996 2.351013,-1.167999 3.539001,-1.730011"/>
   <path id="svg_167" fill-rule="nonzero" fill="rgb(100%,100%,100%)" d="m470.214478,434.536987c-1.108948,-3.011993 1.460999,-6.417999 4.692017,-5.800995c1.64801,2.382996 1.89801,5.070984 3.179016,7.761993c-2.660034,-0.140991 -6.132996,0.667999 -7.871033,-1.960999"/>
   <path id="svg_168" fill-rule="nonzero" fill="rgb(100%,100%,100%)" d="m107.33551,430.126984c2.929993,0.210999 5.847992,0.742004 8.718994,1.371002c-1.140991,4.687012 -4.421997,8.378998 -9.300995,9.257996c-0.128998,-3.437988 -3.359009,-8.449005 0.582001,-10.628998"/>
   <path id="svg_169" fill-rule="nonzero" fill="rgb(0%,0%,0%)" d="m159.683502,431.774994c1.949005,3.062988 2.871002,6.550995 3.621002,10.082001c-3.390991,1.519989 -6.300995,3.859985 -8.199005,7.089996c-3.120987,-1.199005 -6.159988,-2.578003 -9.159988,-4.058014c0.088989,-3.320984 0.210999,-6.570984 0.327988,-9.882996c3.820007,1.660004 7.281006,3.980011 10.730011,6.300995c0.860001,-3.199982 1.692001,-6.390991 2.679993,-9.531982"/>
   <path id="svg_170" fill-rule="nonzero" fill="rgb(0%,0%,0%)" d="m169.644501,440.177979c1.289001,-2.390991 3.429001,-4.152985 5.340012,-6.019989c1.588989,2.687988 3.647995,5.347992 3.967987,8.570007c-0.378998,3.070984 -3.557999,4.289001 -5.967987,5.488983c-1,2.871002 -2.05101,5.738007 -3.161011,8.570007c-2.871002,-1.089996 -7.338989,-2.281006 -7.647995,-6.10199c0.199005,-2.296021 1.608994,-4.238007 2.597992,-6.25c1.800003,0.402985 3.609009,0.832001 5.410004,1.269989c-0.30899,-1.828003 -0.718994,-3.667999 -0.539001,-5.527008"/>
   <path id="svg_171" fill-rule="nonzero" fill="rgb(0%,0%,0%)" d="m488.0625,435.606995c5.203003,-1.531006 9.25,3.589996 11.440979,7.609985c0.551025,3.808014 -1.429993,7.621002 -3.218994,10.890015c-4.311951,3.718994 -10.721985,2.640991 -15.440979,0.238983c0.08197,2.359009 0.159973,4.730011 0.262024,7.109009c3.589966,-0.738007 7.698975,-2.14801 11.007996,0.242004c5.100952,2.530975 6.47998,9.800995 3.088989,14.219025c-3.22998,3.421997 -8.140015,4.039001 -12.379028,5.561951c-3.959961,-4.72998 -4.781006,-10.72998 -5.260986,-16.659973c-2.179993,1.02002 -4.359985,2.039001 -6.546997,3.039001c-3.012024,-2.268982 -7.070007,-3.768982 -8.640991,-7.449005c-0.609009,-4.929993 0.031982,-11.761993 5.098022,-14.261993c3.511963,-0.359009 7.061951,0 10.5,0.699982c2.440979,-4.289001 4.491943,-10.289001 10.089966,-11.238983"/>
   <path id="svg_172" fill-rule="nonzero" fill="rgb(0%,0%,0%)" d="m86.542511,438.286987c8.85199,-3.480011 16.832001,10.238007 11.210999,17.179993c-2.139999,3.269012 -6.839996,5.44101 -10.410004,3.101013c-4.410004,-2.742004 -9.479996,-6.800995 -8.289001,-12.792999c0.25,-3.89801 4.050995,-6.476013 7.488007,-7.488007"/>
   <path id="svg_173" fill-rule="nonzero" fill="rgb(0%,0%,0%)" d="m546.413513,441.177979c3.398987,-0.378998 5.140991,3.578003 6.281982,6.179016c2.488037,5.199982 -2.161011,11.019989 -6.789001,13c-5.042969,-0.449005 -10.333008,-4.902008 -8.864014,-10.570007c0.382996,-4.917999 4.731018,-8.210999 9.371033,-8.609009"/>
   <path id="svg_174" fill-rule="nonzero" fill="rgb(100%,100%,100%)" d="m482.991516,443.915985c2.882996,-0.539001 5.781982,-1.007996 8.703979,-1.437988c0.838989,3.437988 0.699036,6.988983 -0.27002,10.390991c-4.222961,-1.292999 -7.890991,-4.164001 -8.43396,-8.953003"/>
   <path id="svg_175" fill-rule="nonzero" fill="rgb(0%,0%,0%)" d="m183.183502,443.556976c4.850998,0.69101 8.832001,3.789001 13.058014,5.980011c-0.628006,2.820007 -1.257004,5.621002 -1.878006,8.460999c-4.809006,-1.070007 -8.891006,-3.832001 -13.090012,-6.230988c0.539001,-2.832001 0.961014,-5.531006 1.910004,-8.210022"/>
   <path id="svg_176" fill-rule="nonzero" fill="rgb(100%,100%,100%)" d="m89.36351,445.056976c3.639999,-1.339996 5.741989,3.519012 5.67099,6.480011c-2.268997,3.64801 -6.69899,1.210999 -9.889999,0.488007c1.128998,-2.39801 1.460999,-5.820007 4.219009,-6.968018"/>
   <path id="svg_177" fill-rule="nonzero" fill="rgb(0%,0%,0%)" d="m146.265503,449.145996c3.339996,1.992981 7.410004,3.539001 9.475998,7.039001c0.442001,2.972992 0.5,6.042969 0.082001,9.031982c-3.300003,-2.120972 -6.569992,-4.261993 -9.819992,-6.460999c0.05899,-3.238983 0.160004,-6.386993 0.261993,-9.609985"/>
   <path id="svg_178" fill-rule="nonzero" fill="rgb(0%,0%,0%)" d="m156.913513,454.016998c1.339996,-0.980011 2.679993,-1.968018 4.031998,-2.94101c1.737991,4.660004 3.077988,10.109009 -1.352005,13.690979c-0.936996,-3.58197 -1.809006,-7.159973 -2.679993,-10.749969"/>
   <path id="svg_179" fill-rule="nonzero" fill="rgb(100%,100%,100%)" d="m468.3125,452.684998c0.910034,0.070984 2.72998,0.210999 3.632996,0.281982c1.289001,1.878998 2.617004,3.738007 3.97998,5.582001c-0.651978,1.039001 -1.300964,2.089996 -1.940979,3.136017c-1.450012,0.082001 -2.911011,0.16098 -4.35199,0.242981c-0.64801,-3.050995 -1.090027,-6.140991 -1.320007,-9.242981"/>
   <path id="svg_180" fill-rule="nonzero" fill="rgb(0%,0%,0%)" d="m170.823502,457.548981c1.988998,-1.562988 4.781998,-1.242004 7.167999,-1.5c0.313004,2.5 0.622009,5.007996 0.942001,7.527008c-2.417999,1.281006 -4.819992,2.570007 -7.257996,3.812988c-0.391006,-3.140991 -3.742004,-7.050995 -0.852005,-9.839996"/>
   <path id="svg_181" fill-rule="nonzero" fill="rgb(0%,0%,0%)" d="m183.073502,458.946991c5.911011,3.430023 13.199997,7.538971 12.641006,15.399017c-4.128998,-1.25 -8.531006,-2.489014 -11.850998,-5.390991c-2.570999,-2.727051 -1.008011,-6.758057 -0.790009,-10.008026"/>
   <path id="svg_182" fill-rule="nonzero" fill="rgb(0%,0%,0%)" d="m551.452515,463.096008c6.511963,-2.969025 11.339966,5.570007 8.761963,10.75c-1.409973,3.049988 -3.870972,6.889954 -8.151978,4.971985c-7.559021,-1.132996 -7.5,-13.570007 -0.609985,-15.721985"/>
   <path id="svg_183" fill-rule="nonzero" fill="rgb(0%,0%,0%)" d="m160.382507,465.368958c3.151993,-0.722961 7.839996,-2.241943 9.813004,1.359009c2.557999,3.879028 -2.262009,7.02002 -4.813004,9.218994c-1.809006,-3.460999 -3.539001,-6.960999 -5,-10.578003"/>
   <path id="svg_184" fill-rule="nonzero" fill="rgb(0%,0%,0%)" d="m528.10553,468.856995c1.757996,-3.690979 6.428955,-4.47998 9.75,-5.97998c1.897949,3.120972 4.346985,6.179993 4.858948,9.921997c-0.448975,3.507996 -2.75,6.417969 -4.198975,9.569946c-3.731018,-0.460999 -7.382996,-0.901978 -11.08197,-1.440979c0.039001,-3.992981 -1.301025,-8.33197 0.671997,-12.070984"/>
   <path id="svg_185" fill-rule="nonzero" fill="rgb(0%,0%,0%)" d="m146.734512,464.368958c4.378998,2.488037 13.088989,4.977051 8.190994,11.52002c-3.473007,0.018982 -6.332001,-2.161011 -9.141006,-3.911011c0.238998,-1.901978 0.707001,-5.710999 0.950012,-7.609009"/>
   <path id="svg_186" fill-rule="nonzero" fill="rgb(100%,100%,100%)" d="m484.273499,469.057007c0.97998,-1.60199 2.690979,-2.551025 4.590027,-2.301025c1.471985,2.070007 1.97998,4.382996 3.151978,6.699036c-2.109009,0.91394 -4.223022,1.843994 -6.33197,2.75c-0.660034,-2.33606 -1.399048,-4.699036 -1.410034,-7.14801"/>
   <path id="svg_187" fill-rule="nonzero" fill="rgb(0%,0%,0%)" d="m175.714508,468.557007c1.390991,0.531006 2.770004,1.070007 4.160004,1.620972c-1.160004,1.527039 -2.422012,2.97998 -3.781006,4.328003c-0.238007,-1.981018 -0.352005,-3.95697 -0.378998,-5.948975"/>
   <path id="svg_188" fill-rule="nonzero" fill="rgb(100%,100%,100%)" d="m285.773499,469.235962c2.089996,12.469055 -0.449982,25.141052 0.109009,37.692017c-0.589996,-0.192017 -1.757996,-0.589966 -2.339996,-0.789001c-1.378998,-12.292969 -0.449005,-24.839966 2.230988,-36.903015"/>
   <path id="svg_189" fill-rule="nonzero" fill="rgb(0%,0%,0%)" d="m158.33551,469.877014c3.328003,2.171997 5.046997,5.671997 5.328003,9.679993c-1.5,0.83197 -2.988007,1.678955 -4.5,2.510986c-0.359009,-4.062012 -0.640015,-8.132996 -0.828003,-12.190979"/>
   <path id="svg_190" fill-rule="nonzero" fill="rgb(0%,0%,0%)" d="m162.292511,483.356995c4.511993,-3.22998 7.69899,-8.018982 12.69899,-10.609009c1.731003,3.879028 2.563004,8.078003 1.774002,12.301025c-2.621002,-0.871033 -4.942001,-1.063049 -7.453003,-1.774048c0.011002,2.942017 -0.097992,5.801025 -0.187988,8.774048c-2.039001,-0.410034 -4.070007,-0.832031 -6.101013,-1.242004c-0.300995,-2.468994 -0.519989,-5 -0.730988,-7.450012"/>
   <path id="svg_191" fill-rule="nonzero" fill="rgb(0%,0%,0%)" d="m183.683502,473.807007c4.180008,2.260986 8.332001,4.58197 12.460999,6.948975c-0.230988,2.660034 -0.442001,5.320007 -0.659988,7.992004c-4.621002,-1.473022 -9.032013,-3.52002 -13.360001,-5.679993c0.519989,-3.101013 1.019989,-6.179016 1.55899,-9.260986"/>
   <path id="svg_192" fill-rule="nonzero" fill="rgb(100%,100%,100%)" d="m68.984512,477.067993c0.530991,-0.371033 1.577988,-1.090027 2.108994,-1.449036c-0.089996,2.14801 -0.179993,4.297058 -0.270004,6.457031c-0.608994,-1.66803 -1.229996,-3.340027 -1.838989,-5.007996"/>
   <path id="svg_193" fill-rule="nonzero" fill="rgb(0%,0%,0%)" d="m146.374512,477.955017c3.110001,0.530945 6.218994,1.08197 9.360001,1.401978c0.327988,3.050964 0.530991,6.109985 0.487991,9.179993c-4.546997,-2.25 -10.417999,-4.551025 -9.847992,-10.58197"/>
   <path id="svg_194" fill-rule="nonzero" fill="rgb(0%,0%,0%)" d="m174.292511,491.395996c-1.25,-3.39801 2.062988,-6.410034 5.269989,-6.570007c0.031006,3.292969 -0.089996,6.640991 -0.386993,9.940979c-1.690994,-1.039001 -3.460999,-1.97998 -4.882996,-3.370972"/>
   <path id="svg_195" fill-rule="nonzero" fill="rgb(0%,0%,0%)" d="m532.04248,498.727966c-2.47998,-5.889954 4.063049,-11.781006 9.692017,-11.440979c3.101013,1 5.39801,4.090027 5.101013,7.390991c-0.651978,3.799988 -3.070007,6.988037 -4.660034,10.429016c-3.5,-1.340027 -8.890991,-2.039001 -10.132996,-6.379028"/>
   <path id="svg_196" fill-rule="nonzero" fill="rgb(0%,0%,0%)" d="m146.073502,487.677979c3.281998,0.890015 6.692001,1.710999 9.583008,3.578003c1.007004,2.5 0.936996,5.25 1.347,7.929016c-5.417999,-1.796021 -12.64801,-3.937012 -10.930008,-11.507019"/>
   <path id="svg_197" fill-rule="nonzero" fill="rgb(0%,0%,0%)" d="m158.792511,487.434998c1.882996,1.671997 3.741989,3.43396 5.132996,5.550964c-0.229996,1.992004 -1.311996,3.731018 -2.082001,5.551025c-1.309006,-1 -2.602005,-1.987976 -3.897995,-2.97998c0.237991,-2.718994 0.526993,-5.429993 0.847,-8.122009"/>
   <path id="svg_198" fill-rule="nonzero" fill="rgb(0%,0%,0%)" d="m182.234512,487.985962c4.288986,1.192017 8.25,3.25 12.210999,5.25c-0.141006,2 -0.411011,6.012024 -0.55101,8.02002c-4,-1.70697 -7.929993,-3.559021 -11.871002,-5.387024c0.050003,-1.972961 0.152008,-5.91394 0.211014,-7.882996"/>
   <path id="svg_199" fill-rule="nonzero" fill="rgb(0%,0%,0%)" d="m172.5345,491.356995c2.731003,3.5 6.570999,6.761963 7.207001,11.409973c0.024002,3.481018 -0.386002,7.122009 -1.975998,10.27002c-2.222992,-2.690979 -4.222992,-5.551025 -6.300995,-8.340027c-0.057999,1.421997 -0.109009,2.840027 -0.171997,4.27002c-3.480011,-1.710999 -6.828003,-3.718994 -10.219009,-5.570984c3.55101,-4.257019 7.610001,-8.057983 11.460999,-12.039001"/>
   <path id="svg_200" fill-rule="nonzero" fill="rgb(0%,0%,0%)" d="m181.464508,500.127014c3.847992,1.370972 8.026993,2.307983 11.358994,4.789001c0.583008,2.350952 0.942001,4.761963 1.090012,7.22998c-5.328003,-2.640015 -12.890015,-4.440979 -12.449005,-12.018982"/>
   <path id="svg_201" fill-rule="nonzero" fill="rgb(100%,100%,100%)" d="m282.542511,522.838013c-0.257996,-5.321045 0.820984,-10.582031 2.890991,-15.449036c0.351013,4.707031 0.378998,9.429016 0.539001,14.160034c-1.148987,0.417969 -2.289001,0.846985 -3.429993,1.289001"/>
   <path id="svg_202" fill-rule="nonzero" fill="rgb(0%,0%,0%)" d="m182.175507,513.388977c1.296997,-0.921997 2.597992,-1.820984 3.910004,-2.731018c2.628998,1.731018 5.269989,3.460999 7.905991,5.180054c-0.827988,2.237976 -1.647995,4.47998 -2.468002,6.72998c-3.890991,-2.160034 -7.199997,-5.281006 -9.347992,-9.179016"/>
   <path id="svg_203" fill-rule="nonzero" fill="rgb(100%,100%,100%)" d="m346.984497,520.307007c3.468018,-0.879028 9.871002,-3.161011 10.128998,2.459961c0.031006,5.688049 -6.667999,1.757996 -10.148987,1.60199c0,-1.011963 0.007996,-3.050964 0.019989,-4.061951"/>
   <path id="svg_204" fill-rule="nonzero" fill="rgb(100%,100%,100%)" d="m334.945496,521.325989c3.117004,-0.659973 6.269012,-1.070007 9.449005,-1.22998c-1.10199,1.953003 -2.199005,3.901978 -3.339996,5.83197c-1.960999,-0.429993 -3.921997,-0.839966 -5.890991,-1.210999c-0.050018,-0.848022 -0.160004,-2.550964 -0.218018,-3.390991"/>
   <path id="svg_205" fill-rule="nonzero" fill="rgb(100%,100%,100%)" d="m377.241516,523.057007c3.062988,-1.379028 6.222992,-2.60199 9.582001,-2.968994c-0.101013,2.97998 -0.140015,5.960999 -0.269012,8.936951c-3.980988,-0.539001 -6.710999,-3.25 -9.312988,-5.967957"/>
   <path id="svg_206" fill-rule="nonzero" fill="rgb(100%,100%,100%)" d="m322.534515,523.227966c2.128998,-1.659973 4.898987,-2.120972 7.378998,-3.022949c-0.230011,2.069946 -0.300018,4.241943 -1.210999,6.171997c-2.289001,1.539001 -5.058014,2.057983 -7.710999,2.671997c0.382996,-1.973022 0.640991,-4.012024 1.542999,-5.821045"/>
   <path id="svg_207" fill-rule="nonzero" fill="rgb(100%,100%,100%)" d="m363.304504,520.606995c3.621002,0.800964 7.238007,1.589966 10.839996,2.531982c-2.949005,3.859009 -7.890991,3.277039 -12.230988,3.346985c0.460999,-1.968994 0.929993,-3.917969 1.390991,-5.878967"/>
   <path id="svg_208" fill-rule="nonzero" fill="rgb(100%,100%,100%)" d="m392.8125,522.416016c2.480011,0.722961 4.953003,1.47998 7.429016,2.22998c-0.257019,1.589966 -0.777008,4.781982 -1.039001,6.370972c-1.718018,-0.14801 -5.160004,-0.467957 -6.878998,-0.620972c0.109985,-2.710999 0.289978,-5.320007 0.488983,-7.97998"/>
   <path id="svg_209" fill-rule="nonzero" fill="rgb(100%,100%,100%)" d="m305.784515,532.868958c0.050995,-5.671997 4.75,-8.91394 9.847992,-9.890991c0.94101,6.679993 -4.910004,8.789001 -9.847992,9.890991"/>
   <path id="svg_210" fill-rule="nonzero" fill="rgb(100%,100%,100%)" d="m283.804504,524.227966c2.371002,5.039001 1.60199,10.707031 -0.968994,15.438049c0.136993,-5.16803 0.027985,-10.348022 0.968994,-15.438049"/>
   <path id="svg_211" fill-rule="nonzero" fill="rgb(100%,100%,100%)" d="m292.874512,527.677979c2.839996,-0.109985 5.648987,-0.200012 8.5,-0.222961c-1.730011,3.343994 -4.382996,6.050964 -7.550995,8.050964c-0.488007,-2.589966 -0.75,-5.20697 -0.949005,-7.828003"/>
   <path id="svg_212" fill-rule="nonzero" fill="rgb(100%,100%,100%)" d="m404.792511,527.274963c3.511993,0.25 7.082001,0.563049 10.582001,1.102051c-0.871002,2.870972 -1.789001,5.72998 -2.800995,8.569946c-3.121002,-2.761963 -5.39801,-6.300964 -7.781006,-9.671997"/>
   <path id="svg_213" fill-rule="nonzero" fill="rgb(100%,100%,100%)" d="m420.292511,530.145996c2.332001,2.403015 4.410004,5.031982 5.742004,8.161011c-1.859009,0.39801 -3.699005,0.811951 -5.550018,1.190979c-0.121002,-3.151978 -0.16098,-6.231018 -0.191986,-9.35199"/>
  </g>
 </g>
</svg>