<?xml version="1.0" encoding="UTF-8"?>
<svg width="600pt" height="600pt" version="1.1" viewBox="50 0 600 560" xmlns="http://www.w3.org/2000/svg" xmlns:xlink="http://www.w3.org/1999/xlink" style="fill:white">
 <g>
  <path d="m163.42 183.75c1.8633 0 3.7188-0.35938 5.4531-1.0508l287.88-115.16 46.867 124.96h-31.125v17.5h71.312l-21.324-17.062-49.473-131.9 34.004-13.605c5.582-2.2227 9.2305-7.6211 9.2305-13.613v-1.6484c0-8.1016-6.5703-14.672-14.672-14.672-1.8672 0-3.7188 0.35938-5.4531 1.0508l-338.15 135.26c-5.5742 2.2305-9.2227 7.6289-9.2227 13.621v1.6445c0 8.1055 6.5703 14.676 14.672 14.676z"/>
  <path d="m256.2 376.25 11.664-35h-17.457l-17.5 35z"/>
  <path d="m230.84 341.25h-16.164l-23.336 35h22z"/>
  <path d="m298.84 376.25 5.8359-35h-18.375l-11.664 35z"/>
  <path d="m341.25 376.25v-35h-18.84l-5.8359 35z"/>
  <path d="m508.66 376.25-23.336-35h-16.164l17.5 35z"/>
  <path d="m141.19 376.25h29.129l23.336-35h-23.301z"/>
  <path d="m358.75 376.25h24.676l-5.8359-35h-18.84z"/>
  <path d="m558.81 376.25-29.164-35h-23.301l23.336 35z"/>
  <path d="m175 271.25h350v52.5h-350z"/>
  <path d="m560 227.5h-87.5v26.25h87.5z"/>
  <path d="m443.8 376.25h23.293l-17.5-35h-17.457z"/>
  <path d="m401.16 376.25h24.203l-11.664-35h-18.375z"/>
  <path d="m131.25 411.25h35v113.75h-35v17.5h437.5v-17.5h-35v-113.75h35v-17.5h-437.5zm183.75 0v78.75h-8.75v17.5h35v-17.5h-8.75v-78.75h35v78.75h-8.75v17.5h35v-17.5h-8.75v-78.75h113.75v113.75h-297.5v-113.75z"/>
  <path d="m140 227.5h87.5v26.25h-87.5z"/>
  <path d="m307.75 148.75h-21.691l-6.0625 2.4219v102.58h61.25v-92.383c-9.2305-8.0312-21.227-12.617-33.496-12.617zm15.996 87.5h-26.25v-17.5h26.25zm0-35h-26.25v-17.5h26.25z"/>
  <path d="m245 165.17v88.578h17.5v-95.578z"/>
  <path d="m437.5 166.25h17.5v87.5h-17.5z"/>
  <path d="m157.5 271.25h-17.5v56.121l-8.75 8.75v24.703l26.25-31.5z"/>
  <path d="m560 271.25h-17.5v58.074l26.25 31.5v-24.703l-8.75-8.75z"/>
  <path d="m179.76 191.15-23.566 18.848h71.305v-37.828l-46.629 18.656c-0.35938 0.14062-0.74219 0.19141-1.1094 0.32422z"/>
  <path d="m392.25 148.75c-12.266 0-24.266 4.5859-33.496 12.617v92.383h61.25v-105zm10.254 87.5h-26.25v-17.5h26.25zm0-35h-26.25v-17.5h26.25z"/>
  <path d="m586.25 525h17.5v17.5h-17.5z"/>
  <path d="m96.25 525h17.5v17.5h-17.5z"/>
 </g>
</svg>
