<?xml version="1.0" encoding="UTF-8"?>
<svg width="1200pt" height="1000pt" version="1.1" viewBox="0 90 1200 1050" xmlns="http://www.w3.org/2000/svg" style="fill:white">
 <path d="m614.36 385.54c0-7.5234 0.30078-14.977 0.86328-22.332h-39.434c6.2656 80.965-21.562 164.06-83.484 226-74.93 74.941-180.84 99.926-276.47 75.035v404.71c0 13.246 10.152 25.367 24.348 25.367h707.94c14.207 0 24.312-12.145 24.312-25.367l0.003906-404c-22.43 5.6289-45.91 8.6055-70.117 8.6055-159.04-0.003906-287.96-128.95-287.96-288.02zm148.3 293.45c31.43 0 56.93 25.477 56.93 56.902 0 31.453-25.5 56.93-56.93 56.93-31.453 0-56.93-25.477-56.93-56.93 0-31.426 25.477-56.902 56.93-56.902zm-236.71 49.477c0-3.9609 3.2148-7.1523 7.1289-7.1523h113.8c0.98438 0 1.9219 0.19141 2.7617 0.5625 0.33594 0.14453 0.70703 0.34766 1.0312 0.5625 0.046875 0.023437 0.12109 0.023437 0.19141 0.097656 1.8711 1.2852 3.1445 3.4453 3.1445 5.9297v56.809c0 3.9375-3.1914 7.1523-7.1289 7.1523h-113.77c-0.98437 0-1.9219-0.19141-2.7852-0.5625-0.3125-0.14453-0.66016-0.34766-0.98438-0.53906-0.070312-0.023437-0.14453-0.070312-0.21484-0.097656-1.9219-1.2852-3.168-3.4922-3.168-5.9531zm-107.44-49.477c31.43 0 56.879 25.477 56.879 56.902 0 31.453-25.453 56.93-56.879 56.93-31.43 0-56.953-25.477-56.953-56.93 0-31.426 25.527-56.902 56.953-56.902zm-139.71 82.246c13.078 0 23.699 10.621 23.699 23.711 0 13.078-10.621 23.676-23.699 23.676-13.055 0-23.711-10.598-23.711-23.676 0.011718-13.102 10.668-23.711 23.711-23.711zm654.42 293.81h-678.11v-208.87h678.11zm1.2148-270.12c0 13.078-10.57 23.676-23.676 23.676-13.078 0-23.688-10.598-23.688-23.676s10.609-23.699 23.688-23.699c13.102 0.007813 23.676 10.617 23.676 23.699zm-494.59 210.12c0 13.105-10.598 23.699-23.699 23.699-13.094 0-23.688-10.598-23.688-23.699 0-13.055 10.598-23.652 23.688-23.652 13.117 0 23.699 10.598 23.699 23.652zm-127.99 0c0-13.055 10.598-23.652 23.676-23.652s23.676 10.598 23.676 23.652c0 13.105-10.598 23.699-23.676 23.699s-23.676-10.594-23.676-23.699zm293.86 0c0 13.105-10.621 23.699-23.664 23.699-13.105 0-23.699-10.598-23.699-23.699 0-13.055 10.598-23.652 23.699-23.652 13.043 0 23.664 10.598 23.664 23.652zm138.91-51v-18.145c0-7.8945 6.3945-14.27 14.293-14.27h1.4023v-29.723c0-9.5391 14.258-9.5391 14.258 0v29.723h1.6094c7.8828 0 14.305 6.3711 14.305 14.27v18.145c0 7.8711-6.4219 14.27-14.305 14.27h-1.6094v59.82c0 9.5273-14.258 9.5273-14.258 0v-59.82h-1.4023c-7.8984 0-14.293-6.3984-14.293-14.27zm83.316 29.184v-18.145c0-7.8711 6.3711-14.27 14.27-14.27h1.4023v-58.883c0-9.5391 14.258-9.5391 14.258 0l-0.003906 58.875h1.6445c7.8711 0 14.258 6.3945 14.258 14.258v18.156c0 7.8594-6.3828 14.281-14.258 14.281h-1.6445v30.648c0 9.5156-14.258 9.5156-14.258 0v-30.648h-1.4023c-7.8945 0.019531-14.266-6.3984-14.266-14.273zm-166.64 22.562v-18.121c0-7.9219 6.4219-14.316 14.258-14.316h1.4297v-81.445c0-9.5391 14.258-9.5391 14.258 0v81.445h1.6562c7.8594 0 14.258 6.3945 14.258 14.316v18.121c0 7.8945-6.3711 14.258-14.258 14.258h-1.6562v8.1016c0 9.5156-14.258 9.5156-14.258 0v-8.1016h-1.4297c-7.8281 0.019531-14.258-6.3516-14.258-14.258zm-348.88-49.406v-56.809c0-3.9609 3.1914-7.1523 7.1289-7.1523h113.79c3.9102 0 7.1289 3.1914 7.1289 7.1523v56.809c0 3.9609-3.2148 7.1523-7.1289 7.1523h-33.242c-0.19141-6.2383-2.8203-11.902-6.9844-16.008l29.363-38.27-5.6875-4.3203-29.461 38.398c-3.2656-1.7148-7.0078-2.6523-10.883-2.6523-12.805 0-23.258 10.152-23.711 22.848h-33.215c-3.8984 0.003906-7.0938-3.1875-7.0938-7.1484zm165.29 48.66c0-13.055 10.621-23.652 23.711-23.652 13.078 0 23.711 10.598 23.711 23.652 0 13.105-10.633 23.699-23.711 23.699-13.102 0-23.711-10.594-23.711-23.699zm0.23047-48.66v-56.809c0-3.9609 3.1914-7.1523 7.1055-7.1523h113.79c3.9609 0 7.1289 3.1914 7.1289 7.1523v56.809c0 3.9609-3.168 7.1523-7.1289 7.1523h-33.215c-0.19141-6.2383-2.8438-11.902-7.0078-16.008l29.363-38.27-5.6875-4.3203-29.461 38.398c-3.2539-1.7148-6.9844-2.6523-10.883-2.6523-12.781 0-23.258 10.152-23.664 22.848h-33.254c-3.8906 0.003906-7.082-3.1875-7.082-7.1484zm424.44-824.55c-145.62 0-263.7 118.05-263.7 263.71 0 145.62 118.08 263.71 263.7 263.71 145.64 0 263.72-118.07 263.72-263.71 0.003906-145.66-118.08-263.71-263.72-263.71zm-196.59 150.28c7.9922-13.848 33.863-56.316 56.531-55.633 4.7148 0.13281 8.9297 3.3594 13.008 9.1328 23.23 32.914 37.199 60.504 41.461 81.973 2.8789 14.484-10.777 38.184-24.77 42.938-20.762 7.0312-51.613 8.7461-91.754 5.0742-6.9844-0.63672-11.902-2.6875-14.352-6.6953-11.949-19.312 11.883-62.93 19.875-76.789zm111 191.46c-4.2617 21.492-18.254 49.055-41.461 81.996-4.0781 5.7461-8.293 8.9883-13.008 9.1211-22.668 0.67188-48.539-41.785-56.531-55.633-7.9922-13.848-31.824-57.48-19.895-76.777 2.4609-4.0078 7.3789-6.0469 14.363-6.707 40.152-3.6719 70.992-1.957 91.754 5.0898 14 4.7383 27.668 28.441 24.777 42.91zm9.0469-283.77c10.777-19.98 60.492-21.145 76.5-21.145 15.961 0 65.676 1.1641 76.43 21.145 2.2305 4.1289 1.5703 9.4219-1.4023 15.816-16.871 36.59-33.793 62.461-50.27 76.895-11.09 9.7422-38.461 9.7422-49.57 0-16.453-14.449-33.348-40.309-50.258-76.895-2.9766-6.3984-3.6484-11.691-1.4297-15.816zm147.09 205.75c0 38.953-31.598 70.523-70.547 70.523-38.93 0-70.523-31.57-70.523-70.523 0-38.965 31.598-70.535 70.523-70.535 38.953 0 70.547 31.57 70.547 70.535zm5.832 205.82c-10.754 19.98-60.469 21.156-76.43 21.156-16.008 0-65.734-1.1758-76.5-21.156-2.2422-4.1406-1.5469-9.4336 1.4297-15.828 16.895-36.59 33.781-62.461 50.258-76.883 11.113-9.7422 38.484-9.7422 49.57 0 16.477 14.438 33.395 40.297 50.27 76.883 2.9766 6.3984 3.6367 11.688 1.4023 15.828zm9.0977-283.79c4.2617-21.48 18.215-49.055 41.438-81.973 4.0781-5.7617 8.3164-9 13.031-9.1328 22.645-0.68359 48.516 41.785 56.508 55.633 7.9922 13.848 31.848 57.48 19.922 76.777-2.4844 4.0078-7.3789 6.0586-14.387 6.6953-40.152 3.6719-70.992 1.957-91.754-5.0742-13.969-4.7539-27.637-28.441-24.758-42.926zm110.98 191.46c-7.9922 13.836-33.863 56.305-56.508 55.633-4.7148-0.13281-8.9531-3.3594-13.031-9.1211-23.242-32.93-37.176-60.504-41.438-81.996-2.8789-14.484 10.777-38.184 24.77-42.926 20.746-7.043 51.59-8.7461 91.738-5.0898 7.0078 0.63672 11.902 2.6875 14.387 6.707 11.941 19.312-11.902 62.945-19.918 76.793zm-623.68 72.961c102.98-102.98 102.98-269.95 0-372.94-102.98-102.98-269.95-102.98-372.94 0-102.96 102.98-102.96 269.95 0 372.94 102.98 102.98 269.95 102.98 372.94 0zm-26.016-25.906c-11.316 11.305-47.316 45.625-69.047 39.121-4.5-1.3555-7.7539-5.5664-10.199-12.191-13.922-37.801-20.23-68.062-18.816-89.93 0.96094-14.723 20.34-34.066 35.062-35.039 21.863-1.4414 52.105 4.8945 89.902 18.816 6.6367 2.4375 10.824 5.6992 12.191 10.199 6.5156 21.742-27.805 57.707-39.094 69.023zm3.5859-282.13c5.3867-4.5117 10.332-6.5273 14.902-5.4492 22.105 5.2188 36.098 52.922 40.223 68.375 4.1406 15.457 15.863 63.742-0.61328 79.32-3.4453 3.2266-8.7227 3.9375-15.684 2.7461-39.707-6.8516-69.07-16.5-87.301-28.656-12.254-8.207-19.32-34.633-12.781-47.879 9.668-19.641 30.297-42.672 61.254-68.457zm-184.67-96.902c15.59-16.512 63.887-4.7773 79.332-0.63672h0.023438c15.422 4.1406 63.098 18.133 68.34 40.211 1.0781 4.5703-0.9375 9.5039-5.4609 14.93-25.777 30.973-48.816 51.574-68.461 61.262-13.234 6.5273-39.684-0.55078-47.879-12.828-12.168-18.215-21.77-47.578-28.645-87.289-1.1602-6.9336-0.44141-12.227 2.75-15.648zm70.5 168.61c27.516 27.539 27.516 72.191 0 99.73-27.539 27.551-72.191 27.551-99.73 0-27.539-27.539-27.539-72.191 0-99.73 27.539-27.539 72.191-27.539 99.73 0zm-210.37-110.51c11.293-11.305 47.27-45.625 69.023-39.109 4.5 1.3555 7.7539 5.5664 10.176 12.191 13.945 37.812 20.293 68.051 18.84 89.914-0.96094 14.734-20.281 34.078-35.039 35.051-21.863 1.4297-52.105-4.8945-89.93-18.84-6.5898-2.4375-10.812-5.6875-12.168-10.199-6.5156-21.738 27.793-57.691 39.098-69.008zm-3.6133 282.12c-5.3867 4.5-10.309 6.5273-14.902 5.4492-22.078-5.2188-36.07-52.922-40.199-68.363v-0.011719c-4.1523-15.445-15.863-63.742 0.61328-79.32 3.4453-3.2266 8.7461-3.9375 15.66-2.7344 39.719 6.8398 69.07 16.488 87.301 28.645 12.254 8.207 19.355 34.633 12.816 47.879-9.6992 19.641-30.328 42.68-61.289 68.457zm105.35 97.535c-15.469-4.1406-63.145-18.133-68.387-40.211-1.0781-4.5703 0.96094-9.5039 5.4609-14.93 25.777-30.973 48.84-51.574 68.461-61.262 13.246-6.5273 39.66 0.55078 47.879 12.84 12.145 18.203 21.793 47.566 28.645 87.277 1.1992 6.9375 0.46875 12.227-2.7461 15.648-15.555 16.523-63.891 4.7773-79.312 0.63672z"/>
</svg>
