<svg xmlns="http://www.w3.org/2000/svg" width="1141.104" height="972.488" viewBox="0 0 1141.104 972.488">
  <g id="Group_1" data-name="Group 1" transform="translate(-405 -48)">
    <path id="reel-to-reel" d="M614.36,385.54c0-7.523.3-14.977.863-22.332H575.789a287.38,287.38,0,0,1-83.484,226c-74.93,74.941-180.84,99.926-276.47,75.035v404.71c0,13.246,10.152,25.367,24.348,25.367h707.94c14.207,0,24.312-12.145,24.312-25.367l0-404a287.687,287.687,0,0,1-70.117,8.606c-159.04,0-287.96-128.95-287.96-288.02Zm148.3,293.45a56.916,56.916,0,1,1-56.93,56.9A56.924,56.924,0,0,1,762.66,678.99ZM525.95,728.467a7.149,7.149,0,0,1,7.129-7.152h113.8a6.728,6.728,0,0,1,3.793,1.125.441.441,0,0,1,.191.1,7.193,7.193,0,0,1,3.144,5.93v56.809a7.148,7.148,0,0,1-7.129,7.152H533.109a7.013,7.013,0,0,1-2.785-.562c-.312-.145-.66-.348-.984-.539-.07-.023-.145-.07-.215-.1a7.161,7.161,0,0,1-3.168-5.953ZM418.51,678.99a56.916,56.916,0,1,1-56.953,56.9A56.881,56.881,0,0,1,418.51,678.99ZM278.8,761.236a23.694,23.694,0,1,1-23.711,23.711A23.715,23.715,0,0,1,278.8,761.236Zm654.42,293.81H255.11V846.176H933.22Zm1.215-270.12a23.682,23.682,0,1,1-23.676-23.7A23.655,23.655,0,0,1,934.435,784.926Zm-494.59,210.12a23.694,23.694,0,1,1-23.7-23.652A23.681,23.681,0,0,1,439.845,995.046Zm-127.99,0a23.676,23.676,0,1,1,23.676,23.7A23.668,23.668,0,0,1,311.855,995.046Zm293.86,0a23.682,23.682,0,1,1-23.664-23.652A23.688,23.688,0,0,1,605.715,995.046Zm138.91-51V925.9a14.27,14.27,0,0,1,14.293-14.27h1.4V881.908c0-9.539,14.258-9.539,14.258,0v29.723h1.609a14.287,14.287,0,0,1,14.3,14.27v18.145a14.305,14.305,0,0,1-14.3,14.27h-1.609v59.82c0,9.527-14.258,9.527-14.258,0v-59.82h-1.4A14.285,14.285,0,0,1,744.625,944.046Zm83.316,29.184V955.085a14.265,14.265,0,0,1,14.27-14.27h1.4V881.932c0-9.539,14.258-9.539,14.258,0l0,58.875h1.644a14.267,14.267,0,0,1,14.258,14.258v18.156A14.287,14.287,0,0,1,859.512,987.5h-1.644v30.648c0,9.516-14.258,9.516-14.258,0V987.5h-1.4a14.252,14.252,0,0,1-14.266-14.273ZM661.3,995.792V977.671a14.3,14.3,0,0,1,14.258-14.316h1.43V881.91c0-9.539,14.258-9.539,14.258,0v81.445H692.9a14.287,14.287,0,0,1,14.258,14.316v18.121A14.237,14.237,0,0,1,692.9,1010.05h-1.656v8.1c0,9.516-14.258,9.516-14.258,0v-8.1h-1.43A14.255,14.255,0,0,1,661.3,995.792Zm-348.88-49.406V889.577a7.134,7.134,0,0,1,7.129-7.152H433.34a7.151,7.151,0,0,1,7.129,7.152v56.809a7.149,7.149,0,0,1-7.129,7.152H400.1a23.464,23.464,0,0,0-6.984-16.008l29.363-38.27-5.687-4.32-29.461,38.4a23.439,23.439,0,0,0-10.883-2.652,23.725,23.725,0,0,0-23.711,22.848H319.519a7.123,7.123,0,0,1-7.094-7.148Zm165.29,48.66a23.711,23.711,0,1,1,23.711,23.7A23.69,23.69,0,0,1,477.711,995.046Zm.23-48.66V889.577a7.129,7.129,0,0,1,7.105-7.152h113.79a7.119,7.119,0,0,1,7.129,7.152v56.809a7.119,7.119,0,0,1-7.129,7.152H565.622a23.486,23.486,0,0,0-7.008-16.008l29.363-38.27-5.687-4.32-29.461,38.4a23.334,23.334,0,0,0-10.883-2.652,23.668,23.668,0,0,0-23.664,22.848H485.027a7.118,7.118,0,0,1-7.082-7.148Zm424.44-824.55c-145.62,0-263.7,118.05-263.7,263.71,0,145.62,118.08,263.71,263.7,263.71,145.64,0,263.72-118.07,263.72-263.71,0-145.66-118.08-263.71-263.72-263.71Zm-196.59,150.28c7.992-13.848,33.863-56.316,56.531-55.633,4.715.133,8.93,3.359,13.008,9.133,23.23,32.914,37.2,60.5,41.461,81.973,2.879,14.484-10.777,38.184-24.77,42.938-20.762,7.031-51.613,8.746-91.754,5.074-6.984-.637-11.9-2.687-14.352-6.7-11.949-19.312,11.883-62.93,19.875-76.789Zm111,191.46c-4.262,21.492-18.254,49.055-41.461,82-4.078,5.746-8.293,8.988-13.008,9.121-22.668.672-48.539-41.785-56.531-55.633s-31.824-57.48-19.9-76.777c2.461-4.008,7.379-6.047,14.363-6.707,40.152-3.672,70.992-1.957,91.754,5.09,14,4.738,27.668,28.441,24.777,42.91Zm9.047-283.77c10.777-19.98,60.492-21.145,76.5-21.145,15.961,0,65.676,1.164,76.43,21.145,2.231,4.129,1.57,9.422-1.4,15.816-16.871,36.59-33.793,62.461-50.27,76.9-11.09,9.742-38.461,9.742-49.57,0-16.453-14.449-33.348-40.309-50.258-76.895-2.977-6.4-3.648-11.691-1.43-15.816Zm147.09,205.75a70.535,70.535,0,1,1-70.547-70.535A70.541,70.541,0,0,1,972.928,385.556Zm5.832,205.82c-10.754,19.98-60.469,21.156-76.43,21.156-16.008,0-65.734-1.176-76.5-21.156-2.242-4.141-1.547-9.434,1.43-15.828,16.9-36.59,33.781-62.461,50.258-76.883,11.113-9.742,38.484-9.742,49.57,0,16.477,14.438,33.4,40.3,50.27,76.883C980.334,581.946,980.994,587.236,978.76,591.376Zm9.1-283.79c4.262-21.48,18.215-49.055,41.438-81.973,4.078-5.762,8.316-9,13.031-9.133,22.645-.684,48.516,41.785,56.508,55.633s31.848,57.48,19.922,76.777c-2.484,4.008-7.379,6.059-14.387,6.7-40.152,3.672-70.992,1.957-91.754-5.074-13.969-4.754-27.637-28.441-24.758-42.926Zm110.98,191.46c-7.992,13.836-33.863,56.3-56.508,55.633-4.715-.133-8.953-3.359-13.031-9.121-23.242-32.93-37.176-60.5-41.438-82-2.879-14.484,10.777-38.184,24.77-42.926,20.746-7.043,51.59-8.746,91.738-5.09,7.008.637,11.9,2.688,14.387,6.707,11.941,19.312-11.9,62.945-19.918,76.793Zm-623.68,72.961c102.98-102.98,102.98-269.95,0-372.94s-269.95-102.98-372.94,0c-102.96,102.98-102.96,269.95,0,372.94C205.2,674.987,372.168,674.987,475.158,572.007ZM449.142,546.1c-11.316,11.3-47.316,45.625-69.047,39.121-4.5-1.356-7.754-5.566-10.2-12.191-13.922-37.8-20.23-68.062-18.816-89.93.961-14.723,20.34-34.066,35.062-35.039,21.863-1.441,52.105,4.895,89.9,18.816,6.637,2.438,10.824,5.7,12.191,10.2,6.516,21.742-27.8,57.707-39.094,69.023Zm3.586-282.13c5.387-4.512,10.332-6.527,14.9-5.449,22.105,5.219,36.1,52.922,40.223,68.375,4.141,15.457,15.863,63.742-.613,79.32-3.445,3.227-8.723,3.938-15.684,2.746-39.707-6.852-69.07-16.5-87.3-28.656-12.254-8.207-19.32-34.633-12.781-47.879,9.668-19.641,30.3-42.672,61.254-68.457Zm-184.67-96.9c15.59-16.512,63.887-4.777,79.332-.637h.023c15.422,4.141,63.1,18.133,68.34,40.211,1.078,4.57-.937,9.5-5.461,14.93-25.777,30.973-48.816,51.574-68.461,61.262-13.234,6.527-39.684-.551-47.879-12.828-12.168-18.215-21.77-47.578-28.645-87.289-1.16-6.934-.441-12.227,2.75-15.648Zm70.5,168.61a70.52,70.52,0,1,1-99.73,0A70.563,70.563,0,0,1,338.558,335.679Zm-210.37-110.51c11.293-11.3,47.27-45.625,69.023-39.109,4.5,1.355,7.754,5.566,10.176,12.191,13.945,37.812,20.293,68.051,18.84,89.914-.961,14.734-20.281,34.078-35.039,35.051-21.863,1.43-52.1-4.895-89.93-18.84-6.59-2.437-10.812-5.687-12.168-10.2-6.516-21.738,27.793-57.691,39.1-69.008Zm-3.613,282.12c-5.387,4.5-10.309,6.527-14.9,5.449-22.078-5.219-36.07-52.922-40.2-68.363v-.012c-4.152-15.445-15.863-63.742.613-79.32,3.445-3.227,8.746-3.937,15.66-2.734,39.719,6.84,69.07,16.488,87.3,28.645,12.254,8.207,19.355,34.633,12.816,47.879-9.7,19.641-30.328,42.68-61.289,68.457Zm105.35,97.535c-15.469-4.141-63.145-18.133-68.387-40.211-1.078-4.57.961-9.5,5.461-14.93,25.777-30.973,48.84-51.574,68.461-61.262,13.246-6.527,39.66.551,47.879,12.84,12.145,18.2,21.793,47.566,28.645,87.277,1.2,6.938.469,12.227-2.746,15.648-15.555,16.523-63.891,4.777-79.312.637Z" transform="translate(380.002 -73.832)" fill="#fff"/>
    <rect id="Rectangle_2" data-name="Rectangle 2" width="47" height="48" rx="15" transform="translate(1041 889)" fill="#f9551c"/>
    <rect id="Rectangle_3" data-name="Rectangle 3" width="47" height="48" rx="15" transform="translate(1124 837)" fill="#f9551c"/>
    <rect id="Rectangle_4" data-name="Rectangle 4" width="47" height="48" rx="15" transform="translate(1207 866)" fill="#f9551c"/>
    <line id="Line_1" data-name="Line 1" x1="32" y2="40" transform="translate(935.5 821.5)" fill="none" stroke="#fff" stroke-width="9"/>
    <line id="Line_2" data-name="Line 2" x1="30" y2="38" transform="translate(935.5 823.5)" fill="none" stroke="#f9551c" stroke-width="7"/>
    <line id="Line_3" data-name="Line 3" x1="32" y2="40" transform="translate(770.5 821.5)" fill="none" stroke="#fff" stroke-width="10"/>
    <line id="Line_4" data-name="Line 4" x1="30" y2="38" transform="translate(770.5 823.5)" fill="none" stroke="#f9551c" stroke-width="7"/>
  </g>
</svg>
