<?xml version="1.0" encoding="UTF-8"?>
<svg width="700pt" height="700pt" version="1.1" viewBox="100 50 500 450" xmlns="http://www.w3.org/2000/svg" xmlns:xlink="http://www.w3.org/1999/xlink" style="stroke:white;fill:white">
 <defs>
  <symbol id="t" overflow="visible">
   <path d="m13.594-0.8125c-0.69922 0.36719-1.4297 0.63672-2.1875 0.8125-0.76172 0.1875-1.5547 0.28125-2.375 0.28125-2.4688 0-4.4219-0.6875-5.8594-2.0625s-2.1562-3.2422-2.1562-5.6094c0-2.3633 0.71875-4.2344 2.1562-5.6094s3.3906-2.0625 5.8594-2.0625c0.82031 0 1.6133 0.09375 2.375 0.28125 0.75781 0.17969 1.4883 0.44922 2.1875 0.8125v3.0625c-0.71094-0.47656-1.4062-0.82812-2.0938-1.0469-0.6875-0.22656-1.4141-0.34375-2.1719-0.34375-1.3555 0-2.4219 0.4375-3.2031 1.3125-0.78125 0.86719-1.1719 2.0625-1.1719 3.5938s0.39062 2.7344 1.1719 3.6094c0.78125 0.86719 1.8477 1.2969 3.2031 1.2969 0.75781 0 1.4844-0.10938 2.1719-0.32812 0.6875-0.22656 1.3828-0.58203 2.0938-1.0625z"/>
  </symbol>
  <symbol id="d" overflow="visible">
   <path d="m9.9531-8.0781c-0.3125-0.14453-0.625-0.25-0.9375-0.3125-0.30469-0.070313-0.60938-0.10938-0.92188-0.10938-0.90625 0-1.6094 0.29297-2.1094 0.875-0.49219 0.58594-0.73438 1.4219-0.73438 2.5156v5.1094h-3.5469v-11.094h3.5469v1.8125c0.45703-0.71875 0.97656-1.2422 1.5625-1.5781 0.59375-0.34375 1.3047-0.51562 2.1406-0.51562 0.11328 0 0.23828 0.007812 0.375 0.015625 0.14453 0.011719 0.34766 0.039063 0.60938 0.078125z"/>
  </symbol>
  <symbol id="c" overflow="visible">
   <path d="m12.781-5.5781v1.0156h-8.2969c0.09375 0.83594 0.39453 1.4609 0.90625 1.875 0.51953 0.40625 1.2383 0.60938 2.1562 0.60938 0.75 0 1.5156-0.10938 2.2969-0.32812s1.5859-0.55078 2.4219-1v2.7344c-0.84375 0.3125-1.6875 0.54688-2.5312 0.70312-0.83594 0.16406-1.6719 0.25-2.5156 0.25-2 0-3.5586-0.50781-4.6719-1.5312-1.1172-1.0195-1.6719-2.4531-1.6719-4.2969 0-1.8008 0.54688-3.2227 1.6406-4.2656 1.0938-1.0391 2.5977-1.5625 4.5156-1.5625 1.7383 0 3.1289 0.52734 4.1719 1.5781 1.0508 1.0547 1.5781 2.4609 1.5781 4.2188zm-3.6406-1.1875c0-0.66406-0.19922-1.207-0.59375-1.625-0.39844-0.41406-0.91406-0.625-1.5469-0.625-0.6875 0-1.2461 0.19922-1.6719 0.59375-0.42969 0.38672-0.69531 0.9375-0.79688 1.6562z"/>
  </symbol>
  <symbol id="i" overflow="visible">
   <path d="m6.6875-5c-0.75 0-1.3125 0.13281-1.6875 0.39062-0.36719 0.25-0.54688 0.61719-0.54688 1.0938 0 0.46094 0.14844 0.8125 0.45312 1.0625 0.30078 0.25 0.71875 0.375 1.25 0.375 0.66406 0 1.2227-0.23828 1.6719-0.71875 0.45703-0.47656 0.6875-1.0781 0.6875-1.7969v-0.40625zm5.4062-1.3281v6.3281h-3.5781v-1.6406c-0.46875 0.66797-1 1.1562-1.5938 1.4688-0.59375 0.30078-1.3203 0.45312-2.1719 0.45312-1.1562 0-2.0938-0.33203-2.8125-1-0.71094-0.66406-1.0625-1.5352-1.0625-2.6094 0-1.3008 0.44531-2.2539 1.3438-2.8594 0.89453-0.61328 2.3008-0.92188 4.2188-0.92188h2.0781v-0.28125c0-0.55078-0.22656-0.95703-0.67188-1.2188-0.4375-0.26953-1.125-0.40625-2.0625-0.40625-0.76172 0-1.4688 0.078125-2.125 0.23438-0.64844 0.15625-1.25 0.38672-1.8125 0.6875v-2.7031c0.75781-0.1875 1.5195-0.32812 2.2812-0.42188 0.76953-0.10156 1.5391-0.15625 2.3125-0.15625 2 0 3.4414 0.39844 4.3281 1.1875 0.88281 0.79297 1.3281 2.0781 1.3281 3.8594z"/>
  </symbol>
  <symbol id="b" overflow="visible">
   <path d="m5.5781-14.25v3.1562h3.6562v2.5312h-3.6562v4.7031c0 0.52344 0.097656 0.875 0.29688 1.0625 0.20703 0.17969 0.61719 0.26562 1.2344 0.26562h1.8125v2.5312h-3.0312c-1.4062 0-2.4023-0.28906-2.9844-0.875-0.58594-0.58203-0.875-1.5781-0.875-2.9844v-4.7031h-1.7656v-2.5312h1.7656v-3.1562z"/>
  </symbol>
  <symbol id="h" overflow="visible">
   <path d="m9.25-9.4688v-5.9531h3.5781v15.422h-3.5781v-1.6094c-0.49219 0.65625-1.0273 1.1367-1.6094 1.4375-0.58594 0.30078-1.2656 0.45312-2.0469 0.45312-1.3672 0-2.4922-0.53906-3.375-1.625-0.875-1.082-1.3125-2.4844-1.3125-4.2031 0-1.707 0.4375-3.1016 1.3125-4.1875 0.88281-1.0938 2.0078-1.6406 3.375-1.6406 0.76953 0 1.4453 0.15625 2.0312 0.46875 0.59375 0.30469 1.1328 0.78125 1.625 1.4375zm-2.3281 7.1719c0.75781 0 1.3359-0.27344 1.7344-0.82812 0.39453-0.55078 0.59375-1.3594 0.59375-2.4219 0-1.0508-0.19922-1.8516-0.59375-2.4062-0.39844-0.5625-0.97656-0.84375-1.7344-0.84375-0.76172 0-1.3398 0.28125-1.7344 0.84375-0.39844 0.55469-0.59375 1.3555-0.59375 2.4062 0 1.0625 0.19531 1.8711 0.59375 2.4219 0.39453 0.55469 0.97266 0.82812 1.7344 0.82812z"/>
  </symbol>
  <symbol id="g" overflow="visible">
   <path d="m7.6094-2.2969c0.75781 0 1.3359-0.27344 1.7344-0.82812 0.40625-0.55078 0.60938-1.3594 0.60938-2.4219 0-1.0508-0.20312-1.8516-0.60938-2.4062-0.39844-0.5625-0.97656-0.84375-1.7344-0.84375-0.76172 0-1.3438 0.28125-1.75 0.84375s-0.60938 1.3672-0.60938 2.4062c0 1.0547 0.20312 1.8594 0.60938 2.4219 0.40625 0.55469 0.98828 0.82812 1.75 0.82812zm-2.3594-7.1719c0.48828-0.65625 1.0312-1.1328 1.625-1.4375 0.59375-0.3125 1.2734-0.46875 2.0469-0.46875 1.375 0 2.5 0.54688 3.375 1.6406 0.875 1.0859 1.3125 2.4805 1.3125 4.1875 0 1.7188-0.4375 3.1211-1.3125 4.2031-0.875 1.0859-2 1.625-3.375 1.625-0.77344 0-1.4531-0.15234-2.0469-0.45312-0.59375-0.3125-1.1367-0.78906-1.625-1.4375v1.6094h-3.5469v-15.422h3.5469z"/>
  </symbol>
  <symbol id="f" overflow="visible">
   <path d="m0.25-11.094h3.5469l2.9844 7.5312 2.5312-7.5312h3.5469l-4.6562 12.141c-0.46875 1.2383-1.0156 2.1016-1.6406 2.5938-0.625 0.48828-1.4531 0.73438-2.4844 0.73438h-2.0469v-2.3281h1.1094c0.60156 0 1.0391-0.09375 1.3125-0.28125 0.26953-0.1875 0.48438-0.53125 0.64062-1.0312l0.09375-0.3125z"/>
  </symbol>
  <symbol id="e" overflow="visible">
   <path d="m1.8594-14.797h3.8125v13.359c0 1.8438-0.5 3.2188-1.5 4.125-1 0.91406-2.5117 1.375-4.5312 1.375h-0.78125v-2.8906h0.59375c0.78906 0 1.3906-0.22656 1.7969-0.67188 0.40625-0.4375 0.60938-1.082 0.60938-1.9375z"/>
  </symbol>
  <symbol id="a" overflow="visible">
   <path d="m6.9844-8.8281c-0.78125 0-1.3828 0.28125-1.7969 0.84375-0.41797 0.5625-0.625 1.375-0.625 2.4375 0 1.0742 0.20703 1.8906 0.625 2.4531 0.41406 0.5625 1.0156 0.84375 1.7969 0.84375 0.76953 0 1.3594-0.28125 1.7656-0.84375 0.41406-0.5625 0.625-1.3789 0.625-2.4531 0-1.0625-0.21094-1.875-0.625-2.4375-0.40625-0.5625-0.99609-0.84375-1.7656-0.84375zm0-2.5469c1.9062 0 3.3945 0.51562 4.4688 1.5469 1.082 1.0312 1.625 2.4609 1.625 4.2812 0 1.8242-0.54297 3.25-1.625 4.2812-1.0742 1.0312-2.5625 1.5469-4.4688 1.5469-1.918 0-3.418-0.51562-4.5-1.5469-1.0742-1.0312-1.6094-2.457-1.6094-4.2812 0-1.8203 0.53516-3.25 1.6094-4.2812 1.082-1.0312 2.582-1.5469 4.5-1.5469z"/>
  </symbol>
  <symbol id="s" overflow="visible">
   <path d="m10.375-10.75v2.6875c-0.76172-0.3125-1.4961-0.54688-2.2031-0.70312-0.71094-0.16406-1.375-0.25-2-0.25-0.67969 0-1.1797 0.089844-1.5 0.26562-0.32422 0.16797-0.48438 0.42188-0.48438 0.76562 0 0.29297 0.11719 0.51562 0.35938 0.67188 0.25 0.14844 0.69531 0.25781 1.3438 0.32812l0.625 0.09375c1.8125 0.23047 3.0312 0.60938 3.6562 1.1406 0.63281 0.52344 0.95312 1.3516 0.95312 2.4844 0 1.1797-0.4375 2.0625-1.3125 2.6562s-2.1797 0.89062-3.9062 0.89062c-0.73047 0-1.4922-0.058594-2.2812-0.17188-0.78125-0.11328-1.5859-0.28516-2.4062-0.51562v-2.7031c0.70703 0.34375 1.4297 0.60547 2.1719 0.78125 0.75 0.16797 1.5039 0.25 2.2656 0.25 0.69531 0 1.2188-0.09375 1.5625-0.28125 0.35156-0.1875 0.53125-0.47266 0.53125-0.85938 0-0.3125-0.12109-0.54688-0.35938-0.70312-0.24219-0.15625-0.71875-0.27344-1.4375-0.35938l-0.625-0.078125c-1.5859-0.19531-2.6953-0.5625-3.3281-1.0938-0.63672-0.53906-0.95312-1.3594-0.95312-2.4531 0-1.1641 0.39844-2.0352 1.2031-2.6094 0.8125-0.57031 2.0508-0.85938 3.7188-0.85938 0.65625 0 1.3438 0.054688 2.0625 0.15625 0.71875 0.10547 1.5 0.26172 2.3438 0.46875z"/>
  </symbol>
  <symbol id="r" overflow="visible">
   <path d="m9.0156-15.422v2.3281h-1.9688c-0.5 0-0.85156 0.09375-1.0469 0.28125-0.19922 0.17969-0.29688 0.49219-0.29688 0.9375v0.78125h3.0312v2.5312h-3.0312v8.5625h-3.5469v-8.5625h-1.7656v-2.5312h1.7656v-0.78125c0-1.207 0.33203-2.0977 1-2.6719 0.67578-0.58203 1.7227-0.875 3.1406-0.875z"/>
  </symbol>
  <symbol id="q" overflow="visible">
   <path d="m11.984-9.25c0.45703-0.6875 0.99219-1.2109 1.6094-1.5781 0.61328-0.36328 1.2891-0.54688 2.0312-0.54688 1.2812 0 2.2539 0.39844 2.9219 1.1875 0.66406 0.78125 1 1.9219 1 3.4219v6.7656h-3.5781v-5.7812c0.007812-0.09375 0.015625-0.17969 0.015625-0.26562 0.007813-0.09375 0.015625-0.22656 0.015625-0.40625 0-0.78125-0.12109-1.3477-0.35938-1.7031-0.23047-0.35156-0.60156-0.53125-1.1094-0.53125-0.67969 0-1.1992 0.27734-1.5625 0.82812-0.36719 0.55469-0.55859 1.3555-0.57812 2.4062v5.4531h-3.5625v-5.7812c0-1.2266-0.10547-2.0195-0.3125-2.375-0.21094-0.35156-0.58594-0.53125-1.125-0.53125-0.6875 0-1.2188 0.28125-1.5938 0.84375-0.36719 0.55469-0.54688 1.3516-0.54688 2.3906v5.4531h-3.5625v-11.094h3.5625v1.625c0.4375-0.63281 0.9375-1.1094 1.5-1.4219 0.5625-0.32031 1.1875-0.48438 1.875-0.48438 0.75781 0 1.4297 0.1875 2.0156 0.5625 0.59375 0.375 1.0391 0.89844 1.3438 1.5625z"/>
  </symbol>
  <symbol id="p" overflow="visible">
   <path d="m12.859-6.7656v6.7656h-3.5625v-5.1562c0-0.96875-0.023437-1.6328-0.0625-2-0.042969-0.36328-0.11719-0.62891-0.21875-0.79688-0.14844-0.23828-0.33984-0.42188-0.57812-0.54688-0.23047-0.125-0.5-0.1875-0.8125-0.1875-0.74219 0-1.3242 0.28906-1.75 0.85938-0.41797 0.5625-0.625 1.3555-0.625 2.375v5.4531h-3.5469v-15.422h3.5469v5.9531c0.53906-0.65625 1.1094-1.1328 1.7031-1.4375 0.60156-0.3125 1.2695-0.46875 2-0.46875 1.2812 0 2.25 0.39844 2.9062 1.1875 0.66406 0.78125 1 1.9219 1 3.4219z"/>
  </symbol>
  <symbol id="o" overflow="visible">
   <path d="m1.8594-14.797h4.2656l5.375 10.156v-10.156h3.625v14.797h-4.2656l-5.375-10.156v10.156h-3.625z"/>
  </symbol>
  <symbol id="n" overflow="visible">
   <path d="m1.5781-4.3281v-6.7656h3.5781v1.1094c0 0.59375-0.007812 1.3516-0.015625 2.2656v1.8125c0 0.89844 0.019531 1.543 0.0625 1.9375 0.039063 0.38672 0.11719 0.66797 0.23438 0.84375 0.14453 0.23047 0.33203 0.41406 0.5625 0.54688 0.23828 0.125 0.50781 0.1875 0.8125 0.1875 0.73828 0 1.3203-0.28516 1.75-0.85938 0.42578-0.57031 0.64062-1.3633 0.64062-2.375v-5.4688h3.5469v11.094h-3.5469v-1.6094c-0.54297 0.64844-1.1172 1.125-1.7188 1.4375-0.59375 0.30078-1.25 0.45312-1.9688 0.45312-1.2812 0-2.2617-0.39062-2.9375-1.1719-0.66797-0.78906-1-1.9375-1-3.4375z"/>
  </symbol>
  <symbol id="m" overflow="visible">
   <path d="m12.859-6.7656v6.7656h-3.5625v-5.1719c0-0.95703-0.023437-1.6172-0.0625-1.9844-0.042969-0.36328-0.11719-0.62891-0.21875-0.79688-0.14844-0.23828-0.33984-0.42188-0.57812-0.54688-0.23047-0.125-0.5-0.1875-0.8125-0.1875-0.74219 0-1.3242 0.28906-1.75 0.85938-0.41797 0.5625-0.625 1.3555-0.625 2.375v5.4531h-3.5469v-11.094h3.5469v1.625c0.53906-0.65625 1.1094-1.1328 1.7031-1.4375 0.60156-0.3125 1.2695-0.46875 2-0.46875 1.2812 0 2.25 0.39844 2.9062 1.1875 0.66406 0.78125 1 1.9219 1 3.4219z"/>
  </symbol>
  <symbol id="l" overflow="visible">
   <path d="m1.8594-14.797h6.3438c1.875 0 3.3164 0.41797 4.3281 1.25 1.0078 0.83594 1.5156 2.0273 1.5156 3.5781 0 1.5547-0.50781 2.7461-1.5156 3.5781-1.0117 0.83594-2.4531 1.25-4.3281 1.25h-2.5312v5.1406h-3.8125zm3.8125 2.7656v4.125h2.125c0.73828 0 1.3047-0.17578 1.7031-0.53125 0.40625-0.36328 0.60938-0.875 0.60938-1.5312 0-0.66406-0.20312-1.1758-0.60938-1.5312-0.39844-0.35156-0.96484-0.53125-1.7031-0.53125z"/>
  </symbol>
  <symbol id="k" overflow="visible">
   <path d="m1.7031-11.094h3.5469v10.891c0 1.4883-0.35938 2.625-1.0781 3.4062-0.71094 0.78125-1.7422 1.1719-3.0938 1.1719h-1.75v-2.3281h0.60938c0.67578 0 1.1406-0.15234 1.3906-0.45312 0.25-0.30469 0.375-0.90234 0.375-1.7969zm0-4.3281h3.5469v2.8906h-3.5469z"/>
  </symbol>
  <symbol id="j" overflow="visible">
   <path d="m10.672-10.75v2.8906c-0.48047-0.33203-0.96484-0.57812-1.4531-0.73438-0.48047-0.15625-0.98438-0.23438-1.5156-0.23438-0.99219 0-1.7617 0.29297-2.3125 0.875-0.55469 0.57422-0.82812 1.375-0.82812 2.4062 0 1.043 0.27344 1.8555 0.82812 2.4375 0.55078 0.57422 1.3203 0.85938 2.3125 0.85938 0.5625 0 1.0938-0.082031 1.5938-0.25 0.5-0.16406 0.95703-0.41016 1.375-0.73438v2.9062c-0.55469 0.21094-1.1172 0.35938-1.6875 0.45312-0.57422 0.10156-1.1484 0.15625-1.7188 0.15625-2 0-3.5703-0.50781-4.7031-1.5312-1.125-1.0312-1.6875-2.4609-1.6875-4.2969 0-1.8203 0.5625-3.25 1.6875-4.2812 1.1328-1.0312 2.7031-1.5469 4.7031-1.5469 0.58203 0 1.1562 0.054688 1.7188 0.15625 0.5625 0.10547 1.125 0.26172 1.6875 0.46875z"/>
  </symbol>
 </defs>
 <g>
  <path d="m575.62 273.51c-6.4922-58.027-20.289-114.03-42.203-168l-0.40625-0.40625c1.2188-2.8398-0.40625-6.8984-4.4648-6.8984-26.781-1.2188-54.375-11.363-81.16-15.422-18.668-2.8398-37.738-4.8711-56.812-6.8984-23.535-2.4336-47.477-4.8711-71.016-8.5234-17.855-2.8398-36.117-10.145-54.375-9.332-1.2188-0.8125-2.8398-0.8125-4.8711 0-9.332 6.0859-18.668 11.77-28 17.855-7.3047 4.4648-15.016 8.9258-20.695 15.422-1.2188 1.2188-1.2188 2.8398-1.2188 4.0586 0 0.8125 0 2.0273 0.40625 2.8398 22.32 46.668 36.926 96.176 62.492 141.22-52.754 25.566-104.7 52.348-147.71 92.926-2.0273 2.0273-1.625 4.4648-0.40625 6.4922 0.40625 7.7109 2.8398 15.422 4.4648 22.727 2.0273 8.5234 4.0586 16.637 5.6797 25.16 0 0.40625 0 0.8125-0.40625 1.2188-0.8125 2.4336 0.8125 5.2734 3.6523 6.0859h0.8125 0.8125c7.3047 5.2734 12.984 14.203 20.695 19.074 8.5234 5.6797 18.262 9.7383 27.594 13.797 26.781 11.363 54.375 21.508 81.566 31.246 28 9.7383 56.406 19.074 85.219 27.594 19.883 5.6797 49.102 21.102 69.391 14.609 1.2188-0.40625 2.0273-1.2188 2.4336-2.0273 23.535-29.219 46.262-58.84 68.176-89.273 14.203-19.074 28.812-38.551 43.016-57.625 1.625-0.8125 2.8398-2.0273 3.2461-4.4648v-3.2461c0-0.40625 0.40625-0.40625 0.40625-0.8125 1.2188-2.0273 0.8125-4.0586-0.40625-5.2734 0.40625-8.9258 0.40625-17.855 0.8125-26.781 10.551-10.551 20.695-21.508 30.027-32.871 0.40625-0.40625 0.40625-0.8125 0.40625-1.2188 2.4375-0.41016 2.8438-1.6289 2.8438-3.25zm-376.99 147.3c-5.2734-2.0273-10.957-4.4648-16.23-6.8984-13.391-7.3047-25.566-16.23-36.117-28l-0.40625-0.40625c-2.8398-11.77-5.2734-23.535-8.1172-35.711 27.594 25.566 69.391 38.957 103.48 51.129 23.129 8.1172 46.262 15.422 69.797 21.914 21.914 6.4922 43.422 13.797 66.551 12.984 4.0586 0 4.0586-6.4922 0-6.0859-40.578 2.0273-88.059-18.668-126.2-31.652-38.145-12.984-88.059-28-116.06-58.84 25.566-22.32 53.16-42.203 81.973-59.246 18.262-10.145 36.926-19.477 56-28.812 2.0273-0.8125 4.4648-2.0273 6.4922-2.8398 0.40625 0 0.8125-0.40625 0.8125-0.8125 1.625 1.625 4.4648 0.8125 5.2734-0.8125 42.609 11.363 86.027 19.477 129.86 24.348 4.0586 0.40625 4.0586-5.6797 0-6.0859-44.23-5.2734-88.059-13.391-131.07-24.754h-0.8125c-17.449-49.102-37.332-97.391-60.059-144.06 12.578-8.5234 25.566-16.637 38.957-24.348 21.102 2.4336 41.797 4.8711 62.898 7.7109h0.8125c3.2461 0.40625 6.4922 0.8125 10.145 1.2188 57.219 7.3047 114.03 15.824 170.43 25.566 2.8398 0.40625 5.2734 0.8125 8.1172 1.2188 1.625 0.40625 3.2461 0.40625 4.4648 0.8125-11.77 8.5234-23.129 18.262-33.273 28.812-2.8398 2.8398 1.625 7.3047 4.4648 4.4648 9.7383-10.145 20.289-19.074 31.246-27.188 11.77 25.566 16.637 53.566 22.727 80.348 6.0859 26.375 12.578 53.16 18.668 79.535-2.8398 3.6523-6.0859 6.8984-9.332 10.551-6.0859 5.6797-12.176 11.363-18.262 17.043-1.2188-0.40625-2.4336 0-3.2461 1.2188 0-0.8125-0.40625-1.625-0.8125-2.0273h0.40625c1.625 0 2.4336-0.40625 2.8398-1.625 1.2188 0 2.8398-0.40625 3.2461-2.0273 4.0586-23.535-6.0859-49.102-14.203-70.609-9.332-26.375-21.914-51.535-36.523-75.477l-0.40625-0.40625c0.40625-1.2188 0-2.4336-1.2188-3.2461-34.086-20.289-76.695-23.941-115.25-30.84-44.637-8.1172-89.68-15.422-134.73-21.914-4.0586-0.40625-5.6797 5.2734-1.625 6.0859 11.363 1.625 22.727 3.2461 33.68 4.8711-0.40625 0.8125-0.8125 1.625-0.40625 2.4336 12.578 32.871 25.566 65.738 38.145 98.609-2.0273 0-2.8398 1.625-2.8398 3.2461-4.8711 4.8711-9.332 9.332-14.203 14.203-2.8398 2.8398 1.625 7.3047 4.4648 4.4648 5.2734-5.2734 10.551-10.551 15.824-15.422 72.23 19.477 144.87 36.117 218.32 50.32 1.2188 0.40625 2.0273 0 2.4336-0.8125 2.8398 10.957 4.0586 21.914 2.4336 31.652-22.32-2.4336-44.23-7.3047-65.738-14.203-3.6523-1.2188-5.6797 4.8711-1.625 6.0859 20.695 6.8984 42.203 11.363 63.711 14.203-0.40625 0-0.40625 0.40625-0.8125 0.40625-39.77 45.855-79.941 91.305-119.71 137.16-1.625 2.0273-0.40625 4.4648 1.625 5.2734 0.8125 10.145 2.4336 20.289 5.2734 30.027 1.2188 4.0586 7.3047 2.0273 6.0859-1.625-2.8398-10.551-4.8711-21.102-5.2734-31.652v-0.40625c38.957-44.637 77.914-88.871 116.87-133.51-0.8125 8.1172-2.4336 16.23-2.4336 24.348 0 4.4648 0.8125 8.5234 2.0273 12.176-33.273 48.695-68.176 95.77-105.1 142.03-2.4336 2.0273-4.8711 4.0586-7.3047 5.6797-0.40625 0-0.40625-0.40625-0.8125-0.40625-49.508-9.7383-97.391-25.566-145.27-41.391-10.145-3.2461-20.289-6.4922-30.84-9.7383-14.598-6.4961-29.613-12.176-44.223-18.262zm114.84-213.04v-0.40625c-12.984-33.68-25.973-67.363-38.957-100.64 28.812 4.4648 57.219 8.9258 85.625 14.203 39.77 7.3047 86.84 10.551 122.14 31.246 0 0.40625 0 1.2188 0.40625 2.0273 12.984 21.102 23.941 42.609 32.871 65.738 4.0586 10.957 9.7383 24.348 13.391 37.738-72.23-14.203-144.06-30.84-215.48-49.91z"/>
  <path d="m309.02 310.43c-0.40625 0.40625-0.40625 1.2188-0.40625 1.625-1.2188-2.8398-6.0859-2.4336-6.0859 1.2188 0 4.0586 2.4336 26.375 10.957 18.262 2.4336-2.4336 4.0586-6.0859 4.4648-9.332 40.176-17.449 84-23.941 125.39-38.551 3.6523-1.2188 2.0273-7.3047-1.625-6.0859-18.262 6.4922-36.523 11.363-55.188 16.23 18.262-5.6797 36.117-12.176 53.566-19.477 0.40625 0 0.40625-0.40625 0.8125-0.40625 2.4336 1.2188 4.4648 2.8398 6.0859 4.8711-0.8125 1.625 0.8125 4.0586 2.8398 4.4648 2.4336 6.0859 1.625 13.391-4.0586 18.668-1.2188 1.2188-1.2188 2.8398-0.40625 3.6523-6.4922 0-12.578-5.6797-10.957-12.984 0.8125-4.0586-5.2734-5.6797-6.0859-1.625-2.0273 8.9258 3.2461 17.449 10.957 20.289-0.40625 1.2188 0.40625 2.8398 2.0273 3.2461 9.7383 2.4336 26.375 1.625 31.246-8.9258 4.8711-10.551-6.8984-17.043-15.824-14.609 0.40625-3.6523-0.40625-6.8984-1.625-10.145 5.2734-2.8398 10.145-6.8984 11.77-13.391 1.625-6.8984-1.2188-13.391-7.7109-16.23-12.176-5.2734-32.059 1.625-30.027 17.043 0 1.2188 1.2188 2.4336 2.0273 2.8398-39.363 15.824-79.535 27.594-120.93 35.305-1.625 0.39453-2.0312 2.4258-1.2188 4.0469zm1.6211 14.203c-0.40625-0.8125-0.40625-2.0273-0.8125-2.8398-0.40625-2.8398-0.8125-5.6797-0.8125-8.5234v-0.40625c0.40625 0.40625 0.40625 1.2188 1.2188 1.625 1.2188 0.8125 2.0273 2.0273 2.0273 3.6523-1.2188 0.8125-0.8125 2.4336 0 3.6523 0 0.40625-0.40625 0.8125-0.40625 1.2188 0.003907 0-0.80859 0.80859-1.2148 1.6211zm7.3047-8.9258c-0.40625-1.2188-1.2188-2.8398-2.0273-4.0586 10.957-2.0273 22.32-4.4648 33.273-7.3047-10.957 3.2461-21.102 6.8984-31.246 11.363zm140-18.668c2.8398-1.2188 7.7109-2.0273 9.7383 1.625 2.4336 4.0586-2.4336 6.8984-5.2734 8.1172s-5.6797 2.0273-8.9258 2.0273c0.8125-1.625 0-4.0586-1.625-4.4648 2.0273-2.4336 3.2461-4.8711 4.4648-7.3047 0.40625 0.40625 1.2148 0.40625 1.6211 0zm-2.0273-40.578c6.8984 2.0273 7.3047 9.332 2.8398 14.609-1.625 2.0273-3.6523 3.2461-6.0859 4.4648-2.0273-2.8398-4.8711-5.2734-8.5234-6.8984-1.2188-0.40625-2.0273-0.40625-2.8398 0-0.8125-0.8125-1.625-0.8125-2.8398-0.40625-0.8125 0.40625-2.0273 0.8125-2.8398 1.2188v-1.2188c-0.8125-10.555 12.172-14.609 20.289-11.77z"/>
  <path d="m414.12 304.75c0-4.0586-6.0859-4.0586-6.0859 0-2.0273 41.391-71.016 53.973-101.86 56.812-14.203 1.2188-28.812 1.2188-43.422 0.40625-9.332-0.8125-19.074-1.2188-28-3.6523-4.8711-1.625-9.7383-3.2461-14.609-4.8711-17.449-8.1172-19.477-23.129-6.4922-45.449 0.8125-0.40625 1.2188-1.2188 1.625-2.0273 49.508-34.492 112-41.391 168-19.074 3.6523 1.625 5.2734-4.4648 1.625-6.0859-59.246-23.941-126.2-15.422-177.74 22.727-0.40625 0.40625-0.8125 0.8125-1.2188 1.625-12.578 9.332-14.609 25.973-5.2734 39.77 14.609 21.508 47.074 22.727 70.609 23.535 41.793 1.6172 139.99-6.4961 142.84-63.715z"/>
  <path d="m397.88 310.03c-35.305 49.508-120.93 44.23-172.46 31.246-4.0586-0.8125-5.6797 4.8711-1.625 6.0859 54.781 13.797 142.43 17.855 179.77-34.086 2.0312-3.2461-3.2422-6.4922-5.6797-3.2461z"/>
 </g>
</svg>
