<?xml version="1.0" encoding="UTF-8"?>
<svg width="700pt" height="700pt" version="1.1" viewBox="100 50 500 450" xmlns="http://www.w3.org/2000/svg" xmlns:xlink="http://www.w3.org/1999/xlink" style="stroke:white;fill:white">
 <g>
  <path d="m575.62 273.51c-6.4922-58.027-20.289-114.03-42.203-168l-0.40625-0.40625c1.2188-2.8398-0.40625-6.8984-4.4648-6.8984-26.781-1.2188-54.375-11.363-81.16-15.422-18.668-2.8398-37.738-4.8711-56.812-6.8984-23.535-2.4336-47.477-4.8711-71.016-8.5234-17.855-2.8398-36.117-10.145-54.375-9.332-1.2188-0.8125-2.8398-0.8125-4.8711 0-9.332 6.0859-18.668 11.77-28 17.855-7.3047 4.4648-15.016 8.9258-20.695 15.422-1.2188 1.2188-1.2188 2.8398-1.2188 4.0586 0 0.8125 0 2.0273 0.40625 2.8398 22.32 46.668 36.926 96.176 62.492 141.22-52.754 25.566-104.7 52.348-147.71 92.926-2.0273 2.0273-1.625 4.4648-0.40625 6.4922 0.40625 7.7109 2.8398 15.422 4.4648 22.727 2.0273 8.5234 4.0586 16.637 5.6797 25.16 0 0.40625 0 0.8125-0.40625 1.2188-0.8125 2.4336 0.8125 5.2734 3.6523 6.0859h0.8125 0.8125c7.3047 5.2734 12.984 14.203 20.695 19.074 8.5234 5.6797 18.262 9.7383 27.594 13.797 26.781 11.363 54.375 21.508 81.566 31.246 28 9.7383 56.406 19.074 85.219 27.594 19.883 5.6797 49.102 21.102 69.391 14.609 1.2188-0.40625 2.0273-1.2188 2.4336-2.0273 23.535-29.219 46.262-58.84 68.176-89.273 14.203-19.074 28.812-38.551 43.016-57.625 1.625-0.8125 2.8398-2.0273 3.2461-4.4648v-3.2461c0-0.40625 0.40625-0.40625 0.40625-0.8125 1.2188-2.0273 0.8125-4.0586-0.40625-5.2734 0.40625-8.9258 0.40625-17.855 0.8125-26.781 10.551-10.551 20.695-21.508 30.027-32.871 0.40625-0.40625 0.40625-0.8125 0.40625-1.2188 2.4375-0.41016 2.8438-1.6289 2.8438-3.25zm-376.99 147.3c-5.2734-2.0273-10.957-4.4648-16.23-6.8984-13.391-7.3047-25.566-16.23-36.117-28l-0.40625-0.40625c-2.8398-11.77-5.2734-23.535-8.1172-35.711 27.594 25.566 69.391 38.957 103.48 51.129 23.129 8.1172 46.262 15.422 69.797 21.914 21.914 6.4922 43.422 13.797 66.551 12.984 4.0586 0 4.0586-6.4922 0-6.0859-40.578 2.0273-88.059-18.668-126.2-31.652-38.145-12.984-88.059-28-116.06-58.84 25.566-22.32 53.16-42.203 81.973-59.246 18.262-10.145 36.926-19.477 56-28.812 2.0273-0.8125 4.4648-2.0273 6.4922-2.8398 0.40625 0 0.8125-0.40625 0.8125-0.8125 1.625 1.625 4.4648 0.8125 5.2734-0.8125 42.609 11.363 86.027 19.477 129.86 24.348 4.0586 0.40625 4.0586-5.6797 0-6.0859-44.23-5.2734-88.059-13.391-131.07-24.754h-0.8125c-17.449-49.102-37.332-97.391-60.059-144.06 12.578-8.5234 25.566-16.637 38.957-24.348 21.102 2.4336 41.797 4.8711 62.898 7.7109h0.8125c3.2461 0.40625 6.4922 0.8125 10.145 1.2188 57.219 7.3047 114.03 15.824 170.43 25.566 2.8398 0.40625 5.2734 0.8125 8.1172 1.2188 1.625 0.40625 3.2461 0.40625 4.4648 0.8125-11.77 8.5234-23.129 18.262-33.273 28.812-2.8398 2.8398 1.625 7.3047 4.4648 4.4648 9.7383-10.145 20.289-19.074 31.246-27.188 11.77 25.566 16.637 53.566 22.727 80.348 6.0859 26.375 12.578 53.16 18.668 79.535-2.8398 3.6523-6.0859 6.8984-9.332 10.551-6.0859 5.6797-12.176 11.363-18.262 17.043-1.2188-0.40625-2.4336 0-3.2461 1.2188 0-0.8125-0.40625-1.625-0.8125-2.0273h0.40625c1.625 0 2.4336-0.40625 2.8398-1.625 1.2188 0 2.8398-0.40625 3.2461-2.0273 4.0586-23.535-6.0859-49.102-14.203-70.609-9.332-26.375-21.914-51.535-36.523-75.477l-0.40625-0.40625c0.40625-1.2188 0-2.4336-1.2188-3.2461-34.086-20.289-76.695-23.941-115.25-30.84-44.637-8.1172-89.68-15.422-134.73-21.914-4.0586-0.40625-5.6797 5.2734-1.625 6.0859 11.363 1.625 22.727 3.2461 33.68 4.8711-0.40625 0.8125-0.8125 1.625-0.40625 2.4336 12.578 32.871 25.566 65.738 38.145 98.609-2.0273 0-2.8398 1.625-2.8398 3.2461-4.8711 4.8711-9.332 9.332-14.203 14.203-2.8398 2.8398 1.625 7.3047 4.4648 4.4648 5.2734-5.2734 10.551-10.551 15.824-15.422 72.23 19.477 144.87 36.117 218.32 50.32 1.2188 0.40625 2.0273 0 2.4336-0.8125 2.8398 10.957 4.0586 21.914 2.4336 31.652-22.32-2.4336-44.23-7.3047-65.738-14.203-3.6523-1.2188-5.6797 4.8711-1.625 6.0859 20.695 6.8984 42.203 11.363 63.711 14.203-0.40625 0-0.40625 0.40625-0.8125 0.40625-39.77 45.855-79.941 91.305-119.71 137.16-1.625 2.0273-0.40625 4.4648 1.625 5.2734 0.8125 10.145 2.4336 20.289 5.2734 30.027 1.2188 4.0586 7.3047 2.0273 6.0859-1.625-2.8398-10.551-4.8711-21.102-5.2734-31.652v-0.40625c38.957-44.637 77.914-88.871 116.87-133.51-0.8125 8.1172-2.4336 16.23-2.4336 24.348 0 4.4648 0.8125 8.5234 2.0273 12.176-33.273 48.695-68.176 95.77-105.1 142.03-2.4336 2.0273-4.8711 4.0586-7.3047 5.6797-0.40625 0-0.40625-0.40625-0.8125-0.40625-49.508-9.7383-97.391-25.566-145.27-41.391-10.145-3.2461-20.289-6.4922-30.84-9.7383-14.598-6.4961-29.613-12.176-44.223-18.262zm114.84-213.04v-0.40625c-12.984-33.68-25.973-67.363-38.957-100.64 28.812 4.4648 57.219 8.9258 85.625 14.203 39.77 7.3047 86.84 10.551 122.14 31.246 0 0.40625 0 1.2188 0.40625 2.0273 12.984 21.102 23.941 42.609 32.871 65.738 4.0586 10.957 9.7383 24.348 13.391 37.738-72.23-14.203-144.06-30.84-215.48-49.91z"/>
  <path d="m309.02 310.43c-0.40625 0.40625-0.40625 1.2188-0.40625 1.625-1.2188-2.8398-6.0859-2.4336-6.0859 1.2188 0 4.0586 2.4336 26.375 10.957 18.262 2.4336-2.4336 4.0586-6.0859 4.4648-9.332 40.176-17.449 84-23.941 125.39-38.551 3.6523-1.2188 2.0273-7.3047-1.625-6.0859-18.262 6.4922-36.523 11.363-55.188 16.23 18.262-5.6797 36.117-12.176 53.566-19.477 0.40625 0 0.40625-0.40625 0.8125-0.40625 2.4336 1.2188 4.4648 2.8398 6.0859 4.8711-0.8125 1.625 0.8125 4.0586 2.8398 4.4648 2.4336 6.0859 1.625 13.391-4.0586 18.668-1.2188 1.2188-1.2188 2.8398-0.40625 3.6523-6.4922 0-12.578-5.6797-10.957-12.984 0.8125-4.0586-5.2734-5.6797-6.0859-1.625-2.0273 8.9258 3.2461 17.449 10.957 20.289-0.40625 1.2188 0.40625 2.8398 2.0273 3.2461 9.7383 2.4336 26.375 1.625 31.246-8.9258 4.8711-10.551-6.8984-17.043-15.824-14.609 0.40625-3.6523-0.40625-6.8984-1.625-10.145 5.2734-2.8398 10.145-6.8984 11.77-13.391 1.625-6.8984-1.2188-13.391-7.7109-16.23-12.176-5.2734-32.059 1.625-30.027 17.043 0 1.2188 1.2188 2.4336 2.0273 2.8398-39.363 15.824-79.535 27.594-120.93 35.305-1.625 0.39453-2.0312 2.4258-1.2188 4.0469zm1.6211 14.203c-0.40625-0.8125-0.40625-2.0273-0.8125-2.8398-0.40625-2.8398-0.8125-5.6797-0.8125-8.5234v-0.40625c0.40625 0.40625 0.40625 1.2188 1.2188 1.625 1.2188 0.8125 2.0273 2.0273 2.0273 3.6523-1.2188 0.8125-0.8125 2.4336 0 3.6523 0 0.40625-0.40625 0.8125-0.40625 1.2188 0.003907 0-0.80859 0.80859-1.2148 1.6211zm7.3047-8.9258c-0.40625-1.2188-1.2188-2.8398-2.0273-4.0586 10.957-2.0273 22.32-4.4648 33.273-7.3047-10.957 3.2461-21.102 6.8984-31.246 11.363zm140-18.668c2.8398-1.2188 7.7109-2.0273 9.7383 1.625 2.4336 4.0586-2.4336 6.8984-5.2734 8.1172s-5.6797 2.0273-8.9258 2.0273c0.8125-1.625 0-4.0586-1.625-4.4648 2.0273-2.4336 3.2461-4.8711 4.4648-7.3047 0.40625 0.40625 1.2148 0.40625 1.6211 0zm-2.0273-40.578c6.8984 2.0273 7.3047 9.332 2.8398 14.609-1.625 2.0273-3.6523 3.2461-6.0859 4.4648-2.0273-2.8398-4.8711-5.2734-8.5234-6.8984-1.2188-0.40625-2.0273-0.40625-2.8398 0-0.8125-0.8125-1.625-0.8125-2.8398-0.40625-0.8125 0.40625-2.0273 0.8125-2.8398 1.2188v-1.2188c-0.8125-10.555 12.172-14.609 20.289-11.77z"/>
  <path d="m414.12 304.75c0-4.0586-6.0859-4.0586-6.0859 0-2.0273 41.391-71.016 53.973-101.86 56.812-14.203 1.2188-28.812 1.2188-43.422 0.40625-9.332-0.8125-19.074-1.2188-28-3.6523-4.8711-1.625-9.7383-3.2461-14.609-4.8711-17.449-8.1172-19.477-23.129-6.4922-45.449 0.8125-0.40625 1.2188-1.2188 1.625-2.0273 49.508-34.492 112-41.391 168-19.074 3.6523 1.625 5.2734-4.4648 1.625-6.0859-59.246-23.941-126.2-15.422-177.74 22.727-0.40625 0.40625-0.8125 0.8125-1.2188 1.625-12.578 9.332-14.609 25.973-5.2734 39.77 14.609 21.508 47.074 22.727 70.609 23.535 41.793 1.6172 139.99-6.4961 142.84-63.715z"/>
  <path d="m397.88 310.03c-35.305 49.508-120.93 44.23-172.46 31.246-4.0586-0.8125-5.6797 4.8711-1.625 6.0859 54.781 13.797 142.43 17.855 179.77-34.086 2.0312-3.2461-3.2422-6.4922-5.6797-3.2461z"/>
 </g>
</svg>
