<?xml version="1.0" encoding="UTF-8"?>
<svg width="560pt" height="440pt" version="1.1" viewBox="50 120 610 320" xmlns="http://www.w3.org/2000/svg" xmlns:xlink="http://www.w3.org/1999/xlink" style="fill:white">
 <g>
  <path d="m292.04 211.18c-18.016 0-35.293 7.1562-48.031 19.895-12.738 12.742-19.895 30.02-19.895 48.035s7.1562 35.293 19.895 48.031c12.738 12.738 30.016 19.895 48.031 19.895 18.016 0 35.293-7.1562 48.035-19.895 12.738-12.738 19.895-30.016 19.895-48.031-0.015625-18.012-7.1758-35.281-19.914-48.016-12.734-12.738-30.004-19.898-48.016-19.914zm0 92.734c-6.5781 0-12.887-2.6133-17.539-7.2656-4.6562-4.6523-7.2695-10.961-7.2695-17.539 0-6.582 2.6133-12.891 7.2695-17.543 4.6523-4.6523 10.961-7.2656 17.539-7.2656 6.582 0 12.891 2.6133 17.543 7.2656 4.6523 4.6523 7.2656 10.961 7.2656 17.543 0 6.5781-2.6133 12.887-7.2656 17.539-4.6523 4.6523-10.961 7.2656-17.543 7.2656z"/>
  <path d="m292.04 58.184c-58.828 0-115.25 23.371-156.85 64.969s-64.969 98.02-64.969 156.85 23.371 115.25 64.969 156.85 98.02 64.969 156.85 64.969c58.184 0 111.16-25.367 150.75-58.91l187.21-0.003906v-326.93h-189.79c-39.941-37.887-93.129-58.629-148.18-57.793zm-102.98 52.641c-70.781 68.938-90.719 166.94-90.719 166.94-18.145-137.76 90.719-166.94 90.719-166.94zm-56.84 166.94c-14.504-110.32 72.801-133.56 72.801-133.56-56.617 55.156-72.801 133.56-72.801 133.56zm92.961-108.47c-49.504 48.273-63.504 116.82-63.504 116.82-12.656-96.547 63.504-116.88 63.504-116.88zm17.137 20.887c-40.656 39.426-52.137 95.93-52.137 95.93-10.414-79.297 52.191-95.984 52.191-95.984zm49.672 159.82c-18.781-0.015625-36.789-7.4883-50.062-20.773-13.273-13.289-20.727-31.305-20.723-50.086 0.003906-18.781 7.4688-36.793 20.75-50.07 13.281-13.281 31.289-20.746 50.07-20.75 18.785-0.003906 36.797 7.4492 50.086 20.723 13.285 13.273 20.758 31.281 20.773 50.062-0.027344 18.777-7.5 36.777-20.781 50.059-13.277 13.277-31.277 20.75-50.059 20.781zm104.78-81.199c10.414 79.07-52.363 95.758-52.363 95.758 40.883-39.758 52.363-95.758 52.363-95.758zm28.504 0c12.711 96.32-63.504 116.65-63.504 116.65 49.504-48.273 63.504-116.65 63.504-116.65zm29.457 8.3438c14.504 110.32-72.801 133.56-72.801 133.56 56.84-55.383 72.797-133.78 72.797-133.78zm-56.785 166.71c70.785-68.938 90.719-166.94 90.719-166.94 18.145 137.88-90.719 166.94-90.719 166.94zm219.46-315.05v297.36h-160.61c37.172-40.133 57.656-92.918 57.285-147.62 0.36328-55.742-20.965-109.44-59.469-149.74z"/>
  <path d="m504.89 396.43c-0.14453 7.5781 3.2188 14.805 9.1133 19.574 5.8906 4.7734 13.656 6.5586 21.043 4.8359 7.3828-1.7188 13.562-6.75 16.742-13.633 3.1797-6.8828 3.0039-14.848-0.47266-21.586l28.281-28.395v-169.96h12.602v-50.398h-33.602v50.398h8.3984v163.02l-25.871 23.91c-3.5586-1.4453-7.3594-2.1875-11.199-2.1836-6.5195 0.054688-12.762 2.625-17.426 7.1758-4.6641 4.5508-7.3906 10.727-7.6094 17.242zm23.969-8.9023v-0.003907c3.6016 0 6.8477 2.168 8.2266 5.4961s0.61719 7.1562-1.9297 9.7031-6.375 3.3086-9.7031 1.9297c-3.3281-1.375-5.4961-4.625-5.4961-8.2227 0.03125-4.8984 4.0078-8.8516 8.9023-8.8516z"/>
 </g>
</svg>
