<?xml version="1.0"?>
<svg width="44" height="44" xmlns="http://www.w3.org/2000/svg">
 <metadata id="metadata8">image/svg+xml</metadata>
 <defs>
  <clipPath clipPathUnits="userSpaceOnUse" id="clipPath18">
   <path d="m-4466.25,6803.629883l0,-4999.879883l5309.72998,0l0,4999.879883l-5309.72998,0z" id="path20"/>
  </clipPath>
 </defs>
 <g>
  <title>background</title>
  <rect fill="none" id="canvas_background" height="46" width="46" y="-1" x="-1"/>
 </g>
 <g>
  <title>Layer 1</title>
  <g id="g10" transform="matrix(1.3333333,0,0,-1.3333333,0,666.65333) ">
   <g id="g12" transform="translate(310.5,150.75) scale(0.10000000149011612) ">
    <g id="g14">
     <g id="g16" clip-path="url(#clipPath18)">
      <path fill="#6babe1" fill-rule="evenodd" d="m-2940.169922,3489.199951c-89.940186,0 -162.880127,-72.929932 -162.880127,-162.899902c0,-71.969971 46.670166,-133.02002 111.400146,-154.560059c8.149902,-1.5 11.119873,3.530029 11.119873,7.850098c0,3.869873 -0.139893,14.109863 -0.219971,27.699951c-45.310059,-9.840088 -54.870117,21.839844 -54.870117,21.839844c-7.409912,18.820068 -18.089844,23.830078 -18.089844,23.830078c-14.790039,10.099854 1.119873,9.899902 1.119873,9.899902c16.350098,-1.149902 24.949951,-16.790039 24.949951,-16.790039c14.530029,-24.889893 38.130127,-17.699707 47.409912,-13.529785c1.480225,10.519775 5.690186,17.699951 10.340088,21.77002c-36.169922,4.109863 -74.199951,18.089844 -74.199951,80.509766c0,17.780273 6.350098,32.330078 16.77002,43.710205c-1.679932,4.119873 -7.27002,20.689941 1.599854,43.110107c0,0 13.670166,4.379883 44.790039,-16.700195c12.98999,3.620117 26.930176,5.419922 40.780029,5.48999c13.840088,-0.070068 27.770264,-1.869873 40.780029,-5.48999c31.100098,21.080078 44.75,16.700195 44.75,16.700195c8.890137,-22.420166 3.300049,-38.990234 1.630127,-43.110107c10.439941,-11.380127 16.73999,-25.929932 16.73999,-43.710205c0,-62.579834 -38.090088,-76.349854 -74.370117,-80.379883c5.840088,-5.030029 11.050049,-14.969971 11.050049,-30.159912c0,-21.780029 -0.199951,-39.350098 -0.199951,-44.689941c0,-4.360107 2.939941,-9.430176 11.199951,-7.840088c64.679932,21.590088 111.310059,82.600098 111.310059,154.550049c0,89.969971 -72.940186,162.899902 -162.909912,162.899902" id="path114"/>
     </g>
    </g>
   </g>
  </g>
 </g>
</svg>
